%TF.GenerationSoftware,KiCad,Pcbnew,(5.1.10)-1*%
%TF.CreationDate,2021-11-24T06:09:51-05:00*%
%TF.ProjectId,bdpcb,62647063-622e-46b6-9963-61645f706362,rev?*%
%TF.SameCoordinates,Original*%
%TF.FileFunction,Profile,NP*%
%FSLAX46Y46*%
G04 Gerber Fmt 4.6, Leading zero omitted, Abs format (unit mm)*
G04 Created by KiCad (PCBNEW (5.1.10)-1) date 2021-11-24 06:09:51*
%MOMM*%
%LPD*%
G01*
G04 APERTURE LIST*
%TA.AperFunction,Profile*%
%ADD10C,0.150000*%
%TD*%
G04 APERTURE END LIST*
D10*
X299243750Y-130181560D02*
X18256250Y-130181440D01*
X301625000Y-18257170D02*
X301625120Y-127800190D01*
X18256250Y-15875800D02*
X299243750Y-15875920D01*
X15875000Y-127800190D02*
X15874880Y-18257170D01*
X18256250Y-130181440D02*
G75*
G02*
X15875000Y-127800190I0J2381250D01*
G01*
X301625120Y-127800190D02*
G75*
G02*
X299243750Y-130181560I-2381370J0D01*
G01*
X299243750Y-15875920D02*
G75*
G02*
X301625000Y-18257170I0J-2381250D01*
G01*
X15874880Y-18257170D02*
G75*
G02*
X18256250Y-15875800I2381370J0D01*
G01*
%TO.C,L15*%
X290297500Y-32057810D02*
G75*
G03*
X290797500Y-32557810I500000J0D01*
G01*
X293397500Y-32557810D02*
G75*
G03*
X293897500Y-32057810I0J500000D01*
G01*
X293897500Y-29857810D02*
G75*
G03*
X293397500Y-29357810I-500000J0D01*
G01*
X290797500Y-29357810D02*
G75*
G03*
X290297500Y-29857810I0J-500000D01*
G01*
X293397500Y-32557810D02*
X290797500Y-32557810D01*
X293897500Y-29857810D02*
X293897500Y-32057810D01*
X290797500Y-29357810D02*
X293397500Y-29357810D01*
X290297500Y-32057810D02*
X290297500Y-29857810D01*
%TO.C,L1*%
X23597500Y-32057810D02*
G75*
G03*
X24097500Y-32557810I500000J0D01*
G01*
X26697500Y-32557810D02*
G75*
G03*
X27197500Y-32057810I0J500000D01*
G01*
X27197500Y-29857810D02*
G75*
G03*
X26697500Y-29357810I-500000J0D01*
G01*
X24097500Y-29357810D02*
G75*
G03*
X23597500Y-29857810I0J-500000D01*
G01*
X26697500Y-32557810D02*
X24097500Y-32557810D01*
X27197500Y-29857810D02*
X27197500Y-32057810D01*
X24097500Y-29357810D02*
X26697500Y-29357810D01*
X23597500Y-32057810D02*
X23597500Y-29857810D01*
%TO.C,L83*%
X290300000Y-127312610D02*
G75*
G03*
X290800000Y-127812610I500000J0D01*
G01*
X293400000Y-127812610D02*
G75*
G03*
X293900000Y-127312610I0J500000D01*
G01*
X293900000Y-125112610D02*
G75*
G03*
X293400000Y-124612610I-500000J0D01*
G01*
X290800000Y-124612610D02*
G75*
G03*
X290300000Y-125112610I0J-500000D01*
G01*
X293400000Y-127812610D02*
X290800000Y-127812610D01*
X293900000Y-125112610D02*
X293900000Y-127312610D01*
X290800000Y-124612610D02*
X293400000Y-124612610D01*
X290300000Y-127312610D02*
X290300000Y-125112610D01*
%TO.C,L82*%
X271250000Y-127312610D02*
G75*
G03*
X271750000Y-127812610I500000J0D01*
G01*
X274350000Y-127812610D02*
G75*
G03*
X274850000Y-127312610I0J500000D01*
G01*
X274850000Y-125112610D02*
G75*
G03*
X274350000Y-124612610I-500000J0D01*
G01*
X271750000Y-124612610D02*
G75*
G03*
X271250000Y-125112610I0J-500000D01*
G01*
X274350000Y-127812610D02*
X271750000Y-127812610D01*
X274850000Y-125112610D02*
X274850000Y-127312610D01*
X271750000Y-124612610D02*
X274350000Y-124612610D01*
X271250000Y-127312610D02*
X271250000Y-125112610D01*
%TO.C,L81*%
X252197500Y-127312610D02*
G75*
G03*
X252697500Y-127812610I500000J0D01*
G01*
X255297500Y-127812610D02*
G75*
G03*
X255797500Y-127312610I0J500000D01*
G01*
X255797500Y-125112610D02*
G75*
G03*
X255297500Y-124612610I-500000J0D01*
G01*
X252697500Y-124612610D02*
G75*
G03*
X252197500Y-125112610I0J-500000D01*
G01*
X255297500Y-127812610D02*
X252697500Y-127812610D01*
X255797500Y-125112610D02*
X255797500Y-127312610D01*
X252697500Y-124612610D02*
X255297500Y-124612610D01*
X252197500Y-127312610D02*
X252197500Y-125112610D01*
%TO.C,L80*%
X233150000Y-127312610D02*
G75*
G03*
X233650000Y-127812610I500000J0D01*
G01*
X236250000Y-127812610D02*
G75*
G03*
X236750000Y-127312610I0J500000D01*
G01*
X236750000Y-125112610D02*
G75*
G03*
X236250000Y-124612610I-500000J0D01*
G01*
X233650000Y-124612610D02*
G75*
G03*
X233150000Y-125112610I0J-500000D01*
G01*
X236250000Y-127812610D02*
X233650000Y-127812610D01*
X236750000Y-125112610D02*
X236750000Y-127312610D01*
X233650000Y-124612610D02*
X236250000Y-124612610D01*
X233150000Y-127312610D02*
X233150000Y-125112610D01*
%TO.C,L79*%
X214097500Y-127312610D02*
G75*
G03*
X214597500Y-127812610I500000J0D01*
G01*
X217197500Y-127812610D02*
G75*
G03*
X217697500Y-127312610I0J500000D01*
G01*
X217697500Y-125112610D02*
G75*
G03*
X217197500Y-124612610I-500000J0D01*
G01*
X214597500Y-124612610D02*
G75*
G03*
X214097500Y-125112610I0J-500000D01*
G01*
X217197500Y-127812610D02*
X214597500Y-127812610D01*
X217697500Y-125112610D02*
X217697500Y-127312610D01*
X214597500Y-124612610D02*
X217197500Y-124612610D01*
X214097500Y-127312610D02*
X214097500Y-125112610D01*
%TO.C,L78*%
X195050000Y-127312610D02*
G75*
G03*
X195550000Y-127812610I500000J0D01*
G01*
X198150000Y-127812610D02*
G75*
G03*
X198650000Y-127312610I0J500000D01*
G01*
X198650000Y-125112610D02*
G75*
G03*
X198150000Y-124612610I-500000J0D01*
G01*
X195550000Y-124612610D02*
G75*
G03*
X195050000Y-125112610I0J-500000D01*
G01*
X198150000Y-127812610D02*
X195550000Y-127812610D01*
X198650000Y-125112610D02*
X198650000Y-127312610D01*
X195550000Y-124612610D02*
X198150000Y-124612610D01*
X195050000Y-127312610D02*
X195050000Y-125112610D01*
%TO.C,L77*%
X166472500Y-127312610D02*
G75*
G03*
X166972500Y-127812610I500000J0D01*
G01*
X169572500Y-127812610D02*
G75*
G03*
X170072500Y-127312610I0J500000D01*
G01*
X170072500Y-125112610D02*
G75*
G03*
X169572500Y-124612610I-500000J0D01*
G01*
X166972500Y-124612610D02*
G75*
G03*
X166472500Y-125112610I0J-500000D01*
G01*
X169572500Y-127812610D02*
X166972500Y-127812610D01*
X170072500Y-125112610D02*
X170072500Y-127312610D01*
X166972500Y-124612610D02*
X169572500Y-124612610D01*
X166472500Y-127312610D02*
X166472500Y-125112610D01*
%TO.C,L76*%
X135518750Y-127312610D02*
G75*
G03*
X136018750Y-127812610I500000J0D01*
G01*
X138618750Y-127812610D02*
G75*
G03*
X139118750Y-127312610I0J500000D01*
G01*
X139118750Y-125112610D02*
G75*
G03*
X138618750Y-124612610I-500000J0D01*
G01*
X136018750Y-124612610D02*
G75*
G03*
X135518750Y-125112610I0J-500000D01*
G01*
X138618750Y-127812610D02*
X136018750Y-127812610D01*
X139118750Y-125112610D02*
X139118750Y-127312610D01*
X136018750Y-124612610D02*
X138618750Y-124612610D01*
X135518750Y-127312610D02*
X135518750Y-125112610D01*
%TO.C,L75*%
X104562500Y-127312610D02*
G75*
G03*
X105062500Y-127812610I500000J0D01*
G01*
X107662500Y-127812610D02*
G75*
G03*
X108162500Y-127312610I0J500000D01*
G01*
X108162500Y-125112610D02*
G75*
G03*
X107662500Y-124612610I-500000J0D01*
G01*
X105062500Y-124612610D02*
G75*
G03*
X104562500Y-125112610I0J-500000D01*
G01*
X107662500Y-127812610D02*
X105062500Y-127812610D01*
X108162500Y-125112610D02*
X108162500Y-127312610D01*
X105062500Y-124612610D02*
X107662500Y-124612610D01*
X104562500Y-127312610D02*
X104562500Y-125112610D01*
%TO.C,L74*%
X73606250Y-127312610D02*
G75*
G03*
X74106250Y-127812610I500000J0D01*
G01*
X76706250Y-127812610D02*
G75*
G03*
X77206250Y-127312610I0J500000D01*
G01*
X77206250Y-125112610D02*
G75*
G03*
X76706250Y-124612610I-500000J0D01*
G01*
X74106250Y-124612610D02*
G75*
G03*
X73606250Y-125112610I0J-500000D01*
G01*
X76706250Y-127812610D02*
X74106250Y-127812610D01*
X77206250Y-125112610D02*
X77206250Y-127312610D01*
X74106250Y-124612610D02*
X76706250Y-124612610D01*
X73606250Y-127312610D02*
X73606250Y-125112610D01*
%TO.C,L73*%
X49793750Y-127312610D02*
G75*
G03*
X50293750Y-127812610I500000J0D01*
G01*
X52893750Y-127812610D02*
G75*
G03*
X53393750Y-127312610I0J500000D01*
G01*
X53393750Y-125112610D02*
G75*
G03*
X52893750Y-124612610I-500000J0D01*
G01*
X50293750Y-124612610D02*
G75*
G03*
X49793750Y-125112610I0J-500000D01*
G01*
X52893750Y-127812610D02*
X50293750Y-127812610D01*
X53393750Y-125112610D02*
X53393750Y-127312610D01*
X50293750Y-124612610D02*
X52893750Y-124612610D01*
X49793750Y-127312610D02*
X49793750Y-125112610D01*
%TO.C,L72*%
X25978750Y-127312610D02*
G75*
G03*
X26478750Y-127812610I500000J0D01*
G01*
X29078750Y-127812610D02*
G75*
G03*
X29578750Y-127312610I0J500000D01*
G01*
X29578750Y-125112610D02*
G75*
G03*
X29078750Y-124612610I-500000J0D01*
G01*
X26478750Y-124612610D02*
G75*
G03*
X25978750Y-125112610I0J-500000D01*
G01*
X29078750Y-127812610D02*
X26478750Y-127812610D01*
X29578750Y-125112610D02*
X29578750Y-127312610D01*
X26478750Y-124612610D02*
X29078750Y-124612610D01*
X25978750Y-127312610D02*
X25978750Y-125112610D01*
%TO.C,L71*%
X290297500Y-108261650D02*
G75*
G03*
X290797500Y-108761650I500000J0D01*
G01*
X293397500Y-108761650D02*
G75*
G03*
X293897500Y-108261650I0J500000D01*
G01*
X293897500Y-106061650D02*
G75*
G03*
X293397500Y-105561650I-500000J0D01*
G01*
X290797500Y-105561650D02*
G75*
G03*
X290297500Y-106061650I0J-500000D01*
G01*
X293397500Y-108761650D02*
X290797500Y-108761650D01*
X293897500Y-106061650D02*
X293897500Y-108261650D01*
X290797500Y-105561650D02*
X293397500Y-105561650D01*
X290297500Y-108261650D02*
X290297500Y-106061650D01*
%TO.C,L70*%
X271247500Y-108261650D02*
G75*
G03*
X271747500Y-108761650I500000J0D01*
G01*
X274347500Y-108761650D02*
G75*
G03*
X274847500Y-108261650I0J500000D01*
G01*
X274847500Y-106061650D02*
G75*
G03*
X274347500Y-105561650I-500000J0D01*
G01*
X271747500Y-105561650D02*
G75*
G03*
X271247500Y-106061650I0J-500000D01*
G01*
X274347500Y-108761650D02*
X271747500Y-108761650D01*
X274847500Y-106061650D02*
X274847500Y-108261650D01*
X271747500Y-105561650D02*
X274347500Y-105561650D01*
X271247500Y-108261650D02*
X271247500Y-106061650D01*
%TO.C,L69*%
X252200000Y-108261650D02*
G75*
G03*
X252700000Y-108761650I500000J0D01*
G01*
X255300000Y-108761650D02*
G75*
G03*
X255800000Y-108261650I0J500000D01*
G01*
X255800000Y-106061650D02*
G75*
G03*
X255300000Y-105561650I-500000J0D01*
G01*
X252700000Y-105561650D02*
G75*
G03*
X252200000Y-106061650I0J-500000D01*
G01*
X255300000Y-108761650D02*
X252700000Y-108761650D01*
X255800000Y-106061650D02*
X255800000Y-108261650D01*
X252700000Y-105561650D02*
X255300000Y-105561650D01*
X252200000Y-108261650D02*
X252200000Y-106061650D01*
%TO.C,L68*%
X233150000Y-108261650D02*
G75*
G03*
X233650000Y-108761650I500000J0D01*
G01*
X236250000Y-108761650D02*
G75*
G03*
X236750000Y-108261650I0J500000D01*
G01*
X236750000Y-106061650D02*
G75*
G03*
X236250000Y-105561650I-500000J0D01*
G01*
X233650000Y-105561650D02*
G75*
G03*
X233150000Y-106061650I0J-500000D01*
G01*
X236250000Y-108761650D02*
X233650000Y-108761650D01*
X236750000Y-106061650D02*
X236750000Y-108261650D01*
X233650000Y-105561650D02*
X236250000Y-105561650D01*
X233150000Y-108261650D02*
X233150000Y-106061650D01*
%TO.C,L67*%
X214100000Y-108261650D02*
G75*
G03*
X214600000Y-108761650I500000J0D01*
G01*
X217200000Y-108761650D02*
G75*
G03*
X217700000Y-108261650I0J500000D01*
G01*
X217700000Y-106061650D02*
G75*
G03*
X217200000Y-105561650I-500000J0D01*
G01*
X214600000Y-105561650D02*
G75*
G03*
X214100000Y-106061650I0J-500000D01*
G01*
X217200000Y-108761650D02*
X214600000Y-108761650D01*
X217700000Y-106061650D02*
X217700000Y-108261650D01*
X214600000Y-105561650D02*
X217200000Y-105561650D01*
X214100000Y-108261650D02*
X214100000Y-106061650D01*
%TO.C,L66*%
X195050000Y-108261650D02*
G75*
G03*
X195550000Y-108761650I500000J0D01*
G01*
X198150000Y-108761650D02*
G75*
G03*
X198650000Y-108261650I0J500000D01*
G01*
X198650000Y-106061650D02*
G75*
G03*
X198150000Y-105561650I-500000J0D01*
G01*
X195550000Y-105561650D02*
G75*
G03*
X195050000Y-106061650I0J-500000D01*
G01*
X198150000Y-108761650D02*
X195550000Y-108761650D01*
X198650000Y-106061650D02*
X198650000Y-108261650D01*
X195550000Y-105561650D02*
X198150000Y-105561650D01*
X195050000Y-108261650D02*
X195050000Y-106061650D01*
%TO.C,L65*%
X175997500Y-108261650D02*
G75*
G03*
X176497500Y-108761650I500000J0D01*
G01*
X179097500Y-108761650D02*
G75*
G03*
X179597500Y-108261650I0J500000D01*
G01*
X179597500Y-106061650D02*
G75*
G03*
X179097500Y-105561650I-500000J0D01*
G01*
X176497500Y-105561650D02*
G75*
G03*
X175997500Y-106061650I0J-500000D01*
G01*
X179097500Y-108761650D02*
X176497500Y-108761650D01*
X179597500Y-106061650D02*
X179597500Y-108261650D01*
X176497500Y-105561650D02*
X179097500Y-105561650D01*
X175997500Y-108261650D02*
X175997500Y-106061650D01*
%TO.C,L64*%
X156947500Y-108261650D02*
G75*
G03*
X157447500Y-108761650I500000J0D01*
G01*
X160047500Y-108761650D02*
G75*
G03*
X160547500Y-108261650I0J500000D01*
G01*
X160547500Y-106061650D02*
G75*
G03*
X160047500Y-105561650I-500000J0D01*
G01*
X157447500Y-105561650D02*
G75*
G03*
X156947500Y-106061650I0J-500000D01*
G01*
X160047500Y-108761650D02*
X157447500Y-108761650D01*
X160547500Y-106061650D02*
X160547500Y-108261650D01*
X157447500Y-105561650D02*
X160047500Y-105561650D01*
X156947500Y-108261650D02*
X156947500Y-106061650D01*
%TO.C,L63*%
X137897500Y-108261650D02*
G75*
G03*
X138397500Y-108761650I500000J0D01*
G01*
X140997500Y-108761650D02*
G75*
G03*
X141497500Y-108261650I0J500000D01*
G01*
X141497500Y-106061650D02*
G75*
G03*
X140997500Y-105561650I-500000J0D01*
G01*
X138397500Y-105561650D02*
G75*
G03*
X137897500Y-106061650I0J-500000D01*
G01*
X140997500Y-108761650D02*
X138397500Y-108761650D01*
X141497500Y-106061650D02*
X141497500Y-108261650D01*
X138397500Y-105561650D02*
X140997500Y-105561650D01*
X137897500Y-108261650D02*
X137897500Y-106061650D01*
%TO.C,L62*%
X118847500Y-108261650D02*
G75*
G03*
X119347500Y-108761650I500000J0D01*
G01*
X121947500Y-108761650D02*
G75*
G03*
X122447500Y-108261650I0J500000D01*
G01*
X122447500Y-106061650D02*
G75*
G03*
X121947500Y-105561650I-500000J0D01*
G01*
X119347500Y-105561650D02*
G75*
G03*
X118847500Y-106061650I0J-500000D01*
G01*
X121947500Y-108761650D02*
X119347500Y-108761650D01*
X122447500Y-106061650D02*
X122447500Y-108261650D01*
X119347500Y-105561650D02*
X121947500Y-105561650D01*
X118847500Y-108261650D02*
X118847500Y-106061650D01*
%TO.C,L61*%
X99797500Y-108261650D02*
G75*
G03*
X100297500Y-108761650I500000J0D01*
G01*
X102897500Y-108761650D02*
G75*
G03*
X103397500Y-108261650I0J500000D01*
G01*
X103397500Y-106061650D02*
G75*
G03*
X102897500Y-105561650I-500000J0D01*
G01*
X100297500Y-105561650D02*
G75*
G03*
X99797500Y-106061650I0J-500000D01*
G01*
X102897500Y-108761650D02*
X100297500Y-108761650D01*
X103397500Y-106061650D02*
X103397500Y-108261650D01*
X100297500Y-105561650D02*
X102897500Y-105561650D01*
X99797500Y-108261650D02*
X99797500Y-106061650D01*
%TO.C,L60*%
X80750000Y-108261650D02*
G75*
G03*
X81250000Y-108761650I500000J0D01*
G01*
X83850000Y-108761650D02*
G75*
G03*
X84350000Y-108261650I0J500000D01*
G01*
X84350000Y-106061650D02*
G75*
G03*
X83850000Y-105561650I-500000J0D01*
G01*
X81250000Y-105561650D02*
G75*
G03*
X80750000Y-106061650I0J-500000D01*
G01*
X83850000Y-108761650D02*
X81250000Y-108761650D01*
X84350000Y-106061650D02*
X84350000Y-108261650D01*
X81250000Y-105561650D02*
X83850000Y-105561650D01*
X80750000Y-108261650D02*
X80750000Y-106061650D01*
%TO.C,L59*%
X61700000Y-108261650D02*
G75*
G03*
X62200000Y-108761650I500000J0D01*
G01*
X64800000Y-108761650D02*
G75*
G03*
X65300000Y-108261650I0J500000D01*
G01*
X65300000Y-106061650D02*
G75*
G03*
X64800000Y-105561650I-500000J0D01*
G01*
X62200000Y-105561650D02*
G75*
G03*
X61700000Y-106061650I0J-500000D01*
G01*
X64800000Y-108761650D02*
X62200000Y-108761650D01*
X65300000Y-106061650D02*
X65300000Y-108261650D01*
X62200000Y-105561650D02*
X64800000Y-105561650D01*
X61700000Y-108261650D02*
X61700000Y-106061650D01*
%TO.C,L58*%
X33122500Y-108261650D02*
G75*
G03*
X33622500Y-108761650I500000J0D01*
G01*
X36222500Y-108761650D02*
G75*
G03*
X36722500Y-108261650I0J500000D01*
G01*
X36722500Y-106061650D02*
G75*
G03*
X36222500Y-105561650I-500000J0D01*
G01*
X33622500Y-105561650D02*
G75*
G03*
X33122500Y-106061650I0J-500000D01*
G01*
X36222500Y-108761650D02*
X33622500Y-108761650D01*
X36722500Y-106061650D02*
X36722500Y-108261650D01*
X33622500Y-105561650D02*
X36222500Y-105561650D01*
X33122500Y-108261650D02*
X33122500Y-106061650D01*
%TO.C,L57*%
X278391250Y-89210690D02*
G75*
G03*
X278891250Y-89710690I500000J0D01*
G01*
X281491250Y-89710690D02*
G75*
G03*
X281991250Y-89210690I0J500000D01*
G01*
X281991250Y-87010690D02*
G75*
G03*
X281491250Y-86510690I-500000J0D01*
G01*
X278891250Y-86510690D02*
G75*
G03*
X278391250Y-87010690I0J-500000D01*
G01*
X281491250Y-89710690D02*
X278891250Y-89710690D01*
X281991250Y-87010690D02*
X281991250Y-89210690D01*
X278891250Y-86510690D02*
X281491250Y-86510690D01*
X278391250Y-89210690D02*
X278391250Y-87010690D01*
%TO.C,L56*%
X247435000Y-89210690D02*
G75*
G03*
X247935000Y-89710690I500000J0D01*
G01*
X250535000Y-89710690D02*
G75*
G03*
X251035000Y-89210690I0J500000D01*
G01*
X251035000Y-87010690D02*
G75*
G03*
X250535000Y-86510690I-500000J0D01*
G01*
X247935000Y-86510690D02*
G75*
G03*
X247435000Y-87010690I0J-500000D01*
G01*
X250535000Y-89710690D02*
X247935000Y-89710690D01*
X251035000Y-87010690D02*
X251035000Y-89210690D01*
X247935000Y-86510690D02*
X250535000Y-86510690D01*
X247435000Y-89210690D02*
X247435000Y-87010690D01*
%TO.C,L55*%
X228385000Y-89210690D02*
G75*
G03*
X228885000Y-89710690I500000J0D01*
G01*
X231485000Y-89710690D02*
G75*
G03*
X231985000Y-89210690I0J500000D01*
G01*
X231985000Y-87010690D02*
G75*
G03*
X231485000Y-86510690I-500000J0D01*
G01*
X228885000Y-86510690D02*
G75*
G03*
X228385000Y-87010690I0J-500000D01*
G01*
X231485000Y-89710690D02*
X228885000Y-89710690D01*
X231985000Y-87010690D02*
X231985000Y-89210690D01*
X228885000Y-86510690D02*
X231485000Y-86510690D01*
X228385000Y-89210690D02*
X228385000Y-87010690D01*
%TO.C,L54*%
X209335000Y-89210690D02*
G75*
G03*
X209835000Y-89710690I500000J0D01*
G01*
X212435000Y-89710690D02*
G75*
G03*
X212935000Y-89210690I0J500000D01*
G01*
X212935000Y-87010690D02*
G75*
G03*
X212435000Y-86510690I-500000J0D01*
G01*
X209835000Y-86510690D02*
G75*
G03*
X209335000Y-87010690I0J-500000D01*
G01*
X212435000Y-89710690D02*
X209835000Y-89710690D01*
X212935000Y-87010690D02*
X212935000Y-89210690D01*
X209835000Y-86510690D02*
X212435000Y-86510690D01*
X209335000Y-89210690D02*
X209335000Y-87010690D01*
%TO.C,L53*%
X190287500Y-89210690D02*
G75*
G03*
X190787500Y-89710690I500000J0D01*
G01*
X193387500Y-89710690D02*
G75*
G03*
X193887500Y-89210690I0J500000D01*
G01*
X193887500Y-87010690D02*
G75*
G03*
X193387500Y-86510690I-500000J0D01*
G01*
X190787500Y-86510690D02*
G75*
G03*
X190287500Y-87010690I0J-500000D01*
G01*
X193387500Y-89710690D02*
X190787500Y-89710690D01*
X193887500Y-87010690D02*
X193887500Y-89210690D01*
X190787500Y-86510690D02*
X193387500Y-86510690D01*
X190287500Y-89210690D02*
X190287500Y-87010690D01*
%TO.C,L52*%
X171235000Y-89210690D02*
G75*
G03*
X171735000Y-89710690I500000J0D01*
G01*
X174335000Y-89710690D02*
G75*
G03*
X174835000Y-89210690I0J500000D01*
G01*
X174835000Y-87010690D02*
G75*
G03*
X174335000Y-86510690I-500000J0D01*
G01*
X171735000Y-86510690D02*
G75*
G03*
X171235000Y-87010690I0J-500000D01*
G01*
X174335000Y-89710690D02*
X171735000Y-89710690D01*
X174835000Y-87010690D02*
X174835000Y-89210690D01*
X171735000Y-86510690D02*
X174335000Y-86510690D01*
X171235000Y-89210690D02*
X171235000Y-87010690D01*
%TO.C,L51*%
X152187500Y-89210690D02*
G75*
G03*
X152687500Y-89710690I500000J0D01*
G01*
X155287500Y-89710690D02*
G75*
G03*
X155787500Y-89210690I0J500000D01*
G01*
X155787500Y-87010690D02*
G75*
G03*
X155287500Y-86510690I-500000J0D01*
G01*
X152687500Y-86510690D02*
G75*
G03*
X152187500Y-87010690I0J-500000D01*
G01*
X155287500Y-89710690D02*
X152687500Y-89710690D01*
X155787500Y-87010690D02*
X155787500Y-89210690D01*
X152687500Y-86510690D02*
X155287500Y-86510690D01*
X152187500Y-89210690D02*
X152187500Y-87010690D01*
%TO.C,L50*%
X133137500Y-89210690D02*
G75*
G03*
X133637500Y-89710690I500000J0D01*
G01*
X136237500Y-89710690D02*
G75*
G03*
X136737500Y-89210690I0J500000D01*
G01*
X136737500Y-87010690D02*
G75*
G03*
X136237500Y-86510690I-500000J0D01*
G01*
X133637500Y-86510690D02*
G75*
G03*
X133137500Y-87010690I0J-500000D01*
G01*
X136237500Y-89710690D02*
X133637500Y-89710690D01*
X136737500Y-87010690D02*
X136737500Y-89210690D01*
X133637500Y-86510690D02*
X136237500Y-86510690D01*
X133137500Y-89210690D02*
X133137500Y-87010690D01*
%TO.C,L49*%
X114085000Y-89210690D02*
G75*
G03*
X114585000Y-89710690I500000J0D01*
G01*
X117185000Y-89710690D02*
G75*
G03*
X117685000Y-89210690I0J500000D01*
G01*
X117685000Y-87010690D02*
G75*
G03*
X117185000Y-86510690I-500000J0D01*
G01*
X114585000Y-86510690D02*
G75*
G03*
X114085000Y-87010690I0J-500000D01*
G01*
X117185000Y-89710690D02*
X114585000Y-89710690D01*
X117685000Y-87010690D02*
X117685000Y-89210690D01*
X114585000Y-86510690D02*
X117185000Y-86510690D01*
X114085000Y-89210690D02*
X114085000Y-87010690D01*
%TO.C,L48*%
X95037500Y-89210690D02*
G75*
G03*
X95537500Y-89710690I500000J0D01*
G01*
X98137500Y-89710690D02*
G75*
G03*
X98637500Y-89210690I0J500000D01*
G01*
X98637500Y-87010690D02*
G75*
G03*
X98137500Y-86510690I-500000J0D01*
G01*
X95537500Y-86510690D02*
G75*
G03*
X95037500Y-87010690I0J-500000D01*
G01*
X98137500Y-89710690D02*
X95537500Y-89710690D01*
X98637500Y-87010690D02*
X98637500Y-89210690D01*
X95537500Y-86510690D02*
X98137500Y-86510690D01*
X95037500Y-89210690D02*
X95037500Y-87010690D01*
%TO.C,L47*%
X75985000Y-89210690D02*
G75*
G03*
X76485000Y-89710690I500000J0D01*
G01*
X79085000Y-89710690D02*
G75*
G03*
X79585000Y-89210690I0J500000D01*
G01*
X79585000Y-87010690D02*
G75*
G03*
X79085000Y-86510690I-500000J0D01*
G01*
X76485000Y-86510690D02*
G75*
G03*
X75985000Y-87010690I0J-500000D01*
G01*
X79085000Y-89710690D02*
X76485000Y-89710690D01*
X79585000Y-87010690D02*
X79585000Y-89210690D01*
X76485000Y-86510690D02*
X79085000Y-86510690D01*
X75985000Y-89210690D02*
X75985000Y-87010690D01*
%TO.C,L46*%
X56937500Y-89210690D02*
G75*
G03*
X57437500Y-89710690I500000J0D01*
G01*
X60037500Y-89710690D02*
G75*
G03*
X60537500Y-89210690I0J500000D01*
G01*
X60537500Y-87010690D02*
G75*
G03*
X60037500Y-86510690I-500000J0D01*
G01*
X57437500Y-86510690D02*
G75*
G03*
X56937500Y-87010690I0J-500000D01*
G01*
X60037500Y-89710690D02*
X57437500Y-89710690D01*
X60537500Y-87010690D02*
X60537500Y-89210690D01*
X57437500Y-86510690D02*
X60037500Y-86510690D01*
X56937500Y-89210690D02*
X56937500Y-87010690D01*
%TO.C,L45*%
X30741250Y-89210690D02*
G75*
G03*
X31241250Y-89710690I500000J0D01*
G01*
X33841250Y-89710690D02*
G75*
G03*
X34341250Y-89210690I0J500000D01*
G01*
X34341250Y-87010690D02*
G75*
G03*
X33841250Y-86510690I-500000J0D01*
G01*
X31241250Y-86510690D02*
G75*
G03*
X30741250Y-87010690I0J-500000D01*
G01*
X33841250Y-89710690D02*
X31241250Y-89710690D01*
X34341250Y-87010690D02*
X34341250Y-89210690D01*
X31241250Y-86510690D02*
X33841250Y-86510690D01*
X30741250Y-89210690D02*
X30741250Y-87010690D01*
%TO.C,L44*%
X285537500Y-70159730D02*
G75*
G03*
X286037500Y-70659730I500000J0D01*
G01*
X288637500Y-70659730D02*
G75*
G03*
X289137500Y-70159730I0J500000D01*
G01*
X289137500Y-67959730D02*
G75*
G03*
X288637500Y-67459730I-500000J0D01*
G01*
X286037500Y-67459730D02*
G75*
G03*
X285537500Y-67959730I0J-500000D01*
G01*
X288637500Y-70659730D02*
X286037500Y-70659730D01*
X289137500Y-67959730D02*
X289137500Y-70159730D01*
X286037500Y-67459730D02*
X288637500Y-67459730D01*
X285537500Y-70159730D02*
X285537500Y-67959730D01*
%TO.C,L43*%
X261725000Y-70159730D02*
G75*
G03*
X262225000Y-70659730I500000J0D01*
G01*
X264825000Y-70659730D02*
G75*
G03*
X265325000Y-70159730I0J500000D01*
G01*
X265325000Y-67959730D02*
G75*
G03*
X264825000Y-67459730I-500000J0D01*
G01*
X262225000Y-67459730D02*
G75*
G03*
X261725000Y-67959730I0J-500000D01*
G01*
X264825000Y-70659730D02*
X262225000Y-70659730D01*
X265325000Y-67959730D02*
X265325000Y-70159730D01*
X262225000Y-67459730D02*
X264825000Y-67459730D01*
X261725000Y-70159730D02*
X261725000Y-67959730D01*
%TO.C,L42*%
X242675000Y-70159730D02*
G75*
G03*
X243175000Y-70659730I500000J0D01*
G01*
X245775000Y-70659730D02*
G75*
G03*
X246275000Y-70159730I0J500000D01*
G01*
X246275000Y-67959730D02*
G75*
G03*
X245775000Y-67459730I-500000J0D01*
G01*
X243175000Y-67459730D02*
G75*
G03*
X242675000Y-67959730I0J-500000D01*
G01*
X245775000Y-70659730D02*
X243175000Y-70659730D01*
X246275000Y-67959730D02*
X246275000Y-70159730D01*
X243175000Y-67459730D02*
X245775000Y-67459730D01*
X242675000Y-70159730D02*
X242675000Y-67959730D01*
%TO.C,L41*%
X223625000Y-70159730D02*
G75*
G03*
X224125000Y-70659730I500000J0D01*
G01*
X226725000Y-70659730D02*
G75*
G03*
X227225000Y-70159730I0J500000D01*
G01*
X227225000Y-67959730D02*
G75*
G03*
X226725000Y-67459730I-500000J0D01*
G01*
X224125000Y-67459730D02*
G75*
G03*
X223625000Y-67959730I0J-500000D01*
G01*
X226725000Y-70659730D02*
X224125000Y-70659730D01*
X227225000Y-67959730D02*
X227225000Y-70159730D01*
X224125000Y-67459730D02*
X226725000Y-67459730D01*
X223625000Y-70159730D02*
X223625000Y-67959730D01*
%TO.C,L40*%
X204575000Y-70159730D02*
G75*
G03*
X205075000Y-70659730I500000J0D01*
G01*
X207675000Y-70659730D02*
G75*
G03*
X208175000Y-70159730I0J500000D01*
G01*
X208175000Y-67959730D02*
G75*
G03*
X207675000Y-67459730I-500000J0D01*
G01*
X205075000Y-67459730D02*
G75*
G03*
X204575000Y-67959730I0J-500000D01*
G01*
X207675000Y-70659730D02*
X205075000Y-70659730D01*
X208175000Y-67959730D02*
X208175000Y-70159730D01*
X205075000Y-67459730D02*
X207675000Y-67459730D01*
X204575000Y-70159730D02*
X204575000Y-67959730D01*
%TO.C,L39*%
X185522500Y-70159730D02*
G75*
G03*
X186022500Y-70659730I500000J0D01*
G01*
X188622500Y-70659730D02*
G75*
G03*
X189122500Y-70159730I0J500000D01*
G01*
X189122500Y-67959730D02*
G75*
G03*
X188622500Y-67459730I-500000J0D01*
G01*
X186022500Y-67459730D02*
G75*
G03*
X185522500Y-67959730I0J-500000D01*
G01*
X188622500Y-70659730D02*
X186022500Y-70659730D01*
X189122500Y-67959730D02*
X189122500Y-70159730D01*
X186022500Y-67459730D02*
X188622500Y-67459730D01*
X185522500Y-70159730D02*
X185522500Y-67959730D01*
%TO.C,L38*%
X166472500Y-70159730D02*
G75*
G03*
X166972500Y-70659730I500000J0D01*
G01*
X169572500Y-70659730D02*
G75*
G03*
X170072500Y-70159730I0J500000D01*
G01*
X170072500Y-67959730D02*
G75*
G03*
X169572500Y-67459730I-500000J0D01*
G01*
X166972500Y-67459730D02*
G75*
G03*
X166472500Y-67959730I0J-500000D01*
G01*
X169572500Y-70659730D02*
X166972500Y-70659730D01*
X170072500Y-67959730D02*
X170072500Y-70159730D01*
X166972500Y-67459730D02*
X169572500Y-67459730D01*
X166472500Y-70159730D02*
X166472500Y-67959730D01*
%TO.C,L37*%
X147547499Y-70159730D02*
G75*
G03*
X148047499Y-70659730I500000J0D01*
G01*
X150647499Y-70659730D02*
G75*
G03*
X151147499Y-70159730I0J500000D01*
G01*
X151147499Y-67959730D02*
G75*
G03*
X150647499Y-67459730I-500000J0D01*
G01*
X148047499Y-67459730D02*
G75*
G03*
X147547499Y-67959730I0J-500000D01*
G01*
X150647499Y-70659730D02*
X148047499Y-70659730D01*
X151147499Y-67959730D02*
X151147499Y-70159730D01*
X148047499Y-67459730D02*
X150647499Y-67459730D01*
X147547499Y-70159730D02*
X147547499Y-67959730D01*
%TO.C,L36*%
X128375000Y-70159730D02*
G75*
G03*
X128875000Y-70659730I500000J0D01*
G01*
X131475000Y-70659730D02*
G75*
G03*
X131975000Y-70159730I0J500000D01*
G01*
X131975000Y-67959730D02*
G75*
G03*
X131475000Y-67459730I-500000J0D01*
G01*
X128875000Y-67459730D02*
G75*
G03*
X128375000Y-67959730I0J-500000D01*
G01*
X131475000Y-70659730D02*
X128875000Y-70659730D01*
X131975000Y-67959730D02*
X131975000Y-70159730D01*
X128875000Y-67459730D02*
X131475000Y-67459730D01*
X128375000Y-70159730D02*
X128375000Y-67959730D01*
%TO.C,L35*%
X109322500Y-70159730D02*
G75*
G03*
X109822500Y-70659730I500000J0D01*
G01*
X112422500Y-70659730D02*
G75*
G03*
X112922500Y-70159730I0J500000D01*
G01*
X112922500Y-67959730D02*
G75*
G03*
X112422500Y-67459730I-500000J0D01*
G01*
X109822500Y-67459730D02*
G75*
G03*
X109322500Y-67959730I0J-500000D01*
G01*
X112422500Y-70659730D02*
X109822500Y-70659730D01*
X112922500Y-67959730D02*
X112922500Y-70159730D01*
X109822500Y-67459730D02*
X112422500Y-67459730D01*
X109322500Y-70159730D02*
X109322500Y-67959730D01*
%TO.C,L34*%
X90272500Y-70159730D02*
G75*
G03*
X90772500Y-70659730I500000J0D01*
G01*
X93372500Y-70659730D02*
G75*
G03*
X93872500Y-70159730I0J500000D01*
G01*
X93872500Y-67959730D02*
G75*
G03*
X93372500Y-67459730I-500000J0D01*
G01*
X90772500Y-67459730D02*
G75*
G03*
X90272500Y-67959730I0J-500000D01*
G01*
X93372500Y-70659730D02*
X90772500Y-70659730D01*
X93872500Y-67959730D02*
X93872500Y-70159730D01*
X90772500Y-67459730D02*
X93372500Y-67459730D01*
X90272500Y-70159730D02*
X90272500Y-67959730D01*
%TO.C,L33*%
X71222500Y-70159730D02*
G75*
G03*
X71722500Y-70659730I500000J0D01*
G01*
X74322500Y-70659730D02*
G75*
G03*
X74822500Y-70159730I0J500000D01*
G01*
X74822500Y-67959730D02*
G75*
G03*
X74322500Y-67459730I-500000J0D01*
G01*
X71722500Y-67459730D02*
G75*
G03*
X71222500Y-67959730I0J-500000D01*
G01*
X74322500Y-70659730D02*
X71722500Y-70659730D01*
X74822500Y-67959730D02*
X74822500Y-70159730D01*
X71722500Y-67459730D02*
X74322500Y-67459730D01*
X71222500Y-70159730D02*
X71222500Y-67959730D01*
%TO.C,L32*%
X52172500Y-70159730D02*
G75*
G03*
X52672500Y-70659730I500000J0D01*
G01*
X55272500Y-70659730D02*
G75*
G03*
X55772500Y-70159730I0J500000D01*
G01*
X55772500Y-67959730D02*
G75*
G03*
X55272500Y-67459730I-500000J0D01*
G01*
X52672500Y-67459730D02*
G75*
G03*
X52172500Y-67959730I0J-500000D01*
G01*
X55272500Y-70659730D02*
X52672500Y-70659730D01*
X55772500Y-67959730D02*
X55772500Y-70159730D01*
X52672500Y-67459730D02*
X55272500Y-67459730D01*
X52172500Y-70159730D02*
X52172500Y-67959730D01*
%TO.C,L31*%
X28362500Y-70159730D02*
G75*
G03*
X28862500Y-70659730I500000J0D01*
G01*
X31462500Y-70659730D02*
G75*
G03*
X31962500Y-70159730I0J500000D01*
G01*
X31962500Y-67959730D02*
G75*
G03*
X31462500Y-67459730I-500000J0D01*
G01*
X28862500Y-67459730D02*
G75*
G03*
X28362500Y-67959730I0J-500000D01*
G01*
X31462500Y-70659730D02*
X28862500Y-70659730D01*
X31962500Y-67959730D02*
X31962500Y-70159730D01*
X28862500Y-67459730D02*
X31462500Y-67459730D01*
X28362500Y-70159730D02*
X28362500Y-67959730D01*
%TO.C,L30*%
X290297500Y-51108770D02*
G75*
G03*
X290797500Y-51608770I500000J0D01*
G01*
X293397500Y-51608770D02*
G75*
G03*
X293897500Y-51108770I0J500000D01*
G01*
X293897500Y-48908770D02*
G75*
G03*
X293397500Y-48408770I-500000J0D01*
G01*
X290797500Y-48408770D02*
G75*
G03*
X290297500Y-48908770I0J-500000D01*
G01*
X293397500Y-51608770D02*
X290797500Y-51608770D01*
X293897500Y-48908770D02*
X293897500Y-51108770D01*
X290797500Y-48408770D02*
X293397500Y-48408770D01*
X290297500Y-51108770D02*
X290297500Y-48908770D01*
%TO.C,L29*%
X271250000Y-51108770D02*
G75*
G03*
X271750000Y-51608770I500000J0D01*
G01*
X274350000Y-51608770D02*
G75*
G03*
X274850000Y-51108770I0J500000D01*
G01*
X274850000Y-48908770D02*
G75*
G03*
X274350000Y-48408770I-500000J0D01*
G01*
X271750000Y-48408770D02*
G75*
G03*
X271250000Y-48908770I0J-500000D01*
G01*
X274350000Y-51608770D02*
X271750000Y-51608770D01*
X274850000Y-48908770D02*
X274850000Y-51108770D01*
X271750000Y-48408770D02*
X274350000Y-48408770D01*
X271250000Y-51108770D02*
X271250000Y-48908770D01*
%TO.C,L28*%
X252200000Y-51108770D02*
G75*
G03*
X252700000Y-51608770I500000J0D01*
G01*
X255300000Y-51608770D02*
G75*
G03*
X255800000Y-51108770I0J500000D01*
G01*
X255800000Y-48908770D02*
G75*
G03*
X255300000Y-48408770I-500000J0D01*
G01*
X252700000Y-48408770D02*
G75*
G03*
X252200000Y-48908770I0J-500000D01*
G01*
X255300000Y-51608770D02*
X252700000Y-51608770D01*
X255800000Y-48908770D02*
X255800000Y-51108770D01*
X252700000Y-48408770D02*
X255300000Y-48408770D01*
X252200000Y-51108770D02*
X252200000Y-48908770D01*
%TO.C,L27*%
X233150000Y-51108770D02*
G75*
G03*
X233650000Y-51608770I500000J0D01*
G01*
X236250000Y-51608770D02*
G75*
G03*
X236750000Y-51108770I0J500000D01*
G01*
X236750000Y-48908770D02*
G75*
G03*
X236250000Y-48408770I-500000J0D01*
G01*
X233650000Y-48408770D02*
G75*
G03*
X233150000Y-48908770I0J-500000D01*
G01*
X236250000Y-51608770D02*
X233650000Y-51608770D01*
X236750000Y-48908770D02*
X236750000Y-51108770D01*
X233650000Y-48408770D02*
X236250000Y-48408770D01*
X233150000Y-51108770D02*
X233150000Y-48908770D01*
%TO.C,L26*%
X214097500Y-51108770D02*
G75*
G03*
X214597500Y-51608770I500000J0D01*
G01*
X217197500Y-51608770D02*
G75*
G03*
X217697500Y-51108770I0J500000D01*
G01*
X217697500Y-48908770D02*
G75*
G03*
X217197500Y-48408770I-500000J0D01*
G01*
X214597500Y-48408770D02*
G75*
G03*
X214097500Y-48908770I0J-500000D01*
G01*
X217197500Y-51608770D02*
X214597500Y-51608770D01*
X217697500Y-48908770D02*
X217697500Y-51108770D01*
X214597500Y-48408770D02*
X217197500Y-48408770D01*
X214097500Y-51108770D02*
X214097500Y-48908770D01*
%TO.C,L25*%
X195050000Y-51108770D02*
G75*
G03*
X195550000Y-51608770I500000J0D01*
G01*
X198150000Y-51608770D02*
G75*
G03*
X198650000Y-51108770I0J500000D01*
G01*
X198650000Y-48908770D02*
G75*
G03*
X198150000Y-48408770I-500000J0D01*
G01*
X195550000Y-48408770D02*
G75*
G03*
X195050000Y-48908770I0J-500000D01*
G01*
X198150000Y-51608770D02*
X195550000Y-51608770D01*
X198650000Y-48908770D02*
X198650000Y-51108770D01*
X195550000Y-48408770D02*
X198150000Y-48408770D01*
X195050000Y-51108770D02*
X195050000Y-48908770D01*
%TO.C,L24*%
X175997500Y-51108770D02*
G75*
G03*
X176497500Y-51608770I500000J0D01*
G01*
X179097500Y-51608770D02*
G75*
G03*
X179597500Y-51108770I0J500000D01*
G01*
X179597500Y-48908770D02*
G75*
G03*
X179097500Y-48408770I-500000J0D01*
G01*
X176497500Y-48408770D02*
G75*
G03*
X175997500Y-48908770I0J-500000D01*
G01*
X179097500Y-51608770D02*
X176497500Y-51608770D01*
X179597500Y-48908770D02*
X179597500Y-51108770D01*
X176497500Y-48408770D02*
X179097500Y-48408770D01*
X175997500Y-51108770D02*
X175997500Y-48908770D01*
%TO.C,L23*%
X156947500Y-51108770D02*
G75*
G03*
X157447500Y-51608770I500000J0D01*
G01*
X160047500Y-51608770D02*
G75*
G03*
X160547500Y-51108770I0J500000D01*
G01*
X160547500Y-48908770D02*
G75*
G03*
X160047500Y-48408770I-500000J0D01*
G01*
X157447500Y-48408770D02*
G75*
G03*
X156947500Y-48908770I0J-500000D01*
G01*
X160047500Y-51608770D02*
X157447500Y-51608770D01*
X160547500Y-48908770D02*
X160547500Y-51108770D01*
X157447500Y-48408770D02*
X160047500Y-48408770D01*
X156947500Y-51108770D02*
X156947500Y-48908770D01*
%TO.C,L22*%
X137900000Y-51108770D02*
G75*
G03*
X138400000Y-51608770I500000J0D01*
G01*
X141000000Y-51608770D02*
G75*
G03*
X141500000Y-51108770I0J500000D01*
G01*
X141500000Y-48908770D02*
G75*
G03*
X141000000Y-48408770I-500000J0D01*
G01*
X138400000Y-48408770D02*
G75*
G03*
X137900000Y-48908770I0J-500000D01*
G01*
X141000000Y-51608770D02*
X138400000Y-51608770D01*
X141500000Y-48908770D02*
X141500000Y-51108770D01*
X138400000Y-48408770D02*
X141000000Y-48408770D01*
X137900000Y-51108770D02*
X137900000Y-48908770D01*
%TO.C,L21*%
X118850000Y-51108770D02*
G75*
G03*
X119350000Y-51608770I500000J0D01*
G01*
X121950000Y-51608770D02*
G75*
G03*
X122450000Y-51108770I0J500000D01*
G01*
X122450000Y-48908770D02*
G75*
G03*
X121950000Y-48408770I-500000J0D01*
G01*
X119350000Y-48408770D02*
G75*
G03*
X118850000Y-48908770I0J-500000D01*
G01*
X121950000Y-51608770D02*
X119350000Y-51608770D01*
X122450000Y-48908770D02*
X122450000Y-51108770D01*
X119350000Y-48408770D02*
X121950000Y-48408770D01*
X118850000Y-51108770D02*
X118850000Y-48908770D01*
%TO.C,L20*%
X99800000Y-51108770D02*
G75*
G03*
X100300000Y-51608770I500000J0D01*
G01*
X102900000Y-51608770D02*
G75*
G03*
X103400000Y-51108770I0J500000D01*
G01*
X103400000Y-48908770D02*
G75*
G03*
X102900000Y-48408770I-500000J0D01*
G01*
X100300000Y-48408770D02*
G75*
G03*
X99800000Y-48908770I0J-500000D01*
G01*
X102900000Y-51608770D02*
X100300000Y-51608770D01*
X103400000Y-48908770D02*
X103400000Y-51108770D01*
X100300000Y-48408770D02*
X102900000Y-48408770D01*
X99800000Y-51108770D02*
X99800000Y-48908770D01*
%TO.C,L19*%
X80747500Y-51108770D02*
G75*
G03*
X81247500Y-51608770I500000J0D01*
G01*
X83847500Y-51608770D02*
G75*
G03*
X84347500Y-51108770I0J500000D01*
G01*
X84347500Y-48908770D02*
G75*
G03*
X83847500Y-48408770I-500000J0D01*
G01*
X81247500Y-48408770D02*
G75*
G03*
X80747500Y-48908770I0J-500000D01*
G01*
X83847500Y-51608770D02*
X81247500Y-51608770D01*
X84347500Y-48908770D02*
X84347500Y-51108770D01*
X81247500Y-48408770D02*
X83847500Y-48408770D01*
X80747500Y-51108770D02*
X80747500Y-48908770D01*
%TO.C,L18*%
X61700000Y-51108770D02*
G75*
G03*
X62200000Y-51608770I500000J0D01*
G01*
X64800000Y-51608770D02*
G75*
G03*
X65300000Y-51108770I0J500000D01*
G01*
X65300000Y-48908770D02*
G75*
G03*
X64800000Y-48408770I-500000J0D01*
G01*
X62200000Y-48408770D02*
G75*
G03*
X61700000Y-48908770I0J-500000D01*
G01*
X64800000Y-51608770D02*
X62200000Y-51608770D01*
X65300000Y-48908770D02*
X65300000Y-51108770D01*
X62200000Y-48408770D02*
X64800000Y-48408770D01*
X61700000Y-51108770D02*
X61700000Y-48908770D01*
%TO.C,L17*%
X42650000Y-51108770D02*
G75*
G03*
X43150000Y-51608770I500000J0D01*
G01*
X45750000Y-51608770D02*
G75*
G03*
X46250000Y-51108770I0J500000D01*
G01*
X46250000Y-48908770D02*
G75*
G03*
X45750000Y-48408770I-500000J0D01*
G01*
X43150000Y-48408770D02*
G75*
G03*
X42650000Y-48908770I0J-500000D01*
G01*
X45750000Y-51608770D02*
X43150000Y-51608770D01*
X46250000Y-48908770D02*
X46250000Y-51108770D01*
X43150000Y-48408770D02*
X45750000Y-48408770D01*
X42650000Y-51108770D02*
X42650000Y-48908770D01*
%TO.C,L16*%
X23600000Y-51108770D02*
G75*
G03*
X24100000Y-51608770I500000J0D01*
G01*
X26700000Y-51608770D02*
G75*
G03*
X27200000Y-51108770I0J500000D01*
G01*
X27200000Y-48908770D02*
G75*
G03*
X26700000Y-48408770I-500000J0D01*
G01*
X24100000Y-48408770D02*
G75*
G03*
X23600000Y-48908770I0J-500000D01*
G01*
X26700000Y-51608770D02*
X24100000Y-51608770D01*
X27200000Y-48908770D02*
X27200000Y-51108770D01*
X24100000Y-48408770D02*
X26700000Y-48408770D01*
X23600000Y-51108770D02*
X23600000Y-48908770D01*
%TO.C,L14*%
X271247500Y-32057810D02*
G75*
G03*
X271747500Y-32557810I500000J0D01*
G01*
X274347500Y-32557810D02*
G75*
G03*
X274847500Y-32057810I0J500000D01*
G01*
X274847500Y-29857810D02*
G75*
G03*
X274347500Y-29357810I-500000J0D01*
G01*
X271747500Y-29357810D02*
G75*
G03*
X271247500Y-29857810I0J-500000D01*
G01*
X274347500Y-32557810D02*
X271747500Y-32557810D01*
X274847500Y-29857810D02*
X274847500Y-32057810D01*
X271747500Y-29357810D02*
X274347500Y-29357810D01*
X271247500Y-32057810D02*
X271247500Y-29857810D01*
%TO.C,L13*%
X252197500Y-32057810D02*
G75*
G03*
X252697500Y-32557810I500000J0D01*
G01*
X255297500Y-32557810D02*
G75*
G03*
X255797500Y-32057810I0J500000D01*
G01*
X255797500Y-29857810D02*
G75*
G03*
X255297500Y-29357810I-500000J0D01*
G01*
X252697500Y-29357810D02*
G75*
G03*
X252197500Y-29857810I0J-500000D01*
G01*
X255297500Y-32557810D02*
X252697500Y-32557810D01*
X255797500Y-29857810D02*
X255797500Y-32057810D01*
X252697500Y-29357810D02*
X255297500Y-29357810D01*
X252197500Y-32057810D02*
X252197500Y-29857810D01*
%TO.C,L12*%
X233147500Y-32057810D02*
G75*
G03*
X233647500Y-32557810I500000J0D01*
G01*
X236247500Y-32557810D02*
G75*
G03*
X236747500Y-32057810I0J500000D01*
G01*
X236747500Y-29857810D02*
G75*
G03*
X236247500Y-29357810I-500000J0D01*
G01*
X233647500Y-29357810D02*
G75*
G03*
X233147500Y-29857810I0J-500000D01*
G01*
X236247500Y-32557810D02*
X233647500Y-32557810D01*
X236747500Y-29857810D02*
X236747500Y-32057810D01*
X233647500Y-29357810D02*
X236247500Y-29357810D01*
X233147500Y-32057810D02*
X233147500Y-29857810D01*
%TO.C,L11*%
X214097500Y-32057810D02*
G75*
G03*
X214597500Y-32557810I500000J0D01*
G01*
X217197500Y-32557810D02*
G75*
G03*
X217697500Y-32057810I0J500000D01*
G01*
X217697500Y-29857810D02*
G75*
G03*
X217197500Y-29357810I-500000J0D01*
G01*
X214597500Y-29357810D02*
G75*
G03*
X214097500Y-29857810I0J-500000D01*
G01*
X217197500Y-32557810D02*
X214597500Y-32557810D01*
X217697500Y-29857810D02*
X217697500Y-32057810D01*
X214597500Y-29357810D02*
X217197500Y-29357810D01*
X214097500Y-32057810D02*
X214097500Y-29857810D01*
%TO.C,L10*%
X195047500Y-32057810D02*
G75*
G03*
X195547500Y-32557810I500000J0D01*
G01*
X198147500Y-32557810D02*
G75*
G03*
X198647500Y-32057810I0J500000D01*
G01*
X198647500Y-29857810D02*
G75*
G03*
X198147500Y-29357810I-500000J0D01*
G01*
X195547500Y-29357810D02*
G75*
G03*
X195047500Y-29857810I0J-500000D01*
G01*
X198147500Y-32557810D02*
X195547500Y-32557810D01*
X198647500Y-29857810D02*
X198647500Y-32057810D01*
X195547500Y-29357810D02*
X198147500Y-29357810D01*
X195047500Y-32057810D02*
X195047500Y-29857810D01*
%TO.C,L9*%
X176000000Y-32057810D02*
G75*
G03*
X176500000Y-32557810I500000J0D01*
G01*
X179100000Y-32557810D02*
G75*
G03*
X179600000Y-32057810I0J500000D01*
G01*
X179600000Y-29857810D02*
G75*
G03*
X179100000Y-29357810I-500000J0D01*
G01*
X176500000Y-29357810D02*
G75*
G03*
X176000000Y-29857810I0J-500000D01*
G01*
X179100000Y-32557810D02*
X176500000Y-32557810D01*
X179600000Y-29857810D02*
X179600000Y-32057810D01*
X176500000Y-29357810D02*
X179100000Y-29357810D01*
X176000000Y-32057810D02*
X176000000Y-29857810D01*
%TO.C,L8*%
X156950000Y-32057810D02*
G75*
G03*
X157450000Y-32557810I500000J0D01*
G01*
X160050000Y-32557810D02*
G75*
G03*
X160550000Y-32057810I0J500000D01*
G01*
X160550000Y-29857810D02*
G75*
G03*
X160050000Y-29357810I-500000J0D01*
G01*
X157450000Y-29357810D02*
G75*
G03*
X156950000Y-29857810I0J-500000D01*
G01*
X160050000Y-32557810D02*
X157450000Y-32557810D01*
X160550000Y-29857810D02*
X160550000Y-32057810D01*
X157450000Y-29357810D02*
X160050000Y-29357810D01*
X156950000Y-32057810D02*
X156950000Y-29857810D01*
%TO.C,L7*%
X137900000Y-32057810D02*
G75*
G03*
X138400000Y-32557810I500000J0D01*
G01*
X141000000Y-32557810D02*
G75*
G03*
X141500000Y-32057810I0J500000D01*
G01*
X141500000Y-29857810D02*
G75*
G03*
X141000000Y-29357810I-500000J0D01*
G01*
X138400000Y-29357810D02*
G75*
G03*
X137900000Y-29857810I0J-500000D01*
G01*
X141000000Y-32557810D02*
X138400000Y-32557810D01*
X141500000Y-29857810D02*
X141500000Y-32057810D01*
X138400000Y-29357810D02*
X141000000Y-29357810D01*
X137900000Y-32057810D02*
X137900000Y-29857810D01*
%TO.C,L6*%
X118850000Y-32057810D02*
G75*
G03*
X119350000Y-32557810I500000J0D01*
G01*
X121950000Y-32557810D02*
G75*
G03*
X122450000Y-32057810I0J500000D01*
G01*
X122450000Y-29857810D02*
G75*
G03*
X121950000Y-29357810I-500000J0D01*
G01*
X119350000Y-29357810D02*
G75*
G03*
X118850000Y-29857810I0J-500000D01*
G01*
X121950000Y-32557810D02*
X119350000Y-32557810D01*
X122450000Y-29857810D02*
X122450000Y-32057810D01*
X119350000Y-29357810D02*
X121950000Y-29357810D01*
X118850000Y-32057810D02*
X118850000Y-29857810D01*
%TO.C,L5*%
X99800000Y-32057810D02*
G75*
G03*
X100300000Y-32557810I500000J0D01*
G01*
X102900000Y-32557810D02*
G75*
G03*
X103400000Y-32057810I0J500000D01*
G01*
X103400000Y-29857810D02*
G75*
G03*
X102900000Y-29357810I-500000J0D01*
G01*
X100300000Y-29357810D02*
G75*
G03*
X99800000Y-29857810I0J-500000D01*
G01*
X102900000Y-32557810D02*
X100300000Y-32557810D01*
X103400000Y-29857810D02*
X103400000Y-32057810D01*
X100300000Y-29357810D02*
X102900000Y-29357810D01*
X99800000Y-32057810D02*
X99800000Y-29857810D01*
%TO.C,L4*%
X80750000Y-32057810D02*
G75*
G03*
X81250000Y-32557810I500000J0D01*
G01*
X83850000Y-32557810D02*
G75*
G03*
X84350000Y-32057810I0J500000D01*
G01*
X84350000Y-29857810D02*
G75*
G03*
X83850000Y-29357810I-500000J0D01*
G01*
X81250000Y-29357810D02*
G75*
G03*
X80750000Y-29857810I0J-500000D01*
G01*
X83850000Y-32557810D02*
X81250000Y-32557810D01*
X84350000Y-29857810D02*
X84350000Y-32057810D01*
X81250000Y-29357810D02*
X83850000Y-29357810D01*
X80750000Y-32057810D02*
X80750000Y-29857810D01*
%TO.C,L3*%
X61700000Y-32057810D02*
G75*
G03*
X62200000Y-32557810I500000J0D01*
G01*
X64800000Y-32557810D02*
G75*
G03*
X65300000Y-32057810I0J500000D01*
G01*
X65300000Y-29857810D02*
G75*
G03*
X64800000Y-29357810I-500000J0D01*
G01*
X62200000Y-29357810D02*
G75*
G03*
X61700000Y-29857810I0J-500000D01*
G01*
X64800000Y-32557810D02*
X62200000Y-32557810D01*
X65300000Y-29857810D02*
X65300000Y-32057810D01*
X62200000Y-29357810D02*
X64800000Y-29357810D01*
X61700000Y-32057810D02*
X61700000Y-29857810D01*
%TO.C,L2*%
X42650000Y-32057810D02*
G75*
G03*
X43150000Y-32557810I500000J0D01*
G01*
X45750000Y-32557810D02*
G75*
G03*
X46250000Y-32057810I0J500000D01*
G01*
X46250000Y-29857810D02*
G75*
G03*
X45750000Y-29357810I-500000J0D01*
G01*
X43150000Y-29357810D02*
G75*
G03*
X42650000Y-29857810I0J-500000D01*
G01*
X45750000Y-32557810D02*
X43150000Y-32557810D01*
X46250000Y-29857810D02*
X46250000Y-32057810D01*
X43150000Y-29357810D02*
X45750000Y-29357810D01*
X42650000Y-32057810D02*
X42650000Y-29857810D01*
%TD*%
M02*
