%TF.GenerationSoftware,KiCad,Pcbnew,(5.1.10)-1*%
%TF.CreationDate,2021-11-24T06:09:51-05:00*%
%TF.ProjectId,bdpcb,62647063-622e-46b6-9963-61645f706362,rev?*%
%TF.SameCoordinates,Original*%
%TF.FileFunction,Soldermask,Bot*%
%TF.FilePolarity,Negative*%
%FSLAX46Y46*%
G04 Gerber Fmt 4.6, Leading zero omitted, Abs format (unit mm)*
G04 Created by KiCad (PCBNEW (5.1.10)-1) date 2021-11-24 06:09:51*
%MOMM*%
%LPD*%
G01*
G04 APERTURE LIST*
%ADD10C,0.400000*%
%ADD11R,1.000000X0.700000*%
%ADD12C,1.676400*%
%ADD13R,1.676400X1.676400*%
%ADD14C,1.750000*%
%ADD15C,2.250000*%
%ADD16C,3.987800*%
%ADD17C,3.048000*%
%ADD18C,2.500000*%
%ADD19C,3.000000*%
%ADD20C,0.900000*%
%ADD21R,1.250000X2.500000*%
%ADD22C,0.100000*%
%ADD23R,1.500000X1.000000*%
%ADD24R,1.200000X0.900000*%
%ADD25R,0.900000X1.200000*%
G04 APERTURE END LIST*
D10*
X161146642Y-122380261D02*
X161146642Y-120380261D01*
X161146642Y-121142166D02*
X160956166Y-121046928D01*
X160575214Y-121046928D01*
X160384738Y-121142166D01*
X160289500Y-121237404D01*
X160194261Y-121427880D01*
X160194261Y-121999309D01*
X160289500Y-122189785D01*
X160384738Y-122285023D01*
X160575214Y-122380261D01*
X160956166Y-122380261D01*
X161146642Y-122285023D01*
X158575214Y-122285023D02*
X158765690Y-122380261D01*
X159146642Y-122380261D01*
X159337119Y-122285023D01*
X159432357Y-122094547D01*
X159432357Y-121332642D01*
X159337119Y-121142166D01*
X159146642Y-121046928D01*
X158765690Y-121046928D01*
X158575214Y-121142166D01*
X158479976Y-121332642D01*
X158479976Y-121523119D01*
X159432357Y-121713595D01*
X156765690Y-122380261D02*
X156765690Y-121332642D01*
X156860928Y-121142166D01*
X157051404Y-121046928D01*
X157432357Y-121046928D01*
X157622833Y-121142166D01*
X156765690Y-122285023D02*
X156956166Y-122380261D01*
X157432357Y-122380261D01*
X157622833Y-122285023D01*
X157718071Y-122094547D01*
X157718071Y-121904071D01*
X157622833Y-121713595D01*
X157432357Y-121618357D01*
X156956166Y-121618357D01*
X156765690Y-121523119D01*
X154956166Y-122380261D02*
X154956166Y-120380261D01*
X154956166Y-122285023D02*
X155146642Y-122380261D01*
X155527595Y-122380261D01*
X155718071Y-122285023D01*
X155813309Y-122189785D01*
X155908547Y-121999309D01*
X155908547Y-121427880D01*
X155813309Y-121237404D01*
X155718071Y-121142166D01*
X155527595Y-121046928D01*
X155146642Y-121046928D01*
X154956166Y-121142166D01*
X154194261Y-121046928D02*
X153718071Y-122380261D01*
X153241880Y-121046928D02*
X153718071Y-122380261D01*
X153908547Y-122856452D01*
X154003785Y-122951690D01*
X154194261Y-123046928D01*
X185578452Y-121332642D02*
X185292738Y-121427880D01*
X185197500Y-121523119D01*
X185102261Y-121713595D01*
X185102261Y-121999309D01*
X185197500Y-122189785D01*
X185292738Y-122285023D01*
X185483214Y-122380261D01*
X186245119Y-122380261D01*
X186245119Y-120380261D01*
X185578452Y-120380261D01*
X185387976Y-120475500D01*
X185292738Y-120570738D01*
X185197500Y-120761214D01*
X185197500Y-120951690D01*
X185292738Y-121142166D01*
X185387976Y-121237404D01*
X185578452Y-121332642D01*
X186245119Y-121332642D01*
X184245119Y-122380261D02*
X184245119Y-120380261D01*
X183768928Y-120380261D01*
X183483214Y-120475500D01*
X183292738Y-120665976D01*
X183197500Y-120856452D01*
X183102261Y-121237404D01*
X183102261Y-121523119D01*
X183197500Y-121904071D01*
X183292738Y-122094547D01*
X183483214Y-122285023D01*
X183768928Y-122380261D01*
X184245119Y-122380261D01*
%TO.C,U3*%
G36*
G01*
X157689340Y-59679767D02*
X156982233Y-58972660D01*
G75*
G02*
X156982233Y-56851340I1060660J1060660D01*
G01*
X157689340Y-56144233D01*
G75*
G02*
X159810660Y-56144233I1060660J-1060660D01*
G01*
X160517767Y-56851340D01*
G75*
G02*
X160517767Y-58972660I-1060660J-1060660D01*
G01*
X159810660Y-59679767D01*
G75*
G02*
X157689340Y-59679767I-1060660J1060660D01*
G01*
G37*
G36*
G01*
X159474785Y-61889475D02*
X158944455Y-61359145D01*
G75*
G02*
X158944455Y-61288435I35355J35355D01*
G01*
X159015165Y-61217725D01*
G75*
G02*
X159085875Y-61217725I35355J-35355D01*
G01*
X159616205Y-61748055D01*
G75*
G02*
X159616205Y-61818765I-35355J-35355D01*
G01*
X159545495Y-61889475D01*
G75*
G02*
X159474785Y-61889475I-35355J35355D01*
G01*
G37*
G36*
G01*
X159757628Y-61606632D02*
X159227298Y-61076302D01*
G75*
G02*
X159227298Y-61005592I35355J35355D01*
G01*
X159298008Y-60934882D01*
G75*
G02*
X159368718Y-60934882I35355J-35355D01*
G01*
X159899048Y-61465212D01*
G75*
G02*
X159899048Y-61535922I-35355J-35355D01*
G01*
X159828338Y-61606632D01*
G75*
G02*
X159757628Y-61606632I-35355J35355D01*
G01*
G37*
G36*
G01*
X160040471Y-61323789D02*
X159510141Y-60793459D01*
G75*
G02*
X159510141Y-60722749I35355J35355D01*
G01*
X159580851Y-60652039D01*
G75*
G02*
X159651561Y-60652039I35355J-35355D01*
G01*
X160181891Y-61182369D01*
G75*
G02*
X160181891Y-61253079I-35355J-35355D01*
G01*
X160111181Y-61323789D01*
G75*
G02*
X160040471Y-61323789I-35355J35355D01*
G01*
G37*
G36*
G01*
X160323313Y-61040947D02*
X159792983Y-60510617D01*
G75*
G02*
X159792983Y-60439907I35355J35355D01*
G01*
X159863693Y-60369197D01*
G75*
G02*
X159934403Y-60369197I35355J-35355D01*
G01*
X160464733Y-60899527D01*
G75*
G02*
X160464733Y-60970237I-35355J-35355D01*
G01*
X160394023Y-61040947D01*
G75*
G02*
X160323313Y-61040947I-35355J35355D01*
G01*
G37*
G36*
G01*
X160606156Y-60758104D02*
X160075826Y-60227774D01*
G75*
G02*
X160075826Y-60157064I35355J35355D01*
G01*
X160146536Y-60086354D01*
G75*
G02*
X160217246Y-60086354I35355J-35355D01*
G01*
X160747576Y-60616684D01*
G75*
G02*
X160747576Y-60687394I-35355J-35355D01*
G01*
X160676866Y-60758104D01*
G75*
G02*
X160606156Y-60758104I-35355J35355D01*
G01*
G37*
G36*
G01*
X160888999Y-60475261D02*
X160358669Y-59944931D01*
G75*
G02*
X160358669Y-59874221I35355J35355D01*
G01*
X160429379Y-59803511D01*
G75*
G02*
X160500089Y-59803511I35355J-35355D01*
G01*
X161030419Y-60333841D01*
G75*
G02*
X161030419Y-60404551I-35355J-35355D01*
G01*
X160959709Y-60475261D01*
G75*
G02*
X160888999Y-60475261I-35355J35355D01*
G01*
G37*
G36*
G01*
X161171841Y-60192419D02*
X160641511Y-59662089D01*
G75*
G02*
X160641511Y-59591379I35355J35355D01*
G01*
X160712221Y-59520669D01*
G75*
G02*
X160782931Y-59520669I35355J-35355D01*
G01*
X161313261Y-60050999D01*
G75*
G02*
X161313261Y-60121709I-35355J-35355D01*
G01*
X161242551Y-60192419D01*
G75*
G02*
X161171841Y-60192419I-35355J35355D01*
G01*
G37*
G36*
G01*
X161454684Y-59909576D02*
X160924354Y-59379246D01*
G75*
G02*
X160924354Y-59308536I35355J35355D01*
G01*
X160995064Y-59237826D01*
G75*
G02*
X161065774Y-59237826I35355J-35355D01*
G01*
X161596104Y-59768156D01*
G75*
G02*
X161596104Y-59838866I-35355J-35355D01*
G01*
X161525394Y-59909576D01*
G75*
G02*
X161454684Y-59909576I-35355J35355D01*
G01*
G37*
G36*
G01*
X161737527Y-59626733D02*
X161207197Y-59096403D01*
G75*
G02*
X161207197Y-59025693I35355J35355D01*
G01*
X161277907Y-58954983D01*
G75*
G02*
X161348617Y-58954983I35355J-35355D01*
G01*
X161878947Y-59485313D01*
G75*
G02*
X161878947Y-59556023I-35355J-35355D01*
G01*
X161808237Y-59626733D01*
G75*
G02*
X161737527Y-59626733I-35355J35355D01*
G01*
G37*
G36*
G01*
X162020369Y-59343891D02*
X161490039Y-58813561D01*
G75*
G02*
X161490039Y-58742851I35355J35355D01*
G01*
X161560749Y-58672141D01*
G75*
G02*
X161631459Y-58672141I35355J-35355D01*
G01*
X162161789Y-59202471D01*
G75*
G02*
X162161789Y-59273181I-35355J-35355D01*
G01*
X162091079Y-59343891D01*
G75*
G02*
X162020369Y-59343891I-35355J35355D01*
G01*
G37*
G36*
G01*
X162303212Y-59061048D02*
X161772882Y-58530718D01*
G75*
G02*
X161772882Y-58460008I35355J35355D01*
G01*
X161843592Y-58389298D01*
G75*
G02*
X161914302Y-58389298I35355J-35355D01*
G01*
X162444632Y-58919628D01*
G75*
G02*
X162444632Y-58990338I-35355J-35355D01*
G01*
X162373922Y-59061048D01*
G75*
G02*
X162303212Y-59061048I-35355J35355D01*
G01*
G37*
G36*
G01*
X162586055Y-58778205D02*
X162055725Y-58247875D01*
G75*
G02*
X162055725Y-58177165I35355J35355D01*
G01*
X162126435Y-58106455D01*
G75*
G02*
X162197145Y-58106455I35355J-35355D01*
G01*
X162727475Y-58636785D01*
G75*
G02*
X162727475Y-58707495I-35355J-35355D01*
G01*
X162656765Y-58778205D01*
G75*
G02*
X162586055Y-58778205I-35355J35355D01*
G01*
G37*
G36*
G01*
X162126435Y-57717545D02*
X162055725Y-57646835D01*
G75*
G02*
X162055725Y-57576125I35355J35355D01*
G01*
X162586055Y-57045795D01*
G75*
G02*
X162656765Y-57045795I35355J-35355D01*
G01*
X162727475Y-57116505D01*
G75*
G02*
X162727475Y-57187215I-35355J-35355D01*
G01*
X162197145Y-57717545D01*
G75*
G02*
X162126435Y-57717545I-35355J35355D01*
G01*
G37*
G36*
G01*
X161843592Y-57434702D02*
X161772882Y-57363992D01*
G75*
G02*
X161772882Y-57293282I35355J35355D01*
G01*
X162303212Y-56762952D01*
G75*
G02*
X162373922Y-56762952I35355J-35355D01*
G01*
X162444632Y-56833662D01*
G75*
G02*
X162444632Y-56904372I-35355J-35355D01*
G01*
X161914302Y-57434702D01*
G75*
G02*
X161843592Y-57434702I-35355J35355D01*
G01*
G37*
G36*
G01*
X161560749Y-57151859D02*
X161490039Y-57081149D01*
G75*
G02*
X161490039Y-57010439I35355J35355D01*
G01*
X162020369Y-56480109D01*
G75*
G02*
X162091079Y-56480109I35355J-35355D01*
G01*
X162161789Y-56550819D01*
G75*
G02*
X162161789Y-56621529I-35355J-35355D01*
G01*
X161631459Y-57151859D01*
G75*
G02*
X161560749Y-57151859I-35355J35355D01*
G01*
G37*
G36*
G01*
X161277907Y-56869017D02*
X161207197Y-56798307D01*
G75*
G02*
X161207197Y-56727597I35355J35355D01*
G01*
X161737527Y-56197267D01*
G75*
G02*
X161808237Y-56197267I35355J-35355D01*
G01*
X161878947Y-56267977D01*
G75*
G02*
X161878947Y-56338687I-35355J-35355D01*
G01*
X161348617Y-56869017D01*
G75*
G02*
X161277907Y-56869017I-35355J35355D01*
G01*
G37*
G36*
G01*
X160995064Y-56586174D02*
X160924354Y-56515464D01*
G75*
G02*
X160924354Y-56444754I35355J35355D01*
G01*
X161454684Y-55914424D01*
G75*
G02*
X161525394Y-55914424I35355J-35355D01*
G01*
X161596104Y-55985134D01*
G75*
G02*
X161596104Y-56055844I-35355J-35355D01*
G01*
X161065774Y-56586174D01*
G75*
G02*
X160995064Y-56586174I-35355J35355D01*
G01*
G37*
G36*
G01*
X160712221Y-56303331D02*
X160641511Y-56232621D01*
G75*
G02*
X160641511Y-56161911I35355J35355D01*
G01*
X161171841Y-55631581D01*
G75*
G02*
X161242551Y-55631581I35355J-35355D01*
G01*
X161313261Y-55702291D01*
G75*
G02*
X161313261Y-55773001I-35355J-35355D01*
G01*
X160782931Y-56303331D01*
G75*
G02*
X160712221Y-56303331I-35355J35355D01*
G01*
G37*
G36*
G01*
X160429379Y-56020489D02*
X160358669Y-55949779D01*
G75*
G02*
X160358669Y-55879069I35355J35355D01*
G01*
X160888999Y-55348739D01*
G75*
G02*
X160959709Y-55348739I35355J-35355D01*
G01*
X161030419Y-55419449D01*
G75*
G02*
X161030419Y-55490159I-35355J-35355D01*
G01*
X160500089Y-56020489D01*
G75*
G02*
X160429379Y-56020489I-35355J35355D01*
G01*
G37*
G36*
G01*
X160146536Y-55737646D02*
X160075826Y-55666936D01*
G75*
G02*
X160075826Y-55596226I35355J35355D01*
G01*
X160606156Y-55065896D01*
G75*
G02*
X160676866Y-55065896I35355J-35355D01*
G01*
X160747576Y-55136606D01*
G75*
G02*
X160747576Y-55207316I-35355J-35355D01*
G01*
X160217246Y-55737646D01*
G75*
G02*
X160146536Y-55737646I-35355J35355D01*
G01*
G37*
G36*
G01*
X159863693Y-55454803D02*
X159792983Y-55384093D01*
G75*
G02*
X159792983Y-55313383I35355J35355D01*
G01*
X160323313Y-54783053D01*
G75*
G02*
X160394023Y-54783053I35355J-35355D01*
G01*
X160464733Y-54853763D01*
G75*
G02*
X160464733Y-54924473I-35355J-35355D01*
G01*
X159934403Y-55454803D01*
G75*
G02*
X159863693Y-55454803I-35355J35355D01*
G01*
G37*
G36*
G01*
X159580851Y-55171961D02*
X159510141Y-55101251D01*
G75*
G02*
X159510141Y-55030541I35355J35355D01*
G01*
X160040471Y-54500211D01*
G75*
G02*
X160111181Y-54500211I35355J-35355D01*
G01*
X160181891Y-54570921D01*
G75*
G02*
X160181891Y-54641631I-35355J-35355D01*
G01*
X159651561Y-55171961D01*
G75*
G02*
X159580851Y-55171961I-35355J35355D01*
G01*
G37*
G36*
G01*
X159298008Y-54889118D02*
X159227298Y-54818408D01*
G75*
G02*
X159227298Y-54747698I35355J35355D01*
G01*
X159757628Y-54217368D01*
G75*
G02*
X159828338Y-54217368I35355J-35355D01*
G01*
X159899048Y-54288078D01*
G75*
G02*
X159899048Y-54358788I-35355J-35355D01*
G01*
X159368718Y-54889118D01*
G75*
G02*
X159298008Y-54889118I-35355J35355D01*
G01*
G37*
G36*
G01*
X159015165Y-54606275D02*
X158944455Y-54535565D01*
G75*
G02*
X158944455Y-54464855I35355J35355D01*
G01*
X159474785Y-53934525D01*
G75*
G02*
X159545495Y-53934525I35355J-35355D01*
G01*
X159616205Y-54005235D01*
G75*
G02*
X159616205Y-54075945I-35355J-35355D01*
G01*
X159085875Y-54606275D01*
G75*
G02*
X159015165Y-54606275I-35355J35355D01*
G01*
G37*
G36*
G01*
X158414125Y-54606275D02*
X157883795Y-54075945D01*
G75*
G02*
X157883795Y-54005235I35355J35355D01*
G01*
X157954505Y-53934525D01*
G75*
G02*
X158025215Y-53934525I35355J-35355D01*
G01*
X158555545Y-54464855D01*
G75*
G02*
X158555545Y-54535565I-35355J-35355D01*
G01*
X158484835Y-54606275D01*
G75*
G02*
X158414125Y-54606275I-35355J35355D01*
G01*
G37*
G36*
G01*
X158131282Y-54889118D02*
X157600952Y-54358788D01*
G75*
G02*
X157600952Y-54288078I35355J35355D01*
G01*
X157671662Y-54217368D01*
G75*
G02*
X157742372Y-54217368I35355J-35355D01*
G01*
X158272702Y-54747698D01*
G75*
G02*
X158272702Y-54818408I-35355J-35355D01*
G01*
X158201992Y-54889118D01*
G75*
G02*
X158131282Y-54889118I-35355J35355D01*
G01*
G37*
G36*
G01*
X157848439Y-55171961D02*
X157318109Y-54641631D01*
G75*
G02*
X157318109Y-54570921I35355J35355D01*
G01*
X157388819Y-54500211D01*
G75*
G02*
X157459529Y-54500211I35355J-35355D01*
G01*
X157989859Y-55030541D01*
G75*
G02*
X157989859Y-55101251I-35355J-35355D01*
G01*
X157919149Y-55171961D01*
G75*
G02*
X157848439Y-55171961I-35355J35355D01*
G01*
G37*
G36*
G01*
X157565597Y-55454803D02*
X157035267Y-54924473D01*
G75*
G02*
X157035267Y-54853763I35355J35355D01*
G01*
X157105977Y-54783053D01*
G75*
G02*
X157176687Y-54783053I35355J-35355D01*
G01*
X157707017Y-55313383D01*
G75*
G02*
X157707017Y-55384093I-35355J-35355D01*
G01*
X157636307Y-55454803D01*
G75*
G02*
X157565597Y-55454803I-35355J35355D01*
G01*
G37*
G36*
G01*
X157282754Y-55737646D02*
X156752424Y-55207316D01*
G75*
G02*
X156752424Y-55136606I35355J35355D01*
G01*
X156823134Y-55065896D01*
G75*
G02*
X156893844Y-55065896I35355J-35355D01*
G01*
X157424174Y-55596226D01*
G75*
G02*
X157424174Y-55666936I-35355J-35355D01*
G01*
X157353464Y-55737646D01*
G75*
G02*
X157282754Y-55737646I-35355J35355D01*
G01*
G37*
G36*
G01*
X156999911Y-56020489D02*
X156469581Y-55490159D01*
G75*
G02*
X156469581Y-55419449I35355J35355D01*
G01*
X156540291Y-55348739D01*
G75*
G02*
X156611001Y-55348739I35355J-35355D01*
G01*
X157141331Y-55879069D01*
G75*
G02*
X157141331Y-55949779I-35355J-35355D01*
G01*
X157070621Y-56020489D01*
G75*
G02*
X156999911Y-56020489I-35355J35355D01*
G01*
G37*
G36*
G01*
X156717069Y-56303331D02*
X156186739Y-55773001D01*
G75*
G02*
X156186739Y-55702291I35355J35355D01*
G01*
X156257449Y-55631581D01*
G75*
G02*
X156328159Y-55631581I35355J-35355D01*
G01*
X156858489Y-56161911D01*
G75*
G02*
X156858489Y-56232621I-35355J-35355D01*
G01*
X156787779Y-56303331D01*
G75*
G02*
X156717069Y-56303331I-35355J35355D01*
G01*
G37*
G36*
G01*
X156434226Y-56586174D02*
X155903896Y-56055844D01*
G75*
G02*
X155903896Y-55985134I35355J35355D01*
G01*
X155974606Y-55914424D01*
G75*
G02*
X156045316Y-55914424I35355J-35355D01*
G01*
X156575646Y-56444754D01*
G75*
G02*
X156575646Y-56515464I-35355J-35355D01*
G01*
X156504936Y-56586174D01*
G75*
G02*
X156434226Y-56586174I-35355J35355D01*
G01*
G37*
G36*
G01*
X156151383Y-56869017D02*
X155621053Y-56338687D01*
G75*
G02*
X155621053Y-56267977I35355J35355D01*
G01*
X155691763Y-56197267D01*
G75*
G02*
X155762473Y-56197267I35355J-35355D01*
G01*
X156292803Y-56727597D01*
G75*
G02*
X156292803Y-56798307I-35355J-35355D01*
G01*
X156222093Y-56869017D01*
G75*
G02*
X156151383Y-56869017I-35355J35355D01*
G01*
G37*
G36*
G01*
X155868541Y-57151859D02*
X155338211Y-56621529D01*
G75*
G02*
X155338211Y-56550819I35355J35355D01*
G01*
X155408921Y-56480109D01*
G75*
G02*
X155479631Y-56480109I35355J-35355D01*
G01*
X156009961Y-57010439D01*
G75*
G02*
X156009961Y-57081149I-35355J-35355D01*
G01*
X155939251Y-57151859D01*
G75*
G02*
X155868541Y-57151859I-35355J35355D01*
G01*
G37*
G36*
G01*
X155585698Y-57434702D02*
X155055368Y-56904372D01*
G75*
G02*
X155055368Y-56833662I35355J35355D01*
G01*
X155126078Y-56762952D01*
G75*
G02*
X155196788Y-56762952I35355J-35355D01*
G01*
X155727118Y-57293282D01*
G75*
G02*
X155727118Y-57363992I-35355J-35355D01*
G01*
X155656408Y-57434702D01*
G75*
G02*
X155585698Y-57434702I-35355J35355D01*
G01*
G37*
G36*
G01*
X155302855Y-57717545D02*
X154772525Y-57187215D01*
G75*
G02*
X154772525Y-57116505I35355J35355D01*
G01*
X154843235Y-57045795D01*
G75*
G02*
X154913945Y-57045795I35355J-35355D01*
G01*
X155444275Y-57576125D01*
G75*
G02*
X155444275Y-57646835I-35355J-35355D01*
G01*
X155373565Y-57717545D01*
G75*
G02*
X155302855Y-57717545I-35355J35355D01*
G01*
G37*
G36*
G01*
X154843235Y-58778205D02*
X154772525Y-58707495D01*
G75*
G02*
X154772525Y-58636785I35355J35355D01*
G01*
X155302855Y-58106455D01*
G75*
G02*
X155373565Y-58106455I35355J-35355D01*
G01*
X155444275Y-58177165D01*
G75*
G02*
X155444275Y-58247875I-35355J-35355D01*
G01*
X154913945Y-58778205D01*
G75*
G02*
X154843235Y-58778205I-35355J35355D01*
G01*
G37*
G36*
G01*
X155126078Y-59061048D02*
X155055368Y-58990338D01*
G75*
G02*
X155055368Y-58919628I35355J35355D01*
G01*
X155585698Y-58389298D01*
G75*
G02*
X155656408Y-58389298I35355J-35355D01*
G01*
X155727118Y-58460008D01*
G75*
G02*
X155727118Y-58530718I-35355J-35355D01*
G01*
X155196788Y-59061048D01*
G75*
G02*
X155126078Y-59061048I-35355J35355D01*
G01*
G37*
G36*
G01*
X155408921Y-59343891D02*
X155338211Y-59273181D01*
G75*
G02*
X155338211Y-59202471I35355J35355D01*
G01*
X155868541Y-58672141D01*
G75*
G02*
X155939251Y-58672141I35355J-35355D01*
G01*
X156009961Y-58742851D01*
G75*
G02*
X156009961Y-58813561I-35355J-35355D01*
G01*
X155479631Y-59343891D01*
G75*
G02*
X155408921Y-59343891I-35355J35355D01*
G01*
G37*
G36*
G01*
X155691763Y-59626733D02*
X155621053Y-59556023D01*
G75*
G02*
X155621053Y-59485313I35355J35355D01*
G01*
X156151383Y-58954983D01*
G75*
G02*
X156222093Y-58954983I35355J-35355D01*
G01*
X156292803Y-59025693D01*
G75*
G02*
X156292803Y-59096403I-35355J-35355D01*
G01*
X155762473Y-59626733D01*
G75*
G02*
X155691763Y-59626733I-35355J35355D01*
G01*
G37*
G36*
G01*
X155974606Y-59909576D02*
X155903896Y-59838866D01*
G75*
G02*
X155903896Y-59768156I35355J35355D01*
G01*
X156434226Y-59237826D01*
G75*
G02*
X156504936Y-59237826I35355J-35355D01*
G01*
X156575646Y-59308536D01*
G75*
G02*
X156575646Y-59379246I-35355J-35355D01*
G01*
X156045316Y-59909576D01*
G75*
G02*
X155974606Y-59909576I-35355J35355D01*
G01*
G37*
G36*
G01*
X156257449Y-60192419D02*
X156186739Y-60121709D01*
G75*
G02*
X156186739Y-60050999I35355J35355D01*
G01*
X156717069Y-59520669D01*
G75*
G02*
X156787779Y-59520669I35355J-35355D01*
G01*
X156858489Y-59591379D01*
G75*
G02*
X156858489Y-59662089I-35355J-35355D01*
G01*
X156328159Y-60192419D01*
G75*
G02*
X156257449Y-60192419I-35355J35355D01*
G01*
G37*
G36*
G01*
X156540291Y-60475261D02*
X156469581Y-60404551D01*
G75*
G02*
X156469581Y-60333841I35355J35355D01*
G01*
X156999911Y-59803511D01*
G75*
G02*
X157070621Y-59803511I35355J-35355D01*
G01*
X157141331Y-59874221D01*
G75*
G02*
X157141331Y-59944931I-35355J-35355D01*
G01*
X156611001Y-60475261D01*
G75*
G02*
X156540291Y-60475261I-35355J35355D01*
G01*
G37*
G36*
G01*
X156823134Y-60758104D02*
X156752424Y-60687394D01*
G75*
G02*
X156752424Y-60616684I35355J35355D01*
G01*
X157282754Y-60086354D01*
G75*
G02*
X157353464Y-60086354I35355J-35355D01*
G01*
X157424174Y-60157064D01*
G75*
G02*
X157424174Y-60227774I-35355J-35355D01*
G01*
X156893844Y-60758104D01*
G75*
G02*
X156823134Y-60758104I-35355J35355D01*
G01*
G37*
G36*
G01*
X157105977Y-61040947D02*
X157035267Y-60970237D01*
G75*
G02*
X157035267Y-60899527I35355J35355D01*
G01*
X157565597Y-60369197D01*
G75*
G02*
X157636307Y-60369197I35355J-35355D01*
G01*
X157707017Y-60439907D01*
G75*
G02*
X157707017Y-60510617I-35355J-35355D01*
G01*
X157176687Y-61040947D01*
G75*
G02*
X157105977Y-61040947I-35355J35355D01*
G01*
G37*
G36*
G01*
X157388819Y-61323789D02*
X157318109Y-61253079D01*
G75*
G02*
X157318109Y-61182369I35355J35355D01*
G01*
X157848439Y-60652039D01*
G75*
G02*
X157919149Y-60652039I35355J-35355D01*
G01*
X157989859Y-60722749D01*
G75*
G02*
X157989859Y-60793459I-35355J-35355D01*
G01*
X157459529Y-61323789D01*
G75*
G02*
X157388819Y-61323789I-35355J35355D01*
G01*
G37*
G36*
G01*
X157671662Y-61606632D02*
X157600952Y-61535922D01*
G75*
G02*
X157600952Y-61465212I35355J35355D01*
G01*
X158131282Y-60934882D01*
G75*
G02*
X158201992Y-60934882I35355J-35355D01*
G01*
X158272702Y-61005592D01*
G75*
G02*
X158272702Y-61076302I-35355J-35355D01*
G01*
X157742372Y-61606632D01*
G75*
G02*
X157671662Y-61606632I-35355J35355D01*
G01*
G37*
G36*
G01*
X157954505Y-61889475D02*
X157883795Y-61818765D01*
G75*
G02*
X157883795Y-61748055I35355J35355D01*
G01*
X158414125Y-61217725D01*
G75*
G02*
X158484835Y-61217725I35355J-35355D01*
G01*
X158555545Y-61288435D01*
G75*
G02*
X158555545Y-61359145I-35355J-35355D01*
G01*
X158025215Y-61889475D01*
G75*
G02*
X157954505Y-61889475I-35355J35355D01*
G01*
G37*
%TD*%
%TO.C,U4*%
G36*
G01*
X166706340Y-97906767D02*
X165999233Y-97199660D01*
G75*
G02*
X165999233Y-95078340I1060660J1060660D01*
G01*
X166706340Y-94371233D01*
G75*
G02*
X168827660Y-94371233I1060660J-1060660D01*
G01*
X169534767Y-95078340D01*
G75*
G02*
X169534767Y-97199660I-1060660J-1060660D01*
G01*
X168827660Y-97906767D01*
G75*
G02*
X166706340Y-97906767I-1060660J1060660D01*
G01*
G37*
G36*
G01*
X168491785Y-100116475D02*
X167961455Y-99586145D01*
G75*
G02*
X167961455Y-99515435I35355J35355D01*
G01*
X168032165Y-99444725D01*
G75*
G02*
X168102875Y-99444725I35355J-35355D01*
G01*
X168633205Y-99975055D01*
G75*
G02*
X168633205Y-100045765I-35355J-35355D01*
G01*
X168562495Y-100116475D01*
G75*
G02*
X168491785Y-100116475I-35355J35355D01*
G01*
G37*
G36*
G01*
X168774628Y-99833632D02*
X168244298Y-99303302D01*
G75*
G02*
X168244298Y-99232592I35355J35355D01*
G01*
X168315008Y-99161882D01*
G75*
G02*
X168385718Y-99161882I35355J-35355D01*
G01*
X168916048Y-99692212D01*
G75*
G02*
X168916048Y-99762922I-35355J-35355D01*
G01*
X168845338Y-99833632D01*
G75*
G02*
X168774628Y-99833632I-35355J35355D01*
G01*
G37*
G36*
G01*
X169057471Y-99550789D02*
X168527141Y-99020459D01*
G75*
G02*
X168527141Y-98949749I35355J35355D01*
G01*
X168597851Y-98879039D01*
G75*
G02*
X168668561Y-98879039I35355J-35355D01*
G01*
X169198891Y-99409369D01*
G75*
G02*
X169198891Y-99480079I-35355J-35355D01*
G01*
X169128181Y-99550789D01*
G75*
G02*
X169057471Y-99550789I-35355J35355D01*
G01*
G37*
G36*
G01*
X169340313Y-99267947D02*
X168809983Y-98737617D01*
G75*
G02*
X168809983Y-98666907I35355J35355D01*
G01*
X168880693Y-98596197D01*
G75*
G02*
X168951403Y-98596197I35355J-35355D01*
G01*
X169481733Y-99126527D01*
G75*
G02*
X169481733Y-99197237I-35355J-35355D01*
G01*
X169411023Y-99267947D01*
G75*
G02*
X169340313Y-99267947I-35355J35355D01*
G01*
G37*
G36*
G01*
X169623156Y-98985104D02*
X169092826Y-98454774D01*
G75*
G02*
X169092826Y-98384064I35355J35355D01*
G01*
X169163536Y-98313354D01*
G75*
G02*
X169234246Y-98313354I35355J-35355D01*
G01*
X169764576Y-98843684D01*
G75*
G02*
X169764576Y-98914394I-35355J-35355D01*
G01*
X169693866Y-98985104D01*
G75*
G02*
X169623156Y-98985104I-35355J35355D01*
G01*
G37*
G36*
G01*
X169905999Y-98702261D02*
X169375669Y-98171931D01*
G75*
G02*
X169375669Y-98101221I35355J35355D01*
G01*
X169446379Y-98030511D01*
G75*
G02*
X169517089Y-98030511I35355J-35355D01*
G01*
X170047419Y-98560841D01*
G75*
G02*
X170047419Y-98631551I-35355J-35355D01*
G01*
X169976709Y-98702261D01*
G75*
G02*
X169905999Y-98702261I-35355J35355D01*
G01*
G37*
G36*
G01*
X170188841Y-98419419D02*
X169658511Y-97889089D01*
G75*
G02*
X169658511Y-97818379I35355J35355D01*
G01*
X169729221Y-97747669D01*
G75*
G02*
X169799931Y-97747669I35355J-35355D01*
G01*
X170330261Y-98277999D01*
G75*
G02*
X170330261Y-98348709I-35355J-35355D01*
G01*
X170259551Y-98419419D01*
G75*
G02*
X170188841Y-98419419I-35355J35355D01*
G01*
G37*
G36*
G01*
X170471684Y-98136576D02*
X169941354Y-97606246D01*
G75*
G02*
X169941354Y-97535536I35355J35355D01*
G01*
X170012064Y-97464826D01*
G75*
G02*
X170082774Y-97464826I35355J-35355D01*
G01*
X170613104Y-97995156D01*
G75*
G02*
X170613104Y-98065866I-35355J-35355D01*
G01*
X170542394Y-98136576D01*
G75*
G02*
X170471684Y-98136576I-35355J35355D01*
G01*
G37*
G36*
G01*
X170754527Y-97853733D02*
X170224197Y-97323403D01*
G75*
G02*
X170224197Y-97252693I35355J35355D01*
G01*
X170294907Y-97181983D01*
G75*
G02*
X170365617Y-97181983I35355J-35355D01*
G01*
X170895947Y-97712313D01*
G75*
G02*
X170895947Y-97783023I-35355J-35355D01*
G01*
X170825237Y-97853733D01*
G75*
G02*
X170754527Y-97853733I-35355J35355D01*
G01*
G37*
G36*
G01*
X171037369Y-97570891D02*
X170507039Y-97040561D01*
G75*
G02*
X170507039Y-96969851I35355J35355D01*
G01*
X170577749Y-96899141D01*
G75*
G02*
X170648459Y-96899141I35355J-35355D01*
G01*
X171178789Y-97429471D01*
G75*
G02*
X171178789Y-97500181I-35355J-35355D01*
G01*
X171108079Y-97570891D01*
G75*
G02*
X171037369Y-97570891I-35355J35355D01*
G01*
G37*
G36*
G01*
X171320212Y-97288048D02*
X170789882Y-96757718D01*
G75*
G02*
X170789882Y-96687008I35355J35355D01*
G01*
X170860592Y-96616298D01*
G75*
G02*
X170931302Y-96616298I35355J-35355D01*
G01*
X171461632Y-97146628D01*
G75*
G02*
X171461632Y-97217338I-35355J-35355D01*
G01*
X171390922Y-97288048D01*
G75*
G02*
X171320212Y-97288048I-35355J35355D01*
G01*
G37*
G36*
G01*
X171603055Y-97005205D02*
X171072725Y-96474875D01*
G75*
G02*
X171072725Y-96404165I35355J35355D01*
G01*
X171143435Y-96333455D01*
G75*
G02*
X171214145Y-96333455I35355J-35355D01*
G01*
X171744475Y-96863785D01*
G75*
G02*
X171744475Y-96934495I-35355J-35355D01*
G01*
X171673765Y-97005205D01*
G75*
G02*
X171603055Y-97005205I-35355J35355D01*
G01*
G37*
G36*
G01*
X171143435Y-95944545D02*
X171072725Y-95873835D01*
G75*
G02*
X171072725Y-95803125I35355J35355D01*
G01*
X171603055Y-95272795D01*
G75*
G02*
X171673765Y-95272795I35355J-35355D01*
G01*
X171744475Y-95343505D01*
G75*
G02*
X171744475Y-95414215I-35355J-35355D01*
G01*
X171214145Y-95944545D01*
G75*
G02*
X171143435Y-95944545I-35355J35355D01*
G01*
G37*
G36*
G01*
X170860592Y-95661702D02*
X170789882Y-95590992D01*
G75*
G02*
X170789882Y-95520282I35355J35355D01*
G01*
X171320212Y-94989952D01*
G75*
G02*
X171390922Y-94989952I35355J-35355D01*
G01*
X171461632Y-95060662D01*
G75*
G02*
X171461632Y-95131372I-35355J-35355D01*
G01*
X170931302Y-95661702D01*
G75*
G02*
X170860592Y-95661702I-35355J35355D01*
G01*
G37*
G36*
G01*
X170577749Y-95378859D02*
X170507039Y-95308149D01*
G75*
G02*
X170507039Y-95237439I35355J35355D01*
G01*
X171037369Y-94707109D01*
G75*
G02*
X171108079Y-94707109I35355J-35355D01*
G01*
X171178789Y-94777819D01*
G75*
G02*
X171178789Y-94848529I-35355J-35355D01*
G01*
X170648459Y-95378859D01*
G75*
G02*
X170577749Y-95378859I-35355J35355D01*
G01*
G37*
G36*
G01*
X170294907Y-95096017D02*
X170224197Y-95025307D01*
G75*
G02*
X170224197Y-94954597I35355J35355D01*
G01*
X170754527Y-94424267D01*
G75*
G02*
X170825237Y-94424267I35355J-35355D01*
G01*
X170895947Y-94494977D01*
G75*
G02*
X170895947Y-94565687I-35355J-35355D01*
G01*
X170365617Y-95096017D01*
G75*
G02*
X170294907Y-95096017I-35355J35355D01*
G01*
G37*
G36*
G01*
X170012064Y-94813174D02*
X169941354Y-94742464D01*
G75*
G02*
X169941354Y-94671754I35355J35355D01*
G01*
X170471684Y-94141424D01*
G75*
G02*
X170542394Y-94141424I35355J-35355D01*
G01*
X170613104Y-94212134D01*
G75*
G02*
X170613104Y-94282844I-35355J-35355D01*
G01*
X170082774Y-94813174D01*
G75*
G02*
X170012064Y-94813174I-35355J35355D01*
G01*
G37*
G36*
G01*
X169729221Y-94530331D02*
X169658511Y-94459621D01*
G75*
G02*
X169658511Y-94388911I35355J35355D01*
G01*
X170188841Y-93858581D01*
G75*
G02*
X170259551Y-93858581I35355J-35355D01*
G01*
X170330261Y-93929291D01*
G75*
G02*
X170330261Y-94000001I-35355J-35355D01*
G01*
X169799931Y-94530331D01*
G75*
G02*
X169729221Y-94530331I-35355J35355D01*
G01*
G37*
G36*
G01*
X169446379Y-94247489D02*
X169375669Y-94176779D01*
G75*
G02*
X169375669Y-94106069I35355J35355D01*
G01*
X169905999Y-93575739D01*
G75*
G02*
X169976709Y-93575739I35355J-35355D01*
G01*
X170047419Y-93646449D01*
G75*
G02*
X170047419Y-93717159I-35355J-35355D01*
G01*
X169517089Y-94247489D01*
G75*
G02*
X169446379Y-94247489I-35355J35355D01*
G01*
G37*
G36*
G01*
X169163536Y-93964646D02*
X169092826Y-93893936D01*
G75*
G02*
X169092826Y-93823226I35355J35355D01*
G01*
X169623156Y-93292896D01*
G75*
G02*
X169693866Y-93292896I35355J-35355D01*
G01*
X169764576Y-93363606D01*
G75*
G02*
X169764576Y-93434316I-35355J-35355D01*
G01*
X169234246Y-93964646D01*
G75*
G02*
X169163536Y-93964646I-35355J35355D01*
G01*
G37*
G36*
G01*
X168880693Y-93681803D02*
X168809983Y-93611093D01*
G75*
G02*
X168809983Y-93540383I35355J35355D01*
G01*
X169340313Y-93010053D01*
G75*
G02*
X169411023Y-93010053I35355J-35355D01*
G01*
X169481733Y-93080763D01*
G75*
G02*
X169481733Y-93151473I-35355J-35355D01*
G01*
X168951403Y-93681803D01*
G75*
G02*
X168880693Y-93681803I-35355J35355D01*
G01*
G37*
G36*
G01*
X168597851Y-93398961D02*
X168527141Y-93328251D01*
G75*
G02*
X168527141Y-93257541I35355J35355D01*
G01*
X169057471Y-92727211D01*
G75*
G02*
X169128181Y-92727211I35355J-35355D01*
G01*
X169198891Y-92797921D01*
G75*
G02*
X169198891Y-92868631I-35355J-35355D01*
G01*
X168668561Y-93398961D01*
G75*
G02*
X168597851Y-93398961I-35355J35355D01*
G01*
G37*
G36*
G01*
X168315008Y-93116118D02*
X168244298Y-93045408D01*
G75*
G02*
X168244298Y-92974698I35355J35355D01*
G01*
X168774628Y-92444368D01*
G75*
G02*
X168845338Y-92444368I35355J-35355D01*
G01*
X168916048Y-92515078D01*
G75*
G02*
X168916048Y-92585788I-35355J-35355D01*
G01*
X168385718Y-93116118D01*
G75*
G02*
X168315008Y-93116118I-35355J35355D01*
G01*
G37*
G36*
G01*
X168032165Y-92833275D02*
X167961455Y-92762565D01*
G75*
G02*
X167961455Y-92691855I35355J35355D01*
G01*
X168491785Y-92161525D01*
G75*
G02*
X168562495Y-92161525I35355J-35355D01*
G01*
X168633205Y-92232235D01*
G75*
G02*
X168633205Y-92302945I-35355J-35355D01*
G01*
X168102875Y-92833275D01*
G75*
G02*
X168032165Y-92833275I-35355J35355D01*
G01*
G37*
G36*
G01*
X167431125Y-92833275D02*
X166900795Y-92302945D01*
G75*
G02*
X166900795Y-92232235I35355J35355D01*
G01*
X166971505Y-92161525D01*
G75*
G02*
X167042215Y-92161525I35355J-35355D01*
G01*
X167572545Y-92691855D01*
G75*
G02*
X167572545Y-92762565I-35355J-35355D01*
G01*
X167501835Y-92833275D01*
G75*
G02*
X167431125Y-92833275I-35355J35355D01*
G01*
G37*
G36*
G01*
X167148282Y-93116118D02*
X166617952Y-92585788D01*
G75*
G02*
X166617952Y-92515078I35355J35355D01*
G01*
X166688662Y-92444368D01*
G75*
G02*
X166759372Y-92444368I35355J-35355D01*
G01*
X167289702Y-92974698D01*
G75*
G02*
X167289702Y-93045408I-35355J-35355D01*
G01*
X167218992Y-93116118D01*
G75*
G02*
X167148282Y-93116118I-35355J35355D01*
G01*
G37*
G36*
G01*
X166865439Y-93398961D02*
X166335109Y-92868631D01*
G75*
G02*
X166335109Y-92797921I35355J35355D01*
G01*
X166405819Y-92727211D01*
G75*
G02*
X166476529Y-92727211I35355J-35355D01*
G01*
X167006859Y-93257541D01*
G75*
G02*
X167006859Y-93328251I-35355J-35355D01*
G01*
X166936149Y-93398961D01*
G75*
G02*
X166865439Y-93398961I-35355J35355D01*
G01*
G37*
G36*
G01*
X166582597Y-93681803D02*
X166052267Y-93151473D01*
G75*
G02*
X166052267Y-93080763I35355J35355D01*
G01*
X166122977Y-93010053D01*
G75*
G02*
X166193687Y-93010053I35355J-35355D01*
G01*
X166724017Y-93540383D01*
G75*
G02*
X166724017Y-93611093I-35355J-35355D01*
G01*
X166653307Y-93681803D01*
G75*
G02*
X166582597Y-93681803I-35355J35355D01*
G01*
G37*
G36*
G01*
X166299754Y-93964646D02*
X165769424Y-93434316D01*
G75*
G02*
X165769424Y-93363606I35355J35355D01*
G01*
X165840134Y-93292896D01*
G75*
G02*
X165910844Y-93292896I35355J-35355D01*
G01*
X166441174Y-93823226D01*
G75*
G02*
X166441174Y-93893936I-35355J-35355D01*
G01*
X166370464Y-93964646D01*
G75*
G02*
X166299754Y-93964646I-35355J35355D01*
G01*
G37*
G36*
G01*
X166016911Y-94247489D02*
X165486581Y-93717159D01*
G75*
G02*
X165486581Y-93646449I35355J35355D01*
G01*
X165557291Y-93575739D01*
G75*
G02*
X165628001Y-93575739I35355J-35355D01*
G01*
X166158331Y-94106069D01*
G75*
G02*
X166158331Y-94176779I-35355J-35355D01*
G01*
X166087621Y-94247489D01*
G75*
G02*
X166016911Y-94247489I-35355J35355D01*
G01*
G37*
G36*
G01*
X165734069Y-94530331D02*
X165203739Y-94000001D01*
G75*
G02*
X165203739Y-93929291I35355J35355D01*
G01*
X165274449Y-93858581D01*
G75*
G02*
X165345159Y-93858581I35355J-35355D01*
G01*
X165875489Y-94388911D01*
G75*
G02*
X165875489Y-94459621I-35355J-35355D01*
G01*
X165804779Y-94530331D01*
G75*
G02*
X165734069Y-94530331I-35355J35355D01*
G01*
G37*
G36*
G01*
X165451226Y-94813174D02*
X164920896Y-94282844D01*
G75*
G02*
X164920896Y-94212134I35355J35355D01*
G01*
X164991606Y-94141424D01*
G75*
G02*
X165062316Y-94141424I35355J-35355D01*
G01*
X165592646Y-94671754D01*
G75*
G02*
X165592646Y-94742464I-35355J-35355D01*
G01*
X165521936Y-94813174D01*
G75*
G02*
X165451226Y-94813174I-35355J35355D01*
G01*
G37*
G36*
G01*
X165168383Y-95096017D02*
X164638053Y-94565687D01*
G75*
G02*
X164638053Y-94494977I35355J35355D01*
G01*
X164708763Y-94424267D01*
G75*
G02*
X164779473Y-94424267I35355J-35355D01*
G01*
X165309803Y-94954597D01*
G75*
G02*
X165309803Y-95025307I-35355J-35355D01*
G01*
X165239093Y-95096017D01*
G75*
G02*
X165168383Y-95096017I-35355J35355D01*
G01*
G37*
G36*
G01*
X164885541Y-95378859D02*
X164355211Y-94848529D01*
G75*
G02*
X164355211Y-94777819I35355J35355D01*
G01*
X164425921Y-94707109D01*
G75*
G02*
X164496631Y-94707109I35355J-35355D01*
G01*
X165026961Y-95237439D01*
G75*
G02*
X165026961Y-95308149I-35355J-35355D01*
G01*
X164956251Y-95378859D01*
G75*
G02*
X164885541Y-95378859I-35355J35355D01*
G01*
G37*
G36*
G01*
X164602698Y-95661702D02*
X164072368Y-95131372D01*
G75*
G02*
X164072368Y-95060662I35355J35355D01*
G01*
X164143078Y-94989952D01*
G75*
G02*
X164213788Y-94989952I35355J-35355D01*
G01*
X164744118Y-95520282D01*
G75*
G02*
X164744118Y-95590992I-35355J-35355D01*
G01*
X164673408Y-95661702D01*
G75*
G02*
X164602698Y-95661702I-35355J35355D01*
G01*
G37*
G36*
G01*
X164319855Y-95944545D02*
X163789525Y-95414215D01*
G75*
G02*
X163789525Y-95343505I35355J35355D01*
G01*
X163860235Y-95272795D01*
G75*
G02*
X163930945Y-95272795I35355J-35355D01*
G01*
X164461275Y-95803125D01*
G75*
G02*
X164461275Y-95873835I-35355J-35355D01*
G01*
X164390565Y-95944545D01*
G75*
G02*
X164319855Y-95944545I-35355J35355D01*
G01*
G37*
G36*
G01*
X163860235Y-97005205D02*
X163789525Y-96934495D01*
G75*
G02*
X163789525Y-96863785I35355J35355D01*
G01*
X164319855Y-96333455D01*
G75*
G02*
X164390565Y-96333455I35355J-35355D01*
G01*
X164461275Y-96404165D01*
G75*
G02*
X164461275Y-96474875I-35355J-35355D01*
G01*
X163930945Y-97005205D01*
G75*
G02*
X163860235Y-97005205I-35355J35355D01*
G01*
G37*
G36*
G01*
X164143078Y-97288048D02*
X164072368Y-97217338D01*
G75*
G02*
X164072368Y-97146628I35355J35355D01*
G01*
X164602698Y-96616298D01*
G75*
G02*
X164673408Y-96616298I35355J-35355D01*
G01*
X164744118Y-96687008D01*
G75*
G02*
X164744118Y-96757718I-35355J-35355D01*
G01*
X164213788Y-97288048D01*
G75*
G02*
X164143078Y-97288048I-35355J35355D01*
G01*
G37*
G36*
G01*
X164425921Y-97570891D02*
X164355211Y-97500181D01*
G75*
G02*
X164355211Y-97429471I35355J35355D01*
G01*
X164885541Y-96899141D01*
G75*
G02*
X164956251Y-96899141I35355J-35355D01*
G01*
X165026961Y-96969851D01*
G75*
G02*
X165026961Y-97040561I-35355J-35355D01*
G01*
X164496631Y-97570891D01*
G75*
G02*
X164425921Y-97570891I-35355J35355D01*
G01*
G37*
G36*
G01*
X164708763Y-97853733D02*
X164638053Y-97783023D01*
G75*
G02*
X164638053Y-97712313I35355J35355D01*
G01*
X165168383Y-97181983D01*
G75*
G02*
X165239093Y-97181983I35355J-35355D01*
G01*
X165309803Y-97252693D01*
G75*
G02*
X165309803Y-97323403I-35355J-35355D01*
G01*
X164779473Y-97853733D01*
G75*
G02*
X164708763Y-97853733I-35355J35355D01*
G01*
G37*
G36*
G01*
X164991606Y-98136576D02*
X164920896Y-98065866D01*
G75*
G02*
X164920896Y-97995156I35355J35355D01*
G01*
X165451226Y-97464826D01*
G75*
G02*
X165521936Y-97464826I35355J-35355D01*
G01*
X165592646Y-97535536D01*
G75*
G02*
X165592646Y-97606246I-35355J-35355D01*
G01*
X165062316Y-98136576D01*
G75*
G02*
X164991606Y-98136576I-35355J35355D01*
G01*
G37*
G36*
G01*
X165274449Y-98419419D02*
X165203739Y-98348709D01*
G75*
G02*
X165203739Y-98277999I35355J35355D01*
G01*
X165734069Y-97747669D01*
G75*
G02*
X165804779Y-97747669I35355J-35355D01*
G01*
X165875489Y-97818379D01*
G75*
G02*
X165875489Y-97889089I-35355J-35355D01*
G01*
X165345159Y-98419419D01*
G75*
G02*
X165274449Y-98419419I-35355J35355D01*
G01*
G37*
G36*
G01*
X165557291Y-98702261D02*
X165486581Y-98631551D01*
G75*
G02*
X165486581Y-98560841I35355J35355D01*
G01*
X166016911Y-98030511D01*
G75*
G02*
X166087621Y-98030511I35355J-35355D01*
G01*
X166158331Y-98101221D01*
G75*
G02*
X166158331Y-98171931I-35355J-35355D01*
G01*
X165628001Y-98702261D01*
G75*
G02*
X165557291Y-98702261I-35355J35355D01*
G01*
G37*
G36*
G01*
X165840134Y-98985104D02*
X165769424Y-98914394D01*
G75*
G02*
X165769424Y-98843684I35355J35355D01*
G01*
X166299754Y-98313354D01*
G75*
G02*
X166370464Y-98313354I35355J-35355D01*
G01*
X166441174Y-98384064D01*
G75*
G02*
X166441174Y-98454774I-35355J-35355D01*
G01*
X165910844Y-98985104D01*
G75*
G02*
X165840134Y-98985104I-35355J35355D01*
G01*
G37*
G36*
G01*
X166122977Y-99267947D02*
X166052267Y-99197237D01*
G75*
G02*
X166052267Y-99126527I35355J35355D01*
G01*
X166582597Y-98596197D01*
G75*
G02*
X166653307Y-98596197I35355J-35355D01*
G01*
X166724017Y-98666907D01*
G75*
G02*
X166724017Y-98737617I-35355J-35355D01*
G01*
X166193687Y-99267947D01*
G75*
G02*
X166122977Y-99267947I-35355J35355D01*
G01*
G37*
G36*
G01*
X166405819Y-99550789D02*
X166335109Y-99480079D01*
G75*
G02*
X166335109Y-99409369I35355J35355D01*
G01*
X166865439Y-98879039D01*
G75*
G02*
X166936149Y-98879039I35355J-35355D01*
G01*
X167006859Y-98949749D01*
G75*
G02*
X167006859Y-99020459I-35355J-35355D01*
G01*
X166476529Y-99550789D01*
G75*
G02*
X166405819Y-99550789I-35355J35355D01*
G01*
G37*
G36*
G01*
X166688662Y-99833632D02*
X166617952Y-99762922D01*
G75*
G02*
X166617952Y-99692212I35355J35355D01*
G01*
X167148282Y-99161882D01*
G75*
G02*
X167218992Y-99161882I35355J-35355D01*
G01*
X167289702Y-99232592D01*
G75*
G02*
X167289702Y-99303302I-35355J-35355D01*
G01*
X166759372Y-99833632D01*
G75*
G02*
X166688662Y-99833632I-35355J35355D01*
G01*
G37*
G36*
G01*
X166971505Y-100116475D02*
X166900795Y-100045765D01*
G75*
G02*
X166900795Y-99975055I35355J35355D01*
G01*
X167431125Y-99444725D01*
G75*
G02*
X167501835Y-99444725I35355J-35355D01*
G01*
X167572545Y-99515435D01*
G75*
G02*
X167572545Y-99586145I-35355J-35355D01*
G01*
X167042215Y-100116475D01*
G75*
G02*
X166971505Y-100116475I-35355J35355D01*
G01*
G37*
%TD*%
D11*
%TO.C,L15*%
X294597500Y-30207810D03*
X294597500Y-31707810D03*
X289597500Y-30207810D03*
X289597500Y-31707810D03*
%TD*%
%TO.C,L1*%
X27897500Y-30207810D03*
X27897500Y-31707810D03*
X22897500Y-30207810D03*
X22897500Y-31707810D03*
%TD*%
%TO.C,L83*%
X294600000Y-125462610D03*
X294600000Y-126962610D03*
X289600000Y-125462610D03*
X289600000Y-126962610D03*
%TD*%
%TO.C,L82*%
X275550000Y-125462610D03*
X275550000Y-126962610D03*
X270550000Y-125462610D03*
X270550000Y-126962610D03*
%TD*%
%TO.C,L81*%
X256497500Y-125462610D03*
X256497500Y-126962610D03*
X251497500Y-125462610D03*
X251497500Y-126962610D03*
%TD*%
%TO.C,L80*%
X237450000Y-125462610D03*
X237450000Y-126962610D03*
X232450000Y-125462610D03*
X232450000Y-126962610D03*
%TD*%
%TO.C,L79*%
X218397500Y-125462610D03*
X218397500Y-126962610D03*
X213397500Y-125462610D03*
X213397500Y-126962610D03*
%TD*%
%TO.C,L78*%
X199350000Y-125462610D03*
X199350000Y-126962610D03*
X194350000Y-125462610D03*
X194350000Y-126962610D03*
%TD*%
%TO.C,L77*%
X170772500Y-125462610D03*
X170772500Y-126962610D03*
X165772500Y-125462610D03*
X165772500Y-126962610D03*
%TD*%
%TO.C,L76*%
X139818750Y-125462610D03*
X139818750Y-126962610D03*
X134818750Y-125462610D03*
X134818750Y-126962610D03*
%TD*%
%TO.C,L75*%
X108862500Y-125462610D03*
X108862500Y-126962610D03*
X103862500Y-125462610D03*
X103862500Y-126962610D03*
%TD*%
%TO.C,L74*%
X77906250Y-125462610D03*
X77906250Y-126962610D03*
X72906250Y-125462610D03*
X72906250Y-126962610D03*
%TD*%
%TO.C,L73*%
X54093750Y-125462610D03*
X54093750Y-126962610D03*
X49093750Y-125462610D03*
X49093750Y-126962610D03*
%TD*%
%TO.C,L72*%
X30278750Y-125462610D03*
X30278750Y-126962610D03*
X25278750Y-125462610D03*
X25278750Y-126962610D03*
%TD*%
%TO.C,L71*%
X294597500Y-106411650D03*
X294597500Y-107911650D03*
X289597500Y-106411650D03*
X289597500Y-107911650D03*
%TD*%
%TO.C,L70*%
X275547500Y-106411650D03*
X275547500Y-107911650D03*
X270547500Y-106411650D03*
X270547500Y-107911650D03*
%TD*%
%TO.C,L69*%
X256500000Y-106411650D03*
X256500000Y-107911650D03*
X251500000Y-106411650D03*
X251500000Y-107911650D03*
%TD*%
%TO.C,L68*%
X237450000Y-106411650D03*
X237450000Y-107911650D03*
X232450000Y-106411650D03*
X232450000Y-107911650D03*
%TD*%
%TO.C,L67*%
X218400000Y-106411650D03*
X218400000Y-107911650D03*
X213400000Y-106411650D03*
X213400000Y-107911650D03*
%TD*%
%TO.C,L66*%
X199350000Y-106411650D03*
X199350000Y-107911650D03*
X194350000Y-106411650D03*
X194350000Y-107911650D03*
%TD*%
%TO.C,L65*%
X180297500Y-106411650D03*
X180297500Y-107911650D03*
X175297500Y-106411650D03*
X175297500Y-107911650D03*
%TD*%
%TO.C,L64*%
X161247500Y-106411650D03*
X161247500Y-107911650D03*
X156247500Y-106411650D03*
X156247500Y-107911650D03*
%TD*%
%TO.C,L63*%
X142197500Y-106411650D03*
X142197500Y-107911650D03*
X137197500Y-106411650D03*
X137197500Y-107911650D03*
%TD*%
%TO.C,L62*%
X123147500Y-106411650D03*
X123147500Y-107911650D03*
X118147500Y-106411650D03*
X118147500Y-107911650D03*
%TD*%
%TO.C,L61*%
X104097500Y-106411650D03*
X104097500Y-107911650D03*
X99097500Y-106411650D03*
X99097500Y-107911650D03*
%TD*%
%TO.C,L60*%
X85050000Y-106411650D03*
X85050000Y-107911650D03*
X80050000Y-106411650D03*
X80050000Y-107911650D03*
%TD*%
%TO.C,L59*%
X66000000Y-106411650D03*
X66000000Y-107911650D03*
X61000000Y-106411650D03*
X61000000Y-107911650D03*
%TD*%
%TO.C,L58*%
X37422500Y-106411650D03*
X37422500Y-107911650D03*
X32422500Y-106411650D03*
X32422500Y-107911650D03*
%TD*%
%TO.C,L57*%
X282691250Y-87360690D03*
X282691250Y-88860690D03*
X277691250Y-87360690D03*
X277691250Y-88860690D03*
%TD*%
%TO.C,L56*%
X251735000Y-87360690D03*
X251735000Y-88860690D03*
X246735000Y-87360690D03*
X246735000Y-88860690D03*
%TD*%
%TO.C,L55*%
X232685000Y-87360690D03*
X232685000Y-88860690D03*
X227685000Y-87360690D03*
X227685000Y-88860690D03*
%TD*%
%TO.C,L54*%
X213635000Y-87360690D03*
X213635000Y-88860690D03*
X208635000Y-87360690D03*
X208635000Y-88860690D03*
%TD*%
%TO.C,L53*%
X194587500Y-87360690D03*
X194587500Y-88860690D03*
X189587500Y-87360690D03*
X189587500Y-88860690D03*
%TD*%
%TO.C,L52*%
X175535000Y-87360690D03*
X175535000Y-88860690D03*
X170535000Y-87360690D03*
X170535000Y-88860690D03*
%TD*%
%TO.C,L51*%
X156487500Y-87360690D03*
X156487500Y-88860690D03*
X151487500Y-87360690D03*
X151487500Y-88860690D03*
%TD*%
%TO.C,L50*%
X137437500Y-87360690D03*
X137437500Y-88860690D03*
X132437500Y-87360690D03*
X132437500Y-88860690D03*
%TD*%
%TO.C,L49*%
X118385000Y-87360690D03*
X118385000Y-88860690D03*
X113385000Y-87360690D03*
X113385000Y-88860690D03*
%TD*%
%TO.C,L48*%
X99337500Y-87360690D03*
X99337500Y-88860690D03*
X94337500Y-87360690D03*
X94337500Y-88860690D03*
%TD*%
%TO.C,L47*%
X80285000Y-87360690D03*
X80285000Y-88860690D03*
X75285000Y-87360690D03*
X75285000Y-88860690D03*
%TD*%
%TO.C,L46*%
X61237500Y-87360690D03*
X61237500Y-88860690D03*
X56237500Y-87360690D03*
X56237500Y-88860690D03*
%TD*%
%TO.C,L45*%
X35041250Y-87360690D03*
X35041250Y-88860690D03*
X30041250Y-87360690D03*
X30041250Y-88860690D03*
%TD*%
%TO.C,L44*%
X289837500Y-68309730D03*
X289837500Y-69809730D03*
X284837500Y-68309730D03*
X284837500Y-69809730D03*
%TD*%
%TO.C,L43*%
X266025000Y-68309730D03*
X266025000Y-69809730D03*
X261025000Y-68309730D03*
X261025000Y-69809730D03*
%TD*%
%TO.C,L42*%
X246975000Y-68309730D03*
X246975000Y-69809730D03*
X241975000Y-68309730D03*
X241975000Y-69809730D03*
%TD*%
%TO.C,L41*%
X227925000Y-68309730D03*
X227925000Y-69809730D03*
X222925000Y-68309730D03*
X222925000Y-69809730D03*
%TD*%
%TO.C,L40*%
X208875000Y-68309730D03*
X208875000Y-69809730D03*
X203875000Y-68309730D03*
X203875000Y-69809730D03*
%TD*%
%TO.C,L39*%
X189822500Y-68309730D03*
X189822500Y-69809730D03*
X184822500Y-68309730D03*
X184822500Y-69809730D03*
%TD*%
%TO.C,L38*%
X170772500Y-68309730D03*
X170772500Y-69809730D03*
X165772500Y-68309730D03*
X165772500Y-69809730D03*
%TD*%
%TO.C,L37*%
X151847499Y-68309730D03*
X151847499Y-69809730D03*
X146847499Y-68309730D03*
X146847499Y-69809730D03*
%TD*%
%TO.C,L36*%
X132675000Y-68309730D03*
X132675000Y-69809730D03*
X127675000Y-68309730D03*
X127675000Y-69809730D03*
%TD*%
%TO.C,L35*%
X113622500Y-68309730D03*
X113622500Y-69809730D03*
X108622500Y-68309730D03*
X108622500Y-69809730D03*
%TD*%
%TO.C,L34*%
X94572500Y-68309730D03*
X94572500Y-69809730D03*
X89572500Y-68309730D03*
X89572500Y-69809730D03*
%TD*%
%TO.C,L33*%
X75522500Y-68309730D03*
X75522500Y-69809730D03*
X70522500Y-68309730D03*
X70522500Y-69809730D03*
%TD*%
%TO.C,L32*%
X56472500Y-68309730D03*
X56472500Y-69809730D03*
X51472500Y-68309730D03*
X51472500Y-69809730D03*
%TD*%
%TO.C,L31*%
X32662500Y-68309730D03*
X32662500Y-69809730D03*
X27662500Y-68309730D03*
X27662500Y-69809730D03*
%TD*%
%TO.C,L30*%
X294597500Y-49258770D03*
X294597500Y-50758770D03*
X289597500Y-49258770D03*
X289597500Y-50758770D03*
%TD*%
%TO.C,L29*%
X275550000Y-49258770D03*
X275550000Y-50758770D03*
X270550000Y-49258770D03*
X270550000Y-50758770D03*
%TD*%
%TO.C,L28*%
X256500000Y-49258770D03*
X256500000Y-50758770D03*
X251500000Y-49258770D03*
X251500000Y-50758770D03*
%TD*%
%TO.C,L27*%
X237450000Y-49258770D03*
X237450000Y-50758770D03*
X232450000Y-49258770D03*
X232450000Y-50758770D03*
%TD*%
%TO.C,L26*%
X218397500Y-49258770D03*
X218397500Y-50758770D03*
X213397500Y-49258770D03*
X213397500Y-50758770D03*
%TD*%
%TO.C,L25*%
X199350000Y-49258770D03*
X199350000Y-50758770D03*
X194350000Y-49258770D03*
X194350000Y-50758770D03*
%TD*%
%TO.C,L24*%
X180297500Y-49258770D03*
X180297500Y-50758770D03*
X175297500Y-49258770D03*
X175297500Y-50758770D03*
%TD*%
%TO.C,L23*%
X161247500Y-49258770D03*
X161247500Y-50758770D03*
X156247500Y-49258770D03*
X156247500Y-50758770D03*
%TD*%
%TO.C,L22*%
X142200000Y-49258770D03*
X142200000Y-50758770D03*
X137200000Y-49258770D03*
X137200000Y-50758770D03*
%TD*%
%TO.C,L21*%
X123150000Y-49258770D03*
X123150000Y-50758770D03*
X118150000Y-49258770D03*
X118150000Y-50758770D03*
%TD*%
%TO.C,L20*%
X104100000Y-49258770D03*
X104100000Y-50758770D03*
X99100000Y-49258770D03*
X99100000Y-50758770D03*
%TD*%
%TO.C,L19*%
X85047500Y-49258770D03*
X85047500Y-50758770D03*
X80047500Y-49258770D03*
X80047500Y-50758770D03*
%TD*%
%TO.C,L18*%
X66000000Y-49258770D03*
X66000000Y-50758770D03*
X61000000Y-49258770D03*
X61000000Y-50758770D03*
%TD*%
%TO.C,L17*%
X46950000Y-49258770D03*
X46950000Y-50758770D03*
X41950000Y-49258770D03*
X41950000Y-50758770D03*
%TD*%
%TO.C,L16*%
X27900000Y-49258770D03*
X27900000Y-50758770D03*
X22900000Y-49258770D03*
X22900000Y-50758770D03*
%TD*%
%TO.C,L14*%
X275547500Y-30207810D03*
X275547500Y-31707810D03*
X270547500Y-30207810D03*
X270547500Y-31707810D03*
%TD*%
%TO.C,L13*%
X256497500Y-30207810D03*
X256497500Y-31707810D03*
X251497500Y-30207810D03*
X251497500Y-31707810D03*
%TD*%
%TO.C,L12*%
X237447500Y-30207810D03*
X237447500Y-31707810D03*
X232447500Y-30207810D03*
X232447500Y-31707810D03*
%TD*%
%TO.C,L11*%
X218397500Y-30207810D03*
X218397500Y-31707810D03*
X213397500Y-30207810D03*
X213397500Y-31707810D03*
%TD*%
%TO.C,L10*%
X199347500Y-30207810D03*
X199347500Y-31707810D03*
X194347500Y-30207810D03*
X194347500Y-31707810D03*
%TD*%
%TO.C,L9*%
X180300000Y-30207810D03*
X180300000Y-31707810D03*
X175300000Y-30207810D03*
X175300000Y-31707810D03*
%TD*%
%TO.C,L8*%
X161250000Y-30207810D03*
X161250000Y-31707810D03*
X156250000Y-30207810D03*
X156250000Y-31707810D03*
%TD*%
%TO.C,L7*%
X142200000Y-30207810D03*
X142200000Y-31707810D03*
X137200000Y-30207810D03*
X137200000Y-31707810D03*
%TD*%
%TO.C,L6*%
X123150000Y-30207810D03*
X123150000Y-31707810D03*
X118150000Y-30207810D03*
X118150000Y-31707810D03*
%TD*%
%TO.C,L5*%
X104100000Y-30207810D03*
X104100000Y-31707810D03*
X99100000Y-30207810D03*
X99100000Y-31707810D03*
%TD*%
%TO.C,L4*%
X85050000Y-30207810D03*
X85050000Y-31707810D03*
X80050000Y-30207810D03*
X80050000Y-31707810D03*
%TD*%
%TO.C,L3*%
X66000000Y-30207810D03*
X66000000Y-31707810D03*
X61000000Y-30207810D03*
X61000000Y-31707810D03*
%TD*%
%TO.C,L2*%
X46950000Y-30207810D03*
X46950000Y-31707810D03*
X41950000Y-30207810D03*
X41950000Y-31707810D03*
%TD*%
D12*
%TO.C,U1*%
X97631250Y-17622650D03*
X100171250Y-17622650D03*
X102711250Y-17622650D03*
X105251250Y-17622650D03*
X107791250Y-17622650D03*
X110331250Y-17622650D03*
X112871250Y-17622650D03*
X115411250Y-17622650D03*
X117951250Y-17622650D03*
X120491250Y-17622650D03*
X123031250Y-17622650D03*
X125571250Y-17622650D03*
X128111250Y-17622650D03*
X130651250Y-17622650D03*
X133191250Y-17622650D03*
D13*
X135731250Y-17622650D03*
D12*
X135731250Y-37942650D03*
X133191250Y-37942650D03*
X130651250Y-37942650D03*
X128111250Y-37942650D03*
X125571250Y-37942650D03*
X120491250Y-37942650D03*
X117951250Y-37942650D03*
X117931250Y-35432650D03*
X112871250Y-37942650D03*
X110331250Y-37942650D03*
D13*
X107791250Y-37942650D03*
D12*
X122981250Y-36582650D03*
%TD*%
D14*
%TO.C,K23*%
X163830000Y-44452240D03*
X153670000Y-44452240D03*
D15*
X154940000Y-41912240D03*
D16*
X158750000Y-44452240D03*
D15*
X161290000Y-39372240D03*
%TD*%
D14*
%TO.C,K52*%
X178117500Y-82554160D03*
X167957500Y-82554160D03*
D15*
X169227500Y-80014160D03*
D16*
X173037500Y-82554160D03*
D15*
X175577500Y-77474160D03*
%TD*%
D14*
%TO.C,K37*%
X154305000Y-63503200D03*
X144145000Y-63503200D03*
D15*
X145415000Y-60963200D03*
D16*
X149225000Y-63503200D03*
D15*
X151765000Y-58423200D03*
%TD*%
%TO.C,K45*%
X35083750Y-77474160D03*
D16*
X32543750Y-82554160D03*
D15*
X28733750Y-80014160D03*
D14*
X27463750Y-82554160D03*
X37623750Y-82554160D03*
%TD*%
D15*
%TO.C,K58*%
X37465000Y-96525120D03*
D16*
X34925000Y-101605120D03*
D15*
X31115000Y-99065120D03*
D14*
X29845000Y-101605120D03*
X40005000Y-101605120D03*
D17*
X23018750Y-94620120D03*
X46831250Y-94620120D03*
D16*
X23018750Y-109860120D03*
X46831250Y-109860120D03*
%TD*%
D15*
%TO.C,K77*%
X170815000Y-115576080D03*
D16*
X168275000Y-120656080D03*
D15*
X164465000Y-118116080D03*
D14*
X163195000Y-120656080D03*
X173355000Y-120656080D03*
D17*
X156368750Y-127641080D03*
X180181250Y-127641080D03*
D16*
X156368750Y-112401080D03*
X180181250Y-112401080D03*
%TD*%
D15*
%TO.C,K75*%
X108902500Y-115576080D03*
D16*
X106362500Y-120656080D03*
D15*
X102552500Y-118116080D03*
D14*
X101282500Y-120656080D03*
X111442500Y-120656080D03*
D17*
X94456250Y-127641080D03*
X118268750Y-127641080D03*
D16*
X94456250Y-112401080D03*
X118268750Y-112401080D03*
%TD*%
D15*
%TO.C,K74*%
X77946250Y-115576080D03*
D16*
X75406250Y-120656080D03*
D15*
X71596250Y-118116080D03*
D14*
X70326250Y-120656080D03*
X80486250Y-120656080D03*
%TD*%
D15*
%TO.C,K73*%
X54133750Y-115576080D03*
D16*
X51593750Y-120656080D03*
D15*
X47783750Y-118116080D03*
D14*
X46513750Y-120656080D03*
X56673750Y-120656080D03*
%TD*%
D15*
%TO.C,K72*%
X30321250Y-115576080D03*
D16*
X27781250Y-120656080D03*
D15*
X23971250Y-118116080D03*
D14*
X22701250Y-120656080D03*
X32861250Y-120656080D03*
%TD*%
D15*
%TO.C,K44*%
X289877500Y-58423200D03*
D16*
X287337500Y-63503200D03*
D15*
X283527500Y-60963200D03*
D14*
X282257500Y-63503200D03*
X292417500Y-63503200D03*
%TD*%
D15*
%TO.C,K31*%
X32702500Y-58423200D03*
D16*
X30162500Y-63503200D03*
D15*
X26352500Y-60963200D03*
D14*
X25082500Y-63503200D03*
X35242500Y-63503200D03*
%TD*%
D15*
%TO.C,K57*%
X282733750Y-77474160D03*
D16*
X280193750Y-82554160D03*
D15*
X276383750Y-80014160D03*
D14*
X275113750Y-82554160D03*
X285273750Y-82554160D03*
D17*
X268287500Y-75569160D03*
X292100000Y-75569160D03*
D16*
X268287500Y-90809160D03*
X292100000Y-90809160D03*
%TD*%
D14*
%TO.C,K24*%
X182880000Y-44452240D03*
X172720000Y-44452240D03*
D15*
X173990000Y-41912240D03*
D16*
X177800000Y-44452240D03*
D15*
X180340000Y-39372240D03*
%TD*%
D14*
%TO.C,K2*%
X49530000Y-25401280D03*
X39370000Y-25401280D03*
D15*
X40640000Y-22861280D03*
D16*
X44450000Y-25401280D03*
D15*
X46990000Y-20321280D03*
%TD*%
D14*
%TO.C,K26*%
X220980000Y-44452240D03*
X210820000Y-44452240D03*
D15*
X212090000Y-41912240D03*
D16*
X215900000Y-44452240D03*
D15*
X218440000Y-39372240D03*
%TD*%
D14*
%TO.C,K28*%
X259080000Y-44452240D03*
X248920000Y-44452240D03*
D15*
X250190000Y-41912240D03*
D16*
X254000000Y-44452240D03*
D15*
X256540000Y-39372240D03*
%TD*%
D14*
%TO.C,K27*%
X240030000Y-44452240D03*
X229870000Y-44452240D03*
D15*
X231140000Y-41912240D03*
D16*
X234950000Y-44452240D03*
D15*
X237490000Y-39372240D03*
%TD*%
D14*
%TO.C,K25*%
X201930000Y-44452240D03*
X191770000Y-44452240D03*
D15*
X193040000Y-41912240D03*
D16*
X196850000Y-44452240D03*
D15*
X199390000Y-39372240D03*
%TD*%
D14*
%TO.C,K13*%
X259080000Y-25401280D03*
X248920000Y-25401280D03*
D15*
X250190000Y-22861280D03*
D16*
X254000000Y-25401280D03*
D15*
X256540000Y-20321280D03*
%TD*%
D14*
%TO.C,K10*%
X201930000Y-25401280D03*
X191770000Y-25401280D03*
D15*
X193040000Y-22861280D03*
D16*
X196850000Y-25401280D03*
D15*
X199390000Y-20321280D03*
%TD*%
D14*
%TO.C,K14*%
X278130000Y-25401280D03*
X267970000Y-25401280D03*
D15*
X269240000Y-22861280D03*
D16*
X273050000Y-25401280D03*
D15*
X275590000Y-20321280D03*
%TD*%
D14*
%TO.C,K29*%
X278130000Y-44452240D03*
X267970000Y-44452240D03*
D15*
X269240000Y-41912240D03*
D16*
X273050000Y-44452240D03*
D15*
X275590000Y-39372240D03*
%TD*%
D14*
%TO.C,K46*%
X63817500Y-82554160D03*
X53657500Y-82554160D03*
D15*
X54927500Y-80014160D03*
D16*
X58737500Y-82554160D03*
D15*
X61277500Y-77474160D03*
%TD*%
D14*
%TO.C,K59*%
X68580000Y-101605120D03*
X58420000Y-101605120D03*
D15*
X59690000Y-99065120D03*
D16*
X63500000Y-101605120D03*
D15*
X66040000Y-96525120D03*
%TD*%
D14*
%TO.C,K54*%
X216217500Y-82554160D03*
X206057500Y-82554160D03*
D15*
X207327500Y-80014160D03*
D16*
X211137500Y-82554160D03*
D15*
X213677500Y-77474160D03*
%TD*%
D14*
%TO.C,K49*%
X120967500Y-82554160D03*
X110807500Y-82554160D03*
D15*
X112077500Y-80014160D03*
D16*
X115887500Y-82554160D03*
D15*
X118427500Y-77474160D03*
%TD*%
D14*
%TO.C,K76*%
X142398750Y-120656080D03*
X132238750Y-120656080D03*
D15*
X133508750Y-118116080D03*
D16*
X137318750Y-120656080D03*
D15*
X139858750Y-115576080D03*
%TD*%
D14*
%TO.C,K41*%
X230505000Y-63503200D03*
X220345000Y-63503200D03*
D15*
X221615000Y-60963200D03*
D16*
X225425000Y-63503200D03*
D15*
X227965000Y-58423200D03*
%TD*%
D14*
%TO.C,K56*%
X254317500Y-82554160D03*
X244157500Y-82554160D03*
D15*
X245427500Y-80014160D03*
D16*
X249237500Y-82554160D03*
D15*
X251777500Y-77474160D03*
%TD*%
D14*
%TO.C,K12*%
X240030000Y-25401280D03*
X229870000Y-25401280D03*
D15*
X231140000Y-22861280D03*
D16*
X234950000Y-25401280D03*
D15*
X237490000Y-20321280D03*
%TD*%
D14*
%TO.C,K39*%
X192405000Y-63503200D03*
X182245000Y-63503200D03*
D15*
X183515000Y-60963200D03*
D16*
X187325000Y-63503200D03*
D15*
X189865000Y-58423200D03*
%TD*%
D14*
%TO.C,K48*%
X101917500Y-82554160D03*
X91757500Y-82554160D03*
D15*
X93027500Y-80014160D03*
D16*
X96837500Y-82554160D03*
D15*
X99377500Y-77474160D03*
%TD*%
D14*
%TO.C,K17*%
X49530000Y-44452240D03*
X39370000Y-44452240D03*
D15*
X40640000Y-41912240D03*
D16*
X44450000Y-44452240D03*
D15*
X46990000Y-39372240D03*
%TD*%
D14*
%TO.C,K18*%
X68580000Y-44452240D03*
X58420000Y-44452240D03*
D15*
X59690000Y-41912240D03*
D16*
X63500000Y-44452240D03*
D15*
X66040000Y-39372240D03*
%TD*%
D14*
%TO.C,K19*%
X87630000Y-44452240D03*
X77470000Y-44452240D03*
D15*
X78740000Y-41912240D03*
D16*
X82550000Y-44452240D03*
D15*
X85090000Y-39372240D03*
%TD*%
D14*
%TO.C,K83*%
X297180000Y-120656080D03*
X287020000Y-120656080D03*
D15*
X288290000Y-118116080D03*
D16*
X292100000Y-120656080D03*
D15*
X294640000Y-115576080D03*
%TD*%
D14*
%TO.C,K82*%
X278130000Y-120656080D03*
X267970000Y-120656080D03*
D15*
X269240000Y-118116080D03*
D16*
X273050000Y-120656080D03*
D15*
X275590000Y-115576080D03*
%TD*%
D14*
%TO.C,K81*%
X259080000Y-120656080D03*
X248920000Y-120656080D03*
D15*
X250190000Y-118116080D03*
D16*
X254000000Y-120656080D03*
D15*
X256540000Y-115576080D03*
%TD*%
D14*
%TO.C,K80*%
X240030000Y-120656080D03*
X229870000Y-120656080D03*
D15*
X231140000Y-118116080D03*
D16*
X234950000Y-120656080D03*
D15*
X237490000Y-115576080D03*
%TD*%
D14*
%TO.C,K79*%
X220980000Y-120656080D03*
X210820000Y-120656080D03*
D15*
X212090000Y-118116080D03*
D16*
X215900000Y-120656080D03*
D15*
X218440000Y-115576080D03*
%TD*%
D14*
%TO.C,K78*%
X201930000Y-120656080D03*
X191770000Y-120656080D03*
D15*
X193040000Y-118116080D03*
D16*
X196850000Y-120656080D03*
D15*
X199390000Y-115576080D03*
%TD*%
D14*
%TO.C,K71*%
X297180000Y-101605120D03*
X287020000Y-101605120D03*
D15*
X288290000Y-99065120D03*
D16*
X292100000Y-101605120D03*
D15*
X294640000Y-96525120D03*
%TD*%
D14*
%TO.C,K70*%
X278130000Y-101605120D03*
X267970000Y-101605120D03*
D15*
X269240000Y-99065120D03*
D16*
X273050000Y-101605120D03*
D15*
X275590000Y-96525120D03*
%TD*%
D14*
%TO.C,K69*%
X259080000Y-101605120D03*
X248920000Y-101605120D03*
D15*
X250190000Y-99065120D03*
D16*
X254000000Y-101605120D03*
D15*
X256540000Y-96525120D03*
%TD*%
D14*
%TO.C,K68*%
X240030000Y-101605120D03*
X229870000Y-101605120D03*
D15*
X231140000Y-99065120D03*
D16*
X234950000Y-101605120D03*
D15*
X237490000Y-96525120D03*
%TD*%
D14*
%TO.C,K67*%
X220980000Y-101605120D03*
X210820000Y-101605120D03*
D15*
X212090000Y-99065120D03*
D16*
X215900000Y-101605120D03*
D15*
X218440000Y-96525120D03*
%TD*%
D14*
%TO.C,K66*%
X201930000Y-101605120D03*
X191770000Y-101605120D03*
D15*
X193040000Y-99065120D03*
D16*
X196850000Y-101605120D03*
D15*
X199390000Y-96525120D03*
%TD*%
D14*
%TO.C,K65*%
X182880000Y-101605120D03*
X172720000Y-101605120D03*
D15*
X173990000Y-99065120D03*
D16*
X177800000Y-101605120D03*
D15*
X180340000Y-96525120D03*
%TD*%
D14*
%TO.C,K64*%
X163830000Y-101605120D03*
X153670000Y-101605120D03*
D15*
X154940000Y-99065120D03*
D16*
X158750000Y-101605120D03*
D15*
X161290000Y-96525120D03*
%TD*%
D14*
%TO.C,K63*%
X144780000Y-101605120D03*
X134620000Y-101605120D03*
D15*
X135890000Y-99065120D03*
D16*
X139700000Y-101605120D03*
D15*
X142240000Y-96525120D03*
%TD*%
D14*
%TO.C,K62*%
X125730000Y-101605120D03*
X115570000Y-101605120D03*
D15*
X116840000Y-99065120D03*
D16*
X120650000Y-101605120D03*
D15*
X123190000Y-96525120D03*
%TD*%
D14*
%TO.C,K61*%
X106680000Y-101605120D03*
X96520000Y-101605120D03*
D15*
X97790000Y-99065120D03*
D16*
X101600000Y-101605120D03*
D15*
X104140000Y-96525120D03*
%TD*%
D14*
%TO.C,K60*%
X87630000Y-101605120D03*
X77470000Y-101605120D03*
D15*
X78740000Y-99065120D03*
D16*
X82550000Y-101605120D03*
D15*
X85090000Y-96525120D03*
%TD*%
D14*
%TO.C,K55*%
X235267500Y-82554160D03*
X225107500Y-82554160D03*
D15*
X226377500Y-80014160D03*
D16*
X230187500Y-82554160D03*
D15*
X232727500Y-77474160D03*
%TD*%
D14*
%TO.C,K53*%
X197167500Y-82554160D03*
X187007500Y-82554160D03*
D15*
X188277500Y-80014160D03*
D16*
X192087500Y-82554160D03*
D15*
X194627500Y-77474160D03*
%TD*%
D14*
%TO.C,K51*%
X159067500Y-82554160D03*
X148907500Y-82554160D03*
D15*
X150177500Y-80014160D03*
D16*
X153987500Y-82554160D03*
D15*
X156527500Y-77474160D03*
%TD*%
D14*
%TO.C,K50*%
X140017500Y-82554160D03*
X129857500Y-82554160D03*
D15*
X131127500Y-80014160D03*
D16*
X134937500Y-82554160D03*
D15*
X137477500Y-77474160D03*
%TD*%
D14*
%TO.C,K47*%
X82867500Y-82554160D03*
X72707500Y-82554160D03*
D15*
X73977500Y-80014160D03*
D16*
X77787500Y-82554160D03*
D15*
X80327500Y-77474160D03*
%TD*%
D14*
%TO.C,K43*%
X268605000Y-63503200D03*
X258445000Y-63503200D03*
D15*
X259715000Y-60963200D03*
D16*
X263525000Y-63503200D03*
D15*
X266065000Y-58423200D03*
%TD*%
D14*
%TO.C,K42*%
X249555000Y-63503200D03*
X239395000Y-63503200D03*
D15*
X240665000Y-60963200D03*
D16*
X244475000Y-63503200D03*
D15*
X247015000Y-58423200D03*
%TD*%
D14*
%TO.C,K40*%
X211455000Y-63503200D03*
X201295000Y-63503200D03*
D15*
X202565000Y-60963200D03*
D16*
X206375000Y-63503200D03*
D15*
X208915000Y-58423200D03*
%TD*%
D14*
%TO.C,K38*%
X173355000Y-63503200D03*
X163195000Y-63503200D03*
D15*
X164465000Y-60963200D03*
D16*
X168275000Y-63503200D03*
D15*
X170815000Y-58423200D03*
%TD*%
D14*
%TO.C,K36*%
X135255000Y-63503200D03*
X125095000Y-63503200D03*
D15*
X126365000Y-60963200D03*
D16*
X130175000Y-63503200D03*
D15*
X132715000Y-58423200D03*
%TD*%
D14*
%TO.C,K35*%
X116205000Y-63503200D03*
X106045000Y-63503200D03*
D15*
X107315000Y-60963200D03*
D16*
X111125000Y-63503200D03*
D15*
X113665000Y-58423200D03*
%TD*%
D14*
%TO.C,K34*%
X97155000Y-63503200D03*
X86995000Y-63503200D03*
D15*
X88265000Y-60963200D03*
D16*
X92075000Y-63503200D03*
D15*
X94615000Y-58423200D03*
%TD*%
D14*
%TO.C,K33*%
X78105000Y-63503200D03*
X67945000Y-63503200D03*
D15*
X69215000Y-60963200D03*
D16*
X73025000Y-63503200D03*
D15*
X75565000Y-58423200D03*
%TD*%
D14*
%TO.C,K32*%
X59055000Y-63503200D03*
X48895000Y-63503200D03*
D15*
X50165000Y-60963200D03*
D16*
X53975000Y-63503200D03*
D15*
X56515000Y-58423200D03*
%TD*%
D14*
%TO.C,K30*%
X297180000Y-44452240D03*
X287020000Y-44452240D03*
D15*
X288290000Y-41912240D03*
D16*
X292100000Y-44452240D03*
D15*
X294640000Y-39372240D03*
%TD*%
D14*
%TO.C,K22*%
X144780000Y-44452240D03*
X134620000Y-44452240D03*
D15*
X135890000Y-41912240D03*
D16*
X139700000Y-44452240D03*
D15*
X142240000Y-39372240D03*
%TD*%
D14*
%TO.C,K21*%
X125730000Y-44452240D03*
X115570000Y-44452240D03*
D15*
X116840000Y-41912240D03*
D16*
X120650000Y-44452240D03*
D15*
X123190000Y-39372240D03*
%TD*%
D14*
%TO.C,K20*%
X106680000Y-44452240D03*
X96520000Y-44452240D03*
D15*
X97790000Y-41912240D03*
D16*
X101600000Y-44452240D03*
D15*
X104140000Y-39372240D03*
%TD*%
D14*
%TO.C,K16*%
X30480000Y-44452240D03*
X20320000Y-44452240D03*
D15*
X21590000Y-41912240D03*
D16*
X25400000Y-44452240D03*
D15*
X27940000Y-39372240D03*
%TD*%
D14*
%TO.C,K15*%
X297180000Y-25401280D03*
X287020000Y-25401280D03*
D15*
X288290000Y-22861280D03*
D16*
X292100000Y-25401280D03*
D15*
X294640000Y-20321280D03*
%TD*%
D14*
%TO.C,K11*%
X220980000Y-25401280D03*
X210820000Y-25401280D03*
D15*
X212090000Y-22861280D03*
D16*
X215900000Y-25401280D03*
D15*
X218440000Y-20321280D03*
%TD*%
D14*
%TO.C,K9*%
X182880000Y-25401280D03*
X172720000Y-25401280D03*
D15*
X173990000Y-22861280D03*
D16*
X177800000Y-25401280D03*
D15*
X180340000Y-20321280D03*
%TD*%
D14*
%TO.C,K8*%
X163830000Y-25401280D03*
X153670000Y-25401280D03*
D15*
X154940000Y-22861280D03*
D16*
X158750000Y-25401280D03*
D15*
X161290000Y-20321280D03*
%TD*%
D14*
%TO.C,K7*%
X144780000Y-25401280D03*
X134620000Y-25401280D03*
D15*
X135890000Y-22861280D03*
D16*
X139700000Y-25401280D03*
D15*
X142240000Y-20321280D03*
%TD*%
D14*
%TO.C,K6*%
X125730000Y-25401280D03*
X115570000Y-25401280D03*
D15*
X116840000Y-22861280D03*
D16*
X120650000Y-25401280D03*
D15*
X123190000Y-20321280D03*
%TD*%
D14*
%TO.C,K5*%
X106680000Y-25401280D03*
X96520000Y-25401280D03*
D15*
X97790000Y-22861280D03*
D16*
X101600000Y-25401280D03*
D15*
X104140000Y-20321280D03*
%TD*%
D14*
%TO.C,K4*%
X87630000Y-25401280D03*
X77470000Y-25401280D03*
D15*
X78740000Y-22861280D03*
D16*
X82550000Y-25401280D03*
D15*
X85090000Y-20321280D03*
%TD*%
D14*
%TO.C,K3*%
X68580000Y-25401280D03*
X58420000Y-25401280D03*
D15*
X59690000Y-22861280D03*
D16*
X63500000Y-25401280D03*
D15*
X66040000Y-20321280D03*
%TD*%
D14*
%TO.C,K1*%
X30480000Y-25401280D03*
X20320000Y-25401280D03*
D15*
X21590000Y-22861280D03*
D16*
X25400000Y-25401280D03*
D15*
X27940000Y-20321280D03*
%TD*%
%TO.C,U2*%
G36*
G01*
X41968000Y-73510000D02*
X41968000Y-73810000D01*
G75*
G02*
X41818000Y-73960000I-150000J0D01*
G01*
X40068000Y-73960000D01*
G75*
G02*
X39918000Y-73810000I0J150000D01*
G01*
X39918000Y-73510000D01*
G75*
G02*
X40068000Y-73360000I150000J0D01*
G01*
X41818000Y-73360000D01*
G75*
G02*
X41968000Y-73510000I0J-150000D01*
G01*
G37*
G36*
G01*
X41968000Y-74780000D02*
X41968000Y-75080000D01*
G75*
G02*
X41818000Y-75230000I-150000J0D01*
G01*
X40068000Y-75230000D01*
G75*
G02*
X39918000Y-75080000I0J150000D01*
G01*
X39918000Y-74780000D01*
G75*
G02*
X40068000Y-74630000I150000J0D01*
G01*
X41818000Y-74630000D01*
G75*
G02*
X41968000Y-74780000I0J-150000D01*
G01*
G37*
G36*
G01*
X41968000Y-76050000D02*
X41968000Y-76350000D01*
G75*
G02*
X41818000Y-76500000I-150000J0D01*
G01*
X40068000Y-76500000D01*
G75*
G02*
X39918000Y-76350000I0J150000D01*
G01*
X39918000Y-76050000D01*
G75*
G02*
X40068000Y-75900000I150000J0D01*
G01*
X41818000Y-75900000D01*
G75*
G02*
X41968000Y-76050000I0J-150000D01*
G01*
G37*
G36*
G01*
X41968000Y-77320000D02*
X41968000Y-77620000D01*
G75*
G02*
X41818000Y-77770000I-150000J0D01*
G01*
X40068000Y-77770000D01*
G75*
G02*
X39918000Y-77620000I0J150000D01*
G01*
X39918000Y-77320000D01*
G75*
G02*
X40068000Y-77170000I150000J0D01*
G01*
X41818000Y-77170000D01*
G75*
G02*
X41968000Y-77320000I0J-150000D01*
G01*
G37*
G36*
G01*
X41968000Y-78590000D02*
X41968000Y-78890000D01*
G75*
G02*
X41818000Y-79040000I-150000J0D01*
G01*
X40068000Y-79040000D01*
G75*
G02*
X39918000Y-78890000I0J150000D01*
G01*
X39918000Y-78590000D01*
G75*
G02*
X40068000Y-78440000I150000J0D01*
G01*
X41818000Y-78440000D01*
G75*
G02*
X41968000Y-78590000I0J-150000D01*
G01*
G37*
G36*
G01*
X41968000Y-79860000D02*
X41968000Y-80160000D01*
G75*
G02*
X41818000Y-80310000I-150000J0D01*
G01*
X40068000Y-80310000D01*
G75*
G02*
X39918000Y-80160000I0J150000D01*
G01*
X39918000Y-79860000D01*
G75*
G02*
X40068000Y-79710000I150000J0D01*
G01*
X41818000Y-79710000D01*
G75*
G02*
X41968000Y-79860000I0J-150000D01*
G01*
G37*
G36*
G01*
X41968000Y-81130000D02*
X41968000Y-81430000D01*
G75*
G02*
X41818000Y-81580000I-150000J0D01*
G01*
X40068000Y-81580000D01*
G75*
G02*
X39918000Y-81430000I0J150000D01*
G01*
X39918000Y-81130000D01*
G75*
G02*
X40068000Y-80980000I150000J0D01*
G01*
X41818000Y-80980000D01*
G75*
G02*
X41968000Y-81130000I0J-150000D01*
G01*
G37*
G36*
G01*
X41968000Y-82400000D02*
X41968000Y-82700000D01*
G75*
G02*
X41818000Y-82850000I-150000J0D01*
G01*
X40068000Y-82850000D01*
G75*
G02*
X39918000Y-82700000I0J150000D01*
G01*
X39918000Y-82400000D01*
G75*
G02*
X40068000Y-82250000I150000J0D01*
G01*
X41818000Y-82250000D01*
G75*
G02*
X41968000Y-82400000I0J-150000D01*
G01*
G37*
G36*
G01*
X41968000Y-83670000D02*
X41968000Y-83970000D01*
G75*
G02*
X41818000Y-84120000I-150000J0D01*
G01*
X40068000Y-84120000D01*
G75*
G02*
X39918000Y-83970000I0J150000D01*
G01*
X39918000Y-83670000D01*
G75*
G02*
X40068000Y-83520000I150000J0D01*
G01*
X41818000Y-83520000D01*
G75*
G02*
X41968000Y-83670000I0J-150000D01*
G01*
G37*
G36*
G01*
X41968000Y-84940000D02*
X41968000Y-85240000D01*
G75*
G02*
X41818000Y-85390000I-150000J0D01*
G01*
X40068000Y-85390000D01*
G75*
G02*
X39918000Y-85240000I0J150000D01*
G01*
X39918000Y-84940000D01*
G75*
G02*
X40068000Y-84790000I150000J0D01*
G01*
X41818000Y-84790000D01*
G75*
G02*
X41968000Y-84940000I0J-150000D01*
G01*
G37*
G36*
G01*
X41968000Y-86210000D02*
X41968000Y-86510000D01*
G75*
G02*
X41818000Y-86660000I-150000J0D01*
G01*
X40068000Y-86660000D01*
G75*
G02*
X39918000Y-86510000I0J150000D01*
G01*
X39918000Y-86210000D01*
G75*
G02*
X40068000Y-86060000I150000J0D01*
G01*
X41818000Y-86060000D01*
G75*
G02*
X41968000Y-86210000I0J-150000D01*
G01*
G37*
G36*
G01*
X41968000Y-87480000D02*
X41968000Y-87780000D01*
G75*
G02*
X41818000Y-87930000I-150000J0D01*
G01*
X40068000Y-87930000D01*
G75*
G02*
X39918000Y-87780000I0J150000D01*
G01*
X39918000Y-87480000D01*
G75*
G02*
X40068000Y-87330000I150000J0D01*
G01*
X41818000Y-87330000D01*
G75*
G02*
X41968000Y-87480000I0J-150000D01*
G01*
G37*
G36*
G01*
X41968000Y-88750000D02*
X41968000Y-89050000D01*
G75*
G02*
X41818000Y-89200000I-150000J0D01*
G01*
X40068000Y-89200000D01*
G75*
G02*
X39918000Y-89050000I0J150000D01*
G01*
X39918000Y-88750000D01*
G75*
G02*
X40068000Y-88600000I150000J0D01*
G01*
X41818000Y-88600000D01*
G75*
G02*
X41968000Y-88750000I0J-150000D01*
G01*
G37*
G36*
G01*
X41968000Y-90020000D02*
X41968000Y-90320000D01*
G75*
G02*
X41818000Y-90470000I-150000J0D01*
G01*
X40068000Y-90470000D01*
G75*
G02*
X39918000Y-90320000I0J150000D01*
G01*
X39918000Y-90020000D01*
G75*
G02*
X40068000Y-89870000I150000J0D01*
G01*
X41818000Y-89870000D01*
G75*
G02*
X41968000Y-90020000I0J-150000D01*
G01*
G37*
G36*
G01*
X51268000Y-90020000D02*
X51268000Y-90320000D01*
G75*
G02*
X51118000Y-90470000I-150000J0D01*
G01*
X49368000Y-90470000D01*
G75*
G02*
X49218000Y-90320000I0J150000D01*
G01*
X49218000Y-90020000D01*
G75*
G02*
X49368000Y-89870000I150000J0D01*
G01*
X51118000Y-89870000D01*
G75*
G02*
X51268000Y-90020000I0J-150000D01*
G01*
G37*
G36*
G01*
X51268000Y-88750000D02*
X51268000Y-89050000D01*
G75*
G02*
X51118000Y-89200000I-150000J0D01*
G01*
X49368000Y-89200000D01*
G75*
G02*
X49218000Y-89050000I0J150000D01*
G01*
X49218000Y-88750000D01*
G75*
G02*
X49368000Y-88600000I150000J0D01*
G01*
X51118000Y-88600000D01*
G75*
G02*
X51268000Y-88750000I0J-150000D01*
G01*
G37*
G36*
G01*
X51268000Y-87480000D02*
X51268000Y-87780000D01*
G75*
G02*
X51118000Y-87930000I-150000J0D01*
G01*
X49368000Y-87930000D01*
G75*
G02*
X49218000Y-87780000I0J150000D01*
G01*
X49218000Y-87480000D01*
G75*
G02*
X49368000Y-87330000I150000J0D01*
G01*
X51118000Y-87330000D01*
G75*
G02*
X51268000Y-87480000I0J-150000D01*
G01*
G37*
G36*
G01*
X51268000Y-86210000D02*
X51268000Y-86510000D01*
G75*
G02*
X51118000Y-86660000I-150000J0D01*
G01*
X49368000Y-86660000D01*
G75*
G02*
X49218000Y-86510000I0J150000D01*
G01*
X49218000Y-86210000D01*
G75*
G02*
X49368000Y-86060000I150000J0D01*
G01*
X51118000Y-86060000D01*
G75*
G02*
X51268000Y-86210000I0J-150000D01*
G01*
G37*
G36*
G01*
X51268000Y-84940000D02*
X51268000Y-85240000D01*
G75*
G02*
X51118000Y-85390000I-150000J0D01*
G01*
X49368000Y-85390000D01*
G75*
G02*
X49218000Y-85240000I0J150000D01*
G01*
X49218000Y-84940000D01*
G75*
G02*
X49368000Y-84790000I150000J0D01*
G01*
X51118000Y-84790000D01*
G75*
G02*
X51268000Y-84940000I0J-150000D01*
G01*
G37*
G36*
G01*
X51268000Y-83670000D02*
X51268000Y-83970000D01*
G75*
G02*
X51118000Y-84120000I-150000J0D01*
G01*
X49368000Y-84120000D01*
G75*
G02*
X49218000Y-83970000I0J150000D01*
G01*
X49218000Y-83670000D01*
G75*
G02*
X49368000Y-83520000I150000J0D01*
G01*
X51118000Y-83520000D01*
G75*
G02*
X51268000Y-83670000I0J-150000D01*
G01*
G37*
G36*
G01*
X51268000Y-82400000D02*
X51268000Y-82700000D01*
G75*
G02*
X51118000Y-82850000I-150000J0D01*
G01*
X49368000Y-82850000D01*
G75*
G02*
X49218000Y-82700000I0J150000D01*
G01*
X49218000Y-82400000D01*
G75*
G02*
X49368000Y-82250000I150000J0D01*
G01*
X51118000Y-82250000D01*
G75*
G02*
X51268000Y-82400000I0J-150000D01*
G01*
G37*
G36*
G01*
X51268000Y-81130000D02*
X51268000Y-81430000D01*
G75*
G02*
X51118000Y-81580000I-150000J0D01*
G01*
X49368000Y-81580000D01*
G75*
G02*
X49218000Y-81430000I0J150000D01*
G01*
X49218000Y-81130000D01*
G75*
G02*
X49368000Y-80980000I150000J0D01*
G01*
X51118000Y-80980000D01*
G75*
G02*
X51268000Y-81130000I0J-150000D01*
G01*
G37*
G36*
G01*
X51268000Y-79860000D02*
X51268000Y-80160000D01*
G75*
G02*
X51118000Y-80310000I-150000J0D01*
G01*
X49368000Y-80310000D01*
G75*
G02*
X49218000Y-80160000I0J150000D01*
G01*
X49218000Y-79860000D01*
G75*
G02*
X49368000Y-79710000I150000J0D01*
G01*
X51118000Y-79710000D01*
G75*
G02*
X51268000Y-79860000I0J-150000D01*
G01*
G37*
G36*
G01*
X51268000Y-78590000D02*
X51268000Y-78890000D01*
G75*
G02*
X51118000Y-79040000I-150000J0D01*
G01*
X49368000Y-79040000D01*
G75*
G02*
X49218000Y-78890000I0J150000D01*
G01*
X49218000Y-78590000D01*
G75*
G02*
X49368000Y-78440000I150000J0D01*
G01*
X51118000Y-78440000D01*
G75*
G02*
X51268000Y-78590000I0J-150000D01*
G01*
G37*
G36*
G01*
X51268000Y-77320000D02*
X51268000Y-77620000D01*
G75*
G02*
X51118000Y-77770000I-150000J0D01*
G01*
X49368000Y-77770000D01*
G75*
G02*
X49218000Y-77620000I0J150000D01*
G01*
X49218000Y-77320000D01*
G75*
G02*
X49368000Y-77170000I150000J0D01*
G01*
X51118000Y-77170000D01*
G75*
G02*
X51268000Y-77320000I0J-150000D01*
G01*
G37*
G36*
G01*
X51268000Y-76050000D02*
X51268000Y-76350000D01*
G75*
G02*
X51118000Y-76500000I-150000J0D01*
G01*
X49368000Y-76500000D01*
G75*
G02*
X49218000Y-76350000I0J150000D01*
G01*
X49218000Y-76050000D01*
G75*
G02*
X49368000Y-75900000I150000J0D01*
G01*
X51118000Y-75900000D01*
G75*
G02*
X51268000Y-76050000I0J-150000D01*
G01*
G37*
G36*
G01*
X51268000Y-74780000D02*
X51268000Y-75080000D01*
G75*
G02*
X51118000Y-75230000I-150000J0D01*
G01*
X49368000Y-75230000D01*
G75*
G02*
X49218000Y-75080000I0J150000D01*
G01*
X49218000Y-74780000D01*
G75*
G02*
X49368000Y-74630000I150000J0D01*
G01*
X51118000Y-74630000D01*
G75*
G02*
X51268000Y-74780000I0J-150000D01*
G01*
G37*
G36*
G01*
X51268000Y-73510000D02*
X51268000Y-73810000D01*
G75*
G02*
X51118000Y-73960000I-150000J0D01*
G01*
X49368000Y-73960000D01*
G75*
G02*
X49218000Y-73810000I0J150000D01*
G01*
X49218000Y-73510000D01*
G75*
G02*
X49368000Y-73360000I150000J0D01*
G01*
X51118000Y-73360000D01*
G75*
G02*
X51268000Y-73510000I0J-150000D01*
G01*
G37*
%TD*%
D18*
%TO.C,TP5*%
X22987000Y-101473000D03*
%TD*%
%TO.C,TP4*%
X18669000Y-29845000D03*
%TD*%
D19*
%TO.C,TP3*%
X80168750Y-19050960D03*
%TD*%
%TO.C,TP1*%
X55562500Y-20638540D03*
%TD*%
D18*
%TO.C,TP2*%
X19050000Y-19050960D03*
%TD*%
D20*
%TO.C,SW1*%
X68990000Y-21082000D03*
X75790000Y-21082000D03*
D21*
X69890000Y-18332000D03*
X72390000Y-18332000D03*
X74890000Y-18332000D03*
%TD*%
%TO.C,R7*%
G36*
G01*
X174517000Y-95065001D02*
X174517000Y-94164999D01*
G75*
G02*
X174766999Y-93915000I249999J0D01*
G01*
X175292001Y-93915000D01*
G75*
G02*
X175542000Y-94164999I0J-249999D01*
G01*
X175542000Y-95065001D01*
G75*
G02*
X175292001Y-95315000I-249999J0D01*
G01*
X174766999Y-95315000D01*
G75*
G02*
X174517000Y-95065001I0J249999D01*
G01*
G37*
G36*
G01*
X172692000Y-95065001D02*
X172692000Y-94164999D01*
G75*
G02*
X172941999Y-93915000I249999J0D01*
G01*
X173467001Y-93915000D01*
G75*
G02*
X173717000Y-94164999I0J-249999D01*
G01*
X173717000Y-95065001D01*
G75*
G02*
X173467001Y-95315000I-249999J0D01*
G01*
X172941999Y-95315000D01*
G75*
G02*
X172692000Y-95065001I0J249999D01*
G01*
G37*
%TD*%
%TO.C,R6*%
G36*
G01*
X164903999Y-57740500D02*
X165804001Y-57740500D01*
G75*
G02*
X166054000Y-57990499I0J-249999D01*
G01*
X166054000Y-58515501D01*
G75*
G02*
X165804001Y-58765500I-249999J0D01*
G01*
X164903999Y-58765500D01*
G75*
G02*
X164654000Y-58515501I0J249999D01*
G01*
X164654000Y-57990499D01*
G75*
G02*
X164903999Y-57740500I249999J0D01*
G01*
G37*
G36*
G01*
X164903999Y-55915500D02*
X165804001Y-55915500D01*
G75*
G02*
X166054000Y-56165499I0J-249999D01*
G01*
X166054000Y-56690501D01*
G75*
G02*
X165804001Y-56940500I-249999J0D01*
G01*
X164903999Y-56940500D01*
G75*
G02*
X164654000Y-56690501I0J249999D01*
G01*
X164654000Y-56165499D01*
G75*
G02*
X164903999Y-55915500I249999J0D01*
G01*
G37*
%TD*%
%TO.C,R5*%
G36*
G01*
X125025999Y-33754000D02*
X125926001Y-33754000D01*
G75*
G02*
X126176000Y-34003999I0J-249999D01*
G01*
X126176000Y-34529001D01*
G75*
G02*
X125926001Y-34779000I-249999J0D01*
G01*
X125025999Y-34779000D01*
G75*
G02*
X124776000Y-34529001I0J249999D01*
G01*
X124776000Y-34003999D01*
G75*
G02*
X125025999Y-33754000I249999J0D01*
G01*
G37*
G36*
G01*
X125025999Y-35579000D02*
X125926001Y-35579000D01*
G75*
G02*
X126176000Y-35828999I0J-249999D01*
G01*
X126176000Y-36354001D01*
G75*
G02*
X125926001Y-36604000I-249999J0D01*
G01*
X125025999Y-36604000D01*
G75*
G02*
X124776000Y-36354001I0J249999D01*
G01*
X124776000Y-35828999D01*
G75*
G02*
X125025999Y-35579000I249999J0D01*
G01*
G37*
%TD*%
%TO.C,R4*%
G36*
G01*
X130232999Y-35579000D02*
X131133001Y-35579000D01*
G75*
G02*
X131383000Y-35828999I0J-249999D01*
G01*
X131383000Y-36354001D01*
G75*
G02*
X131133001Y-36604000I-249999J0D01*
G01*
X130232999Y-36604000D01*
G75*
G02*
X129983000Y-36354001I0J249999D01*
G01*
X129983000Y-35828999D01*
G75*
G02*
X130232999Y-35579000I249999J0D01*
G01*
G37*
G36*
G01*
X130232999Y-33754000D02*
X131133001Y-33754000D01*
G75*
G02*
X131383000Y-34003999I0J-249999D01*
G01*
X131383000Y-34529001D01*
G75*
G02*
X131133001Y-34779000I-249999J0D01*
G01*
X130232999Y-34779000D01*
G75*
G02*
X129983000Y-34529001I0J249999D01*
G01*
X129983000Y-34003999D01*
G75*
G02*
X130232999Y-33754000I249999J0D01*
G01*
G37*
%TD*%
%TO.C,R3*%
G36*
G01*
X128593001Y-34779000D02*
X127692999Y-34779000D01*
G75*
G02*
X127443000Y-34529001I0J249999D01*
G01*
X127443000Y-34003999D01*
G75*
G02*
X127692999Y-33754000I249999J0D01*
G01*
X128593001Y-33754000D01*
G75*
G02*
X128843000Y-34003999I0J-249999D01*
G01*
X128843000Y-34529001D01*
G75*
G02*
X128593001Y-34779000I-249999J0D01*
G01*
G37*
G36*
G01*
X128593001Y-36604000D02*
X127692999Y-36604000D01*
G75*
G02*
X127443000Y-36354001I0J249999D01*
G01*
X127443000Y-35828999D01*
G75*
G02*
X127692999Y-35579000I249999J0D01*
G01*
X128593001Y-35579000D01*
G75*
G02*
X128843000Y-35828999I0J-249999D01*
G01*
X128843000Y-36354001D01*
G75*
G02*
X128593001Y-36604000I-249999J0D01*
G01*
G37*
%TD*%
%TO.C,R2*%
G36*
G01*
X133673001Y-34779000D02*
X132772999Y-34779000D01*
G75*
G02*
X132523000Y-34529001I0J249999D01*
G01*
X132523000Y-34003999D01*
G75*
G02*
X132772999Y-33754000I249999J0D01*
G01*
X133673001Y-33754000D01*
G75*
G02*
X133923000Y-34003999I0J-249999D01*
G01*
X133923000Y-34529001D01*
G75*
G02*
X133673001Y-34779000I-249999J0D01*
G01*
G37*
G36*
G01*
X133673001Y-36604000D02*
X132772999Y-36604000D01*
G75*
G02*
X132523000Y-36354001I0J249999D01*
G01*
X132523000Y-35828999D01*
G75*
G02*
X132772999Y-35579000I249999J0D01*
G01*
X133673001Y-35579000D01*
G75*
G02*
X133923000Y-35828999I0J-249999D01*
G01*
X133923000Y-36354001D01*
G75*
G02*
X133673001Y-36604000I-249999J0D01*
G01*
G37*
%TD*%
%TO.C,R1*%
G36*
G01*
X136213001Y-34779000D02*
X135312999Y-34779000D01*
G75*
G02*
X135063000Y-34529001I0J249999D01*
G01*
X135063000Y-34003999D01*
G75*
G02*
X135312999Y-33754000I249999J0D01*
G01*
X136213001Y-33754000D01*
G75*
G02*
X136463000Y-34003999I0J-249999D01*
G01*
X136463000Y-34529001D01*
G75*
G02*
X136213001Y-34779000I-249999J0D01*
G01*
G37*
G36*
G01*
X136213001Y-36604000D02*
X135312999Y-36604000D01*
G75*
G02*
X135063000Y-36354001I0J249999D01*
G01*
X135063000Y-35828999D01*
G75*
G02*
X135312999Y-35579000I249999J0D01*
G01*
X136213001Y-35579000D01*
G75*
G02*
X136463000Y-35828999I0J-249999D01*
G01*
X136463000Y-36354001D01*
G75*
G02*
X136213001Y-36604000I-249999J0D01*
G01*
G37*
%TD*%
D22*
%TO.C,JP3*%
G36*
X21451000Y-90793000D02*
G01*
X21451000Y-91343000D01*
X21450398Y-91343000D01*
X21450398Y-91367534D01*
X21445588Y-91416365D01*
X21436016Y-91464490D01*
X21421772Y-91511445D01*
X21402995Y-91556778D01*
X21379864Y-91600051D01*
X21352604Y-91640850D01*
X21321476Y-91678779D01*
X21286779Y-91713476D01*
X21248850Y-91744604D01*
X21208051Y-91771864D01*
X21164778Y-91794995D01*
X21119445Y-91813772D01*
X21072490Y-91828016D01*
X21024365Y-91837588D01*
X20975534Y-91842398D01*
X20951000Y-91842398D01*
X20951000Y-91843000D01*
X20451000Y-91843000D01*
X20451000Y-91842398D01*
X20426466Y-91842398D01*
X20377635Y-91837588D01*
X20329510Y-91828016D01*
X20282555Y-91813772D01*
X20237222Y-91794995D01*
X20193949Y-91771864D01*
X20153150Y-91744604D01*
X20115221Y-91713476D01*
X20080524Y-91678779D01*
X20049396Y-91640850D01*
X20022136Y-91600051D01*
X19999005Y-91556778D01*
X19980228Y-91511445D01*
X19965984Y-91464490D01*
X19956412Y-91416365D01*
X19951602Y-91367534D01*
X19951602Y-91343000D01*
X19951000Y-91343000D01*
X19951000Y-90793000D01*
X21451000Y-90793000D01*
G37*
D23*
X20701000Y-90043000D03*
D22*
G36*
X19951602Y-88743000D02*
G01*
X19951602Y-88718466D01*
X19956412Y-88669635D01*
X19965984Y-88621510D01*
X19980228Y-88574555D01*
X19999005Y-88529222D01*
X20022136Y-88485949D01*
X20049396Y-88445150D01*
X20080524Y-88407221D01*
X20115221Y-88372524D01*
X20153150Y-88341396D01*
X20193949Y-88314136D01*
X20237222Y-88291005D01*
X20282555Y-88272228D01*
X20329510Y-88257984D01*
X20377635Y-88248412D01*
X20426466Y-88243602D01*
X20451000Y-88243602D01*
X20451000Y-88243000D01*
X20951000Y-88243000D01*
X20951000Y-88243602D01*
X20975534Y-88243602D01*
X21024365Y-88248412D01*
X21072490Y-88257984D01*
X21119445Y-88272228D01*
X21164778Y-88291005D01*
X21208051Y-88314136D01*
X21248850Y-88341396D01*
X21286779Y-88372524D01*
X21321476Y-88407221D01*
X21352604Y-88445150D01*
X21379864Y-88485949D01*
X21402995Y-88529222D01*
X21421772Y-88574555D01*
X21436016Y-88621510D01*
X21445588Y-88669635D01*
X21450398Y-88718466D01*
X21450398Y-88743000D01*
X21451000Y-88743000D01*
X21451000Y-89293000D01*
X19951000Y-89293000D01*
X19951000Y-88743000D01*
X19951602Y-88743000D01*
G37*
%TD*%
%TO.C,JP2*%
G36*
X19951602Y-84044000D02*
G01*
X19951602Y-84019466D01*
X19956412Y-83970635D01*
X19965984Y-83922510D01*
X19980228Y-83875555D01*
X19999005Y-83830222D01*
X20022136Y-83786949D01*
X20049396Y-83746150D01*
X20080524Y-83708221D01*
X20115221Y-83673524D01*
X20153150Y-83642396D01*
X20193949Y-83615136D01*
X20237222Y-83592005D01*
X20282555Y-83573228D01*
X20329510Y-83558984D01*
X20377635Y-83549412D01*
X20426466Y-83544602D01*
X20451000Y-83544602D01*
X20451000Y-83544000D01*
X20951000Y-83544000D01*
X20951000Y-83544602D01*
X20975534Y-83544602D01*
X21024365Y-83549412D01*
X21072490Y-83558984D01*
X21119445Y-83573228D01*
X21164778Y-83592005D01*
X21208051Y-83615136D01*
X21248850Y-83642396D01*
X21286779Y-83673524D01*
X21321476Y-83708221D01*
X21352604Y-83746150D01*
X21379864Y-83786949D01*
X21402995Y-83830222D01*
X21421772Y-83875555D01*
X21436016Y-83922510D01*
X21445588Y-83970635D01*
X21450398Y-84019466D01*
X21450398Y-84044000D01*
X21451000Y-84044000D01*
X21451000Y-84594000D01*
X19951000Y-84594000D01*
X19951000Y-84044000D01*
X19951602Y-84044000D01*
G37*
D23*
X20701000Y-85344000D03*
D22*
G36*
X21451000Y-86094000D02*
G01*
X21451000Y-86644000D01*
X21450398Y-86644000D01*
X21450398Y-86668534D01*
X21445588Y-86717365D01*
X21436016Y-86765490D01*
X21421772Y-86812445D01*
X21402995Y-86857778D01*
X21379864Y-86901051D01*
X21352604Y-86941850D01*
X21321476Y-86979779D01*
X21286779Y-87014476D01*
X21248850Y-87045604D01*
X21208051Y-87072864D01*
X21164778Y-87095995D01*
X21119445Y-87114772D01*
X21072490Y-87129016D01*
X21024365Y-87138588D01*
X20975534Y-87143398D01*
X20951000Y-87143398D01*
X20951000Y-87144000D01*
X20451000Y-87144000D01*
X20451000Y-87143398D01*
X20426466Y-87143398D01*
X20377635Y-87138588D01*
X20329510Y-87129016D01*
X20282555Y-87114772D01*
X20237222Y-87095995D01*
X20193949Y-87072864D01*
X20153150Y-87045604D01*
X20115221Y-87014476D01*
X20080524Y-86979779D01*
X20049396Y-86941850D01*
X20022136Y-86901051D01*
X19999005Y-86857778D01*
X19980228Y-86812445D01*
X19965984Y-86765490D01*
X19956412Y-86717365D01*
X19951602Y-86668534D01*
X19951602Y-86644000D01*
X19951000Y-86644000D01*
X19951000Y-86094000D01*
X21451000Y-86094000D01*
G37*
%TD*%
%TO.C,JP1*%
G36*
X21451000Y-81395000D02*
G01*
X21451000Y-81945000D01*
X21450398Y-81945000D01*
X21450398Y-81969534D01*
X21445588Y-82018365D01*
X21436016Y-82066490D01*
X21421772Y-82113445D01*
X21402995Y-82158778D01*
X21379864Y-82202051D01*
X21352604Y-82242850D01*
X21321476Y-82280779D01*
X21286779Y-82315476D01*
X21248850Y-82346604D01*
X21208051Y-82373864D01*
X21164778Y-82396995D01*
X21119445Y-82415772D01*
X21072490Y-82430016D01*
X21024365Y-82439588D01*
X20975534Y-82444398D01*
X20951000Y-82444398D01*
X20951000Y-82445000D01*
X20451000Y-82445000D01*
X20451000Y-82444398D01*
X20426466Y-82444398D01*
X20377635Y-82439588D01*
X20329510Y-82430016D01*
X20282555Y-82415772D01*
X20237222Y-82396995D01*
X20193949Y-82373864D01*
X20153150Y-82346604D01*
X20115221Y-82315476D01*
X20080524Y-82280779D01*
X20049396Y-82242850D01*
X20022136Y-82202051D01*
X19999005Y-82158778D01*
X19980228Y-82113445D01*
X19965984Y-82066490D01*
X19956412Y-82018365D01*
X19951602Y-81969534D01*
X19951602Y-81945000D01*
X19951000Y-81945000D01*
X19951000Y-81395000D01*
X21451000Y-81395000D01*
G37*
D23*
X20701000Y-80645000D03*
D22*
G36*
X19951602Y-79345000D02*
G01*
X19951602Y-79320466D01*
X19956412Y-79271635D01*
X19965984Y-79223510D01*
X19980228Y-79176555D01*
X19999005Y-79131222D01*
X20022136Y-79087949D01*
X20049396Y-79047150D01*
X20080524Y-79009221D01*
X20115221Y-78974524D01*
X20153150Y-78943396D01*
X20193949Y-78916136D01*
X20237222Y-78893005D01*
X20282555Y-78874228D01*
X20329510Y-78859984D01*
X20377635Y-78850412D01*
X20426466Y-78845602D01*
X20451000Y-78845602D01*
X20451000Y-78845000D01*
X20951000Y-78845000D01*
X20951000Y-78845602D01*
X20975534Y-78845602D01*
X21024365Y-78850412D01*
X21072490Y-78859984D01*
X21119445Y-78874228D01*
X21164778Y-78893005D01*
X21208051Y-78916136D01*
X21248850Y-78943396D01*
X21286779Y-78974524D01*
X21321476Y-79009221D01*
X21352604Y-79047150D01*
X21379864Y-79087949D01*
X21402995Y-79131222D01*
X21421772Y-79176555D01*
X21436016Y-79223510D01*
X21445588Y-79271635D01*
X21450398Y-79320466D01*
X21450398Y-79345000D01*
X21451000Y-79345000D01*
X21451000Y-79895000D01*
X19951000Y-79895000D01*
X19951000Y-79345000D01*
X19951602Y-79345000D01*
G37*
%TD*%
D24*
%TO.C,D83*%
X297656250Y-115037130D03*
X297656250Y-118337130D03*
%TD*%
%TO.C,D82*%
X278606250Y-115037130D03*
X278606250Y-118337130D03*
%TD*%
%TO.C,D81*%
X259556250Y-115037130D03*
X259556250Y-118337130D03*
%TD*%
%TO.C,D80*%
X240506250Y-115037130D03*
X240506250Y-118337130D03*
%TD*%
%TO.C,D79*%
X221456250Y-115037130D03*
X221456250Y-118337130D03*
%TD*%
%TO.C,D78*%
X202406250Y-115037130D03*
X202406250Y-118337130D03*
%TD*%
%TO.C,D77*%
X173831250Y-115037130D03*
X173831250Y-118337130D03*
%TD*%
%TO.C,D76*%
X142875000Y-115037130D03*
X142875000Y-118337130D03*
%TD*%
%TO.C,D75*%
X111918750Y-115037130D03*
X111918750Y-118337130D03*
%TD*%
%TO.C,D74*%
X80962500Y-115037130D03*
X80962500Y-118337130D03*
%TD*%
%TO.C,D73*%
X57150000Y-115037130D03*
X57150000Y-118337130D03*
%TD*%
%TO.C,D72*%
X33337500Y-118337130D03*
X33337500Y-115037130D03*
%TD*%
%TO.C,D71*%
X297656250Y-95986170D03*
X297656250Y-99286170D03*
%TD*%
%TO.C,D70*%
X278606250Y-95986170D03*
X278606250Y-99286170D03*
%TD*%
%TO.C,D69*%
X259556250Y-95986170D03*
X259556250Y-99286170D03*
%TD*%
%TO.C,D68*%
X240506250Y-95986170D03*
X240506250Y-99286170D03*
%TD*%
%TO.C,D67*%
X221456250Y-95986170D03*
X221456250Y-99286170D03*
%TD*%
%TO.C,D66*%
X202406250Y-95986170D03*
X202406250Y-99286170D03*
%TD*%
%TO.C,D65*%
X183261000Y-96521000D03*
X183261000Y-99821000D03*
%TD*%
%TO.C,D64*%
X157956250Y-98492380D03*
X157956250Y-95192380D03*
%TD*%
%TO.C,D63*%
X145256250Y-95986170D03*
X145256250Y-99286170D03*
%TD*%
%TO.C,D62*%
X126206250Y-99286170D03*
X126206250Y-95986170D03*
%TD*%
%TO.C,D61*%
X107156250Y-95986170D03*
X107156250Y-99286170D03*
%TD*%
%TO.C,D60*%
X88106250Y-95986170D03*
X88106250Y-99286170D03*
%TD*%
%TO.C,D59*%
X69056250Y-95986170D03*
X69056250Y-99286170D03*
%TD*%
%TO.C,D58*%
X40481250Y-95986170D03*
X40481250Y-99286170D03*
%TD*%
%TO.C,D57*%
X285750000Y-76935210D03*
X285750000Y-80235210D03*
%TD*%
%TO.C,D56*%
X254793750Y-76935210D03*
X254793750Y-80235210D03*
%TD*%
%TO.C,D55*%
X235743750Y-76935210D03*
X235743750Y-80235210D03*
%TD*%
%TO.C,D54*%
X216693750Y-76935210D03*
X216693750Y-80235210D03*
%TD*%
%TO.C,D53*%
X197643750Y-76935210D03*
X197643750Y-80235210D03*
%TD*%
%TO.C,D52*%
X178593750Y-76935210D03*
X178593750Y-80235210D03*
%TD*%
%TO.C,D51*%
X153193750Y-76141420D03*
X153193750Y-79441420D03*
%TD*%
%TO.C,D50*%
X140493750Y-76935210D03*
X140493750Y-80235210D03*
%TD*%
%TO.C,D49*%
X121443750Y-76935210D03*
X121443750Y-80235210D03*
%TD*%
%TO.C,D48*%
X102393750Y-80235210D03*
X102393750Y-76935210D03*
%TD*%
%TO.C,D47*%
X83343750Y-76935210D03*
X83343750Y-80235210D03*
%TD*%
%TO.C,D46*%
X64293750Y-76935210D03*
X64293750Y-80235210D03*
%TD*%
%TO.C,D45*%
X38100000Y-77853840D03*
X38100000Y-74553840D03*
%TD*%
%TO.C,D44*%
X292893750Y-57884250D03*
X292893750Y-61184250D03*
%TD*%
%TO.C,D43*%
X269081250Y-57884250D03*
X269081250Y-61184250D03*
%TD*%
%TO.C,D42*%
X250031250Y-61184250D03*
X250031250Y-57884250D03*
%TD*%
%TO.C,D41*%
X230981250Y-57884250D03*
X230981250Y-61184250D03*
%TD*%
%TO.C,D40*%
X211931250Y-57884250D03*
X211931250Y-61184250D03*
%TD*%
%TO.C,D39*%
X192881250Y-57884250D03*
X192881250Y-61184250D03*
%TD*%
%TO.C,D38*%
X178435000Y-59056000D03*
X178435000Y-62356000D03*
%TD*%
D25*
%TO.C,D37*%
X149287500Y-57946670D03*
X145987500Y-57946670D03*
%TD*%
D24*
%TO.C,D36*%
X135731250Y-57884250D03*
X135731250Y-61184250D03*
%TD*%
%TO.C,D35*%
X116681250Y-57884250D03*
X116681250Y-61184250D03*
%TD*%
%TO.C,D34*%
X97631250Y-57884250D03*
X97631250Y-61184250D03*
%TD*%
%TO.C,D33*%
X78581250Y-57884250D03*
X78581250Y-61184250D03*
%TD*%
%TO.C,D32*%
X59531250Y-61184250D03*
X59531250Y-57884250D03*
%TD*%
%TO.C,D31*%
X35718750Y-57884250D03*
X35718750Y-61184250D03*
%TD*%
%TO.C,D30*%
X297656250Y-38833290D03*
X297656250Y-42133290D03*
%TD*%
%TO.C,D29*%
X278606250Y-38833290D03*
X278606250Y-42133290D03*
%TD*%
%TO.C,D28*%
X259556250Y-42133290D03*
X259556250Y-38833290D03*
%TD*%
%TO.C,D27*%
X240506250Y-38833290D03*
X240506250Y-42133290D03*
%TD*%
%TO.C,D26*%
X221456250Y-38833290D03*
X221456250Y-42133290D03*
%TD*%
%TO.C,D25*%
X202406250Y-38833290D03*
X202406250Y-42133290D03*
%TD*%
%TO.C,D24*%
X183356250Y-38833290D03*
X183356250Y-42133290D03*
%TD*%
%TO.C,D23*%
X164306250Y-38833290D03*
X164306250Y-42133290D03*
%TD*%
%TO.C,D22*%
X145256250Y-38833290D03*
X145256250Y-42133290D03*
%TD*%
D25*
%TO.C,D21*%
X125350000Y-40483290D03*
X128650000Y-40483290D03*
%TD*%
%TO.C,D20*%
X106300000Y-40483290D03*
X109600000Y-40483290D03*
%TD*%
D24*
%TO.C,D19*%
X88106250Y-38833290D03*
X88106250Y-42133290D03*
%TD*%
%TO.C,D18*%
X69056250Y-38833290D03*
X69056250Y-42133290D03*
%TD*%
%TO.C,D17*%
X50006250Y-38833290D03*
X50006250Y-42133290D03*
%TD*%
%TO.C,D16*%
X30956250Y-38833290D03*
X30956250Y-42133290D03*
%TD*%
%TO.C,D15*%
X297656250Y-19782330D03*
X297656250Y-23082330D03*
%TD*%
%TO.C,D14*%
X278606250Y-19782330D03*
X278606250Y-23082330D03*
%TD*%
%TO.C,D13*%
X259556250Y-19782330D03*
X259556250Y-23082330D03*
%TD*%
%TO.C,D12*%
X240506250Y-19782330D03*
X240506250Y-23082330D03*
%TD*%
%TO.C,D11*%
X221456250Y-19782330D03*
X221456250Y-23082330D03*
%TD*%
%TO.C,D10*%
X202406250Y-19782330D03*
X202406250Y-23082330D03*
%TD*%
%TO.C,D9*%
X183356250Y-19782330D03*
X183356250Y-23082330D03*
%TD*%
%TO.C,D8*%
X164306250Y-19782330D03*
X164306250Y-23082330D03*
%TD*%
%TO.C,D7*%
X145256250Y-19782330D03*
X145256250Y-23082330D03*
%TD*%
%TO.C,D6*%
X126206250Y-19782330D03*
X126206250Y-23082330D03*
%TD*%
%TO.C,D5*%
X107156250Y-19782330D03*
X107156250Y-23082330D03*
%TD*%
%TO.C,D4*%
X88106250Y-19782330D03*
X88106250Y-23082330D03*
%TD*%
D25*
%TO.C,D3*%
X63562500Y-19844750D03*
X60262500Y-19844750D03*
%TD*%
D24*
%TO.C,D2*%
X50006250Y-19782330D03*
X50006250Y-23082330D03*
%TD*%
%TO.C,D1*%
X30956250Y-19782330D03*
X30956250Y-23082330D03*
%TD*%
%TO.C,C17*%
G36*
G01*
X183523000Y-95090000D02*
X183523000Y-94140000D01*
G75*
G02*
X183773000Y-93890000I250000J0D01*
G01*
X184273000Y-93890000D01*
G75*
G02*
X184523000Y-94140000I0J-250000D01*
G01*
X184523000Y-95090000D01*
G75*
G02*
X184273000Y-95340000I-250000J0D01*
G01*
X183773000Y-95340000D01*
G75*
G02*
X183523000Y-95090000I0J250000D01*
G01*
G37*
G36*
G01*
X181623000Y-95090000D02*
X181623000Y-94140000D01*
G75*
G02*
X181873000Y-93890000I250000J0D01*
G01*
X182373000Y-93890000D01*
G75*
G02*
X182623000Y-94140000I0J-250000D01*
G01*
X182623000Y-95090000D01*
G75*
G02*
X182373000Y-95340000I-250000J0D01*
G01*
X181873000Y-95340000D01*
G75*
G02*
X181623000Y-95090000I0J250000D01*
G01*
G37*
%TD*%
%TO.C,C16*%
G36*
G01*
X180119000Y-89350000D02*
X181069000Y-89350000D01*
G75*
G02*
X181319000Y-89600000I0J-250000D01*
G01*
X181319000Y-90100000D01*
G75*
G02*
X181069000Y-90350000I-250000J0D01*
G01*
X180119000Y-90350000D01*
G75*
G02*
X179869000Y-90100000I0J250000D01*
G01*
X179869000Y-89600000D01*
G75*
G02*
X180119000Y-89350000I250000J0D01*
G01*
G37*
G36*
G01*
X180119000Y-87450000D02*
X181069000Y-87450000D01*
G75*
G02*
X181319000Y-87700000I0J-250000D01*
G01*
X181319000Y-88200000D01*
G75*
G02*
X181069000Y-88450000I-250000J0D01*
G01*
X180119000Y-88450000D01*
G75*
G02*
X179869000Y-88200000I0J250000D01*
G01*
X179869000Y-87700000D01*
G75*
G02*
X180119000Y-87450000I250000J0D01*
G01*
G37*
%TD*%
%TO.C,C15*%
G36*
G01*
X163863000Y-89477000D02*
X164813000Y-89477000D01*
G75*
G02*
X165063000Y-89727000I0J-250000D01*
G01*
X165063000Y-90227000D01*
G75*
G02*
X164813000Y-90477000I-250000J0D01*
G01*
X163863000Y-90477000D01*
G75*
G02*
X163613000Y-90227000I0J250000D01*
G01*
X163613000Y-89727000D01*
G75*
G02*
X163863000Y-89477000I250000J0D01*
G01*
G37*
G36*
G01*
X163863000Y-87577000D02*
X164813000Y-87577000D01*
G75*
G02*
X165063000Y-87827000I0J-250000D01*
G01*
X165063000Y-88327000D01*
G75*
G02*
X164813000Y-88577000I-250000J0D01*
G01*
X163863000Y-88577000D01*
G75*
G02*
X163613000Y-88327000I0J250000D01*
G01*
X163613000Y-87827000D01*
G75*
G02*
X163863000Y-87577000I250000J0D01*
G01*
G37*
%TD*%
%TO.C,C14*%
G36*
G01*
X177615000Y-97503000D02*
X177615000Y-96553000D01*
G75*
G02*
X177865000Y-96303000I250000J0D01*
G01*
X178365000Y-96303000D01*
G75*
G02*
X178615000Y-96553000I0J-250000D01*
G01*
X178615000Y-97503000D01*
G75*
G02*
X178365000Y-97753000I-250000J0D01*
G01*
X177865000Y-97753000D01*
G75*
G02*
X177615000Y-97503000I0J250000D01*
G01*
G37*
G36*
G01*
X175715000Y-97503000D02*
X175715000Y-96553000D01*
G75*
G02*
X175965000Y-96303000I250000J0D01*
G01*
X176465000Y-96303000D01*
G75*
G02*
X176715000Y-96553000I0J-250000D01*
G01*
X176715000Y-97503000D01*
G75*
G02*
X176465000Y-97753000I-250000J0D01*
G01*
X175965000Y-97753000D01*
G75*
G02*
X175715000Y-97503000I0J250000D01*
G01*
G37*
%TD*%
%TO.C,C13*%
G36*
G01*
X182405000Y-89350000D02*
X183355000Y-89350000D01*
G75*
G02*
X183605000Y-89600000I0J-250000D01*
G01*
X183605000Y-90100000D01*
G75*
G02*
X183355000Y-90350000I-250000J0D01*
G01*
X182405000Y-90350000D01*
G75*
G02*
X182155000Y-90100000I0J250000D01*
G01*
X182155000Y-89600000D01*
G75*
G02*
X182405000Y-89350000I250000J0D01*
G01*
G37*
G36*
G01*
X182405000Y-87450000D02*
X183355000Y-87450000D01*
G75*
G02*
X183605000Y-87700000I0J-250000D01*
G01*
X183605000Y-88200000D01*
G75*
G02*
X183355000Y-88450000I-250000J0D01*
G01*
X182405000Y-88450000D01*
G75*
G02*
X182155000Y-88200000I0J250000D01*
G01*
X182155000Y-87700000D01*
G75*
G02*
X182405000Y-87450000I250000J0D01*
G01*
G37*
%TD*%
%TO.C,C12*%
G36*
G01*
X161577000Y-89477000D02*
X162527000Y-89477000D01*
G75*
G02*
X162777000Y-89727000I0J-250000D01*
G01*
X162777000Y-90227000D01*
G75*
G02*
X162527000Y-90477000I-250000J0D01*
G01*
X161577000Y-90477000D01*
G75*
G02*
X161327000Y-90227000I0J250000D01*
G01*
X161327000Y-89727000D01*
G75*
G02*
X161577000Y-89477000I250000J0D01*
G01*
G37*
G36*
G01*
X161577000Y-87577000D02*
X162527000Y-87577000D01*
G75*
G02*
X162777000Y-87827000I0J-250000D01*
G01*
X162777000Y-88327000D01*
G75*
G02*
X162527000Y-88577000I-250000J0D01*
G01*
X161577000Y-88577000D01*
G75*
G02*
X161327000Y-88327000I0J250000D01*
G01*
X161327000Y-87827000D01*
G75*
G02*
X161577000Y-87577000I250000J0D01*
G01*
G37*
%TD*%
%TO.C,C11*%
G36*
G01*
X176096000Y-95344000D02*
X176096000Y-94394000D01*
G75*
G02*
X176346000Y-94144000I250000J0D01*
G01*
X176846000Y-94144000D01*
G75*
G02*
X177096000Y-94394000I0J-250000D01*
G01*
X177096000Y-95344000D01*
G75*
G02*
X176846000Y-95594000I-250000J0D01*
G01*
X176346000Y-95594000D01*
G75*
G02*
X176096000Y-95344000I0J250000D01*
G01*
G37*
G36*
G01*
X177996000Y-95344000D02*
X177996000Y-94394000D01*
G75*
G02*
X178246000Y-94144000I250000J0D01*
G01*
X178746000Y-94144000D01*
G75*
G02*
X178996000Y-94394000I0J-250000D01*
G01*
X178996000Y-95344000D01*
G75*
G02*
X178746000Y-95594000I-250000J0D01*
G01*
X178246000Y-95594000D01*
G75*
G02*
X177996000Y-95344000I0J250000D01*
G01*
G37*
%TD*%
%TO.C,C10*%
G36*
G01*
X160901000Y-84107000D02*
X160901000Y-85057000D01*
G75*
G02*
X160651000Y-85307000I-250000J0D01*
G01*
X160151000Y-85307000D01*
G75*
G02*
X159901000Y-85057000I0J250000D01*
G01*
X159901000Y-84107000D01*
G75*
G02*
X160151000Y-83857000I250000J0D01*
G01*
X160651000Y-83857000D01*
G75*
G02*
X160901000Y-84107000I0J-250000D01*
G01*
G37*
G36*
G01*
X162801000Y-84107000D02*
X162801000Y-85057000D01*
G75*
G02*
X162551000Y-85307000I-250000J0D01*
G01*
X162051000Y-85307000D01*
G75*
G02*
X161801000Y-85057000I0J250000D01*
G01*
X161801000Y-84107000D01*
G75*
G02*
X162051000Y-83857000I250000J0D01*
G01*
X162551000Y-83857000D01*
G75*
G02*
X162801000Y-84107000I0J-250000D01*
G01*
G37*
%TD*%
%TO.C,C9*%
G36*
G01*
X170274000Y-50604000D02*
X169324000Y-50604000D01*
G75*
G02*
X169074000Y-50354000I0J250000D01*
G01*
X169074000Y-49854000D01*
G75*
G02*
X169324000Y-49604000I250000J0D01*
G01*
X170274000Y-49604000D01*
G75*
G02*
X170524000Y-49854000I0J-250000D01*
G01*
X170524000Y-50354000D01*
G75*
G02*
X170274000Y-50604000I-250000J0D01*
G01*
G37*
G36*
G01*
X170274000Y-52504000D02*
X169324000Y-52504000D01*
G75*
G02*
X169074000Y-52254000I0J250000D01*
G01*
X169074000Y-51754000D01*
G75*
G02*
X169324000Y-51504000I250000J0D01*
G01*
X170274000Y-51504000D01*
G75*
G02*
X170524000Y-51754000I0J-250000D01*
G01*
X170524000Y-52254000D01*
G75*
G02*
X170274000Y-52504000I-250000J0D01*
G01*
G37*
%TD*%
%TO.C,C8*%
G36*
G01*
X164752000Y-51504000D02*
X165702000Y-51504000D01*
G75*
G02*
X165952000Y-51754000I0J-250000D01*
G01*
X165952000Y-52254000D01*
G75*
G02*
X165702000Y-52504000I-250000J0D01*
G01*
X164752000Y-52504000D01*
G75*
G02*
X164502000Y-52254000I0J250000D01*
G01*
X164502000Y-51754000D01*
G75*
G02*
X164752000Y-51504000I250000J0D01*
G01*
G37*
G36*
G01*
X164752000Y-49604000D02*
X165702000Y-49604000D01*
G75*
G02*
X165952000Y-49854000I0J-250000D01*
G01*
X165952000Y-50354000D01*
G75*
G02*
X165702000Y-50604000I-250000J0D01*
G01*
X164752000Y-50604000D01*
G75*
G02*
X164502000Y-50354000I0J250000D01*
G01*
X164502000Y-49854000D01*
G75*
G02*
X164752000Y-49604000I250000J0D01*
G01*
G37*
%TD*%
%TO.C,C7*%
G36*
G01*
X146718000Y-51250000D02*
X147668000Y-51250000D01*
G75*
G02*
X147918000Y-51500000I0J-250000D01*
G01*
X147918000Y-52000000D01*
G75*
G02*
X147668000Y-52250000I-250000J0D01*
G01*
X146718000Y-52250000D01*
G75*
G02*
X146468000Y-52000000I0J250000D01*
G01*
X146468000Y-51500000D01*
G75*
G02*
X146718000Y-51250000I250000J0D01*
G01*
G37*
G36*
G01*
X146718000Y-49350000D02*
X147668000Y-49350000D01*
G75*
G02*
X147918000Y-49600000I0J-250000D01*
G01*
X147918000Y-50100000D01*
G75*
G02*
X147668000Y-50350000I-250000J0D01*
G01*
X146718000Y-50350000D01*
G75*
G02*
X146468000Y-50100000I0J250000D01*
G01*
X146468000Y-49600000D01*
G75*
G02*
X146718000Y-49350000I250000J0D01*
G01*
G37*
%TD*%
%TO.C,C6*%
G36*
G01*
X167228500Y-60076500D02*
X168178500Y-60076500D01*
G75*
G02*
X168428500Y-60326500I0J-250000D01*
G01*
X168428500Y-60826500D01*
G75*
G02*
X168178500Y-61076500I-250000J0D01*
G01*
X167228500Y-61076500D01*
G75*
G02*
X166978500Y-60826500I0J250000D01*
G01*
X166978500Y-60326500D01*
G75*
G02*
X167228500Y-60076500I250000J0D01*
G01*
G37*
G36*
G01*
X167228500Y-58176500D02*
X168178500Y-58176500D01*
G75*
G02*
X168428500Y-58426500I0J-250000D01*
G01*
X168428500Y-58926500D01*
G75*
G02*
X168178500Y-59176500I-250000J0D01*
G01*
X167228500Y-59176500D01*
G75*
G02*
X166978500Y-58926500I0J250000D01*
G01*
X166978500Y-58426500D01*
G75*
G02*
X167228500Y-58176500I250000J0D01*
G01*
G37*
%TD*%
%TO.C,C5*%
G36*
G01*
X167038000Y-51504000D02*
X167988000Y-51504000D01*
G75*
G02*
X168238000Y-51754000I0J-250000D01*
G01*
X168238000Y-52254000D01*
G75*
G02*
X167988000Y-52504000I-250000J0D01*
G01*
X167038000Y-52504000D01*
G75*
G02*
X166788000Y-52254000I0J250000D01*
G01*
X166788000Y-51754000D01*
G75*
G02*
X167038000Y-51504000I250000J0D01*
G01*
G37*
G36*
G01*
X167038000Y-49604000D02*
X167988000Y-49604000D01*
G75*
G02*
X168238000Y-49854000I0J-250000D01*
G01*
X168238000Y-50354000D01*
G75*
G02*
X167988000Y-50604000I-250000J0D01*
G01*
X167038000Y-50604000D01*
G75*
G02*
X166788000Y-50354000I0J250000D01*
G01*
X166788000Y-49854000D01*
G75*
G02*
X167038000Y-49604000I250000J0D01*
G01*
G37*
%TD*%
%TO.C,C4*%
G36*
G01*
X149004000Y-51250000D02*
X149954000Y-51250000D01*
G75*
G02*
X150204000Y-51500000I0J-250000D01*
G01*
X150204000Y-52000000D01*
G75*
G02*
X149954000Y-52250000I-250000J0D01*
G01*
X149004000Y-52250000D01*
G75*
G02*
X148754000Y-52000000I0J250000D01*
G01*
X148754000Y-51500000D01*
G75*
G02*
X149004000Y-51250000I250000J0D01*
G01*
G37*
G36*
G01*
X149004000Y-49350000D02*
X149954000Y-49350000D01*
G75*
G02*
X150204000Y-49600000I0J-250000D01*
G01*
X150204000Y-50100000D01*
G75*
G02*
X149954000Y-50350000I-250000J0D01*
G01*
X149004000Y-50350000D01*
G75*
G02*
X148754000Y-50100000I0J250000D01*
G01*
X148754000Y-49600000D01*
G75*
G02*
X149004000Y-49350000I250000J0D01*
G01*
G37*
%TD*%
%TO.C,C3*%
G36*
G01*
X171315000Y-60612000D02*
X171315000Y-61562000D01*
G75*
G02*
X171065000Y-61812000I-250000J0D01*
G01*
X170565000Y-61812000D01*
G75*
G02*
X170315000Y-61562000I0J250000D01*
G01*
X170315000Y-60612000D01*
G75*
G02*
X170565000Y-60362000I250000J0D01*
G01*
X171065000Y-60362000D01*
G75*
G02*
X171315000Y-60612000I0J-250000D01*
G01*
G37*
G36*
G01*
X173215000Y-60612000D02*
X173215000Y-61562000D01*
G75*
G02*
X172965000Y-61812000I-250000J0D01*
G01*
X172465000Y-61812000D01*
G75*
G02*
X172215000Y-61562000I0J250000D01*
G01*
X172215000Y-60612000D01*
G75*
G02*
X172465000Y-60362000I250000J0D01*
G01*
X172965000Y-60362000D01*
G75*
G02*
X173215000Y-60612000I0J-250000D01*
G01*
G37*
%TD*%
%TO.C,C2*%
G36*
G01*
X175420000Y-62868000D02*
X176370000Y-62868000D01*
G75*
G02*
X176620000Y-63118000I0J-250000D01*
G01*
X176620000Y-63618000D01*
G75*
G02*
X176370000Y-63868000I-250000J0D01*
G01*
X175420000Y-63868000D01*
G75*
G02*
X175170000Y-63618000I0J250000D01*
G01*
X175170000Y-63118000D01*
G75*
G02*
X175420000Y-62868000I250000J0D01*
G01*
G37*
G36*
G01*
X175420000Y-60968000D02*
X176370000Y-60968000D01*
G75*
G02*
X176620000Y-61218000I0J-250000D01*
G01*
X176620000Y-61718000D01*
G75*
G02*
X176370000Y-61968000I-250000J0D01*
G01*
X175420000Y-61968000D01*
G75*
G02*
X175170000Y-61718000I0J250000D01*
G01*
X175170000Y-61218000D01*
G75*
G02*
X175420000Y-60968000I250000J0D01*
G01*
G37*
%TD*%
%TO.C,C1*%
G36*
G01*
X53828927Y-84691322D02*
X54500678Y-85363073D01*
G75*
G02*
X54500678Y-85716627I-176777J-176777D01*
G01*
X54147125Y-86070180D01*
G75*
G02*
X53793571Y-86070180I-176777J176777D01*
G01*
X53121820Y-85398429D01*
G75*
G02*
X53121820Y-85044875I176777J176777D01*
G01*
X53475373Y-84691322D01*
G75*
G02*
X53828927Y-84691322I176777J-176777D01*
G01*
G37*
G36*
G01*
X55172429Y-83347820D02*
X55844180Y-84019571D01*
G75*
G02*
X55844180Y-84373125I-176777J-176777D01*
G01*
X55490627Y-84726678D01*
G75*
G02*
X55137073Y-84726678I-176777J176777D01*
G01*
X54465322Y-84054927D01*
G75*
G02*
X54465322Y-83701373I176777J176777D01*
G01*
X54818875Y-83347820D01*
G75*
G02*
X55172429Y-83347820I176777J-176777D01*
G01*
G37*
%TD*%
M02*
