M48
; DRILL file {KiCad (5.1.10)-1} date 11/24/21 07:14:39
; FORMAT={-:-/ absolute / inch / decimal}
; #@! TF.CreationDate,2021-11-24T07:14:39-05:00
; #@! TF.GenerationSoftware,Kicad,Pcbnew,(5.1.10)-1
; #@! TF.FileFunction,NonPlated,1,2,NPTH
FMAT,2
INCH
T1C0.0354
T2C0.0689
T3C0.1200
T4C0.1570
%
G90
G05
T1
X2.7161Y-0.83
X2.9839Y-0.83
T2
X0.8Y-1.0001
X0.8Y-1.7501
X0.8937Y-4.7502
X0.9875Y-2.5001
X1.0813Y-3.2502
X1.175Y-4.0002
X1.2Y-1.0001
X1.2Y-1.7501
X1.2937Y-4.7502
X1.3875Y-2.5001
X1.4812Y-3.2502
X1.55Y-1.0001
X1.55Y-1.7501
X1.575Y-4.0002
X1.8313Y-4.7502
X1.925Y-2.5001
X1.95Y-1.0001
X1.95Y-1.7501
X2.1125Y-3.2502
X2.2312Y-4.7502
X2.3Y-1.0001
X2.3Y-1.7501
X2.3Y-4.0002
X2.325Y-2.5001
X2.5125Y-3.2502
X2.675Y-2.5001
X2.7Y-1.0001
X2.7Y-1.7501
X2.7Y-4.0002
X2.7687Y-4.7502
X2.8625Y-3.2502
X3.05Y-1.0001
X3.05Y-1.7501
X3.05Y-4.0002
X3.075Y-2.5001
X3.1687Y-4.7502
X3.2625Y-3.2502
X3.425Y-2.5001
X3.45Y-1.0001
X3.45Y-1.7501
X3.45Y-4.0002
X3.6125Y-3.2502
X3.8Y-1.0001
X3.8Y-1.7501
X3.8Y-4.0002
X3.825Y-2.5001
X3.9875Y-4.7502
X4.0125Y-3.2502
X4.175Y-2.5001
X4.2Y-1.0001
X4.2Y-1.7501
X4.2Y-4.0002
X4.3625Y-3.2502
X4.3875Y-4.7502
X4.55Y-1.0001
X4.55Y-1.7501
X4.55Y-4.0002
X4.575Y-2.5001
X4.7625Y-3.2502
X4.925Y-2.5001
X4.95Y-1.0001
X4.95Y-1.7501
X4.95Y-4.0002
X5.1125Y-3.2502
X5.2062Y-4.7502
X5.3Y-1.0001
X5.3Y-1.7501
X5.3Y-4.0002
X5.325Y-2.5001
X5.5125Y-3.2502
X5.6063Y-4.7502
X5.675Y-2.5001
X5.7Y-1.0001
X5.7Y-1.7501
X5.7Y-4.0002
X5.8625Y-3.2502
X6.05Y-1.0001
X6.05Y-1.7501
X6.05Y-4.0002
X6.075Y-2.5001
X6.2625Y-3.2502
X6.425Y-2.5001
X6.425Y-4.7502
X6.45Y-1.0001
X6.45Y-1.7501
X6.45Y-4.0002
X6.6125Y-3.2502
X6.8Y-1.0001
X6.8Y-1.7501
X6.8Y-4.0002
X6.825Y-2.5001
X6.825Y-4.7502
X7.0125Y-3.2502
X7.175Y-2.5001
X7.2Y-1.0001
X7.2Y-1.7501
X7.2Y-4.0002
X7.3625Y-3.2502
X7.55Y-1.0001
X7.55Y-1.7501
X7.55Y-4.0002
X7.55Y-4.7502
X7.575Y-2.5001
X7.7625Y-3.2502
X7.925Y-2.5001
X7.95Y-1.0001
X7.95Y-1.7501
X7.95Y-4.0002
X7.95Y-4.7502
X8.1125Y-3.2502
X8.3Y-1.0001
X8.3Y-1.7501
X8.3Y-4.0002
X8.3Y-4.7502
X8.325Y-2.5001
X8.5125Y-3.2502
X8.675Y-2.5001
X8.7Y-1.0001
X8.7Y-1.7501
X8.7Y-4.0002
X8.7Y-4.7502
X8.8625Y-3.2502
X9.05Y-1.0001
X9.05Y-1.7501
X9.05Y-4.0002
X9.05Y-4.7502
X9.075Y-2.5001
X9.2625Y-3.2502
X9.425Y-2.5001
X9.45Y-1.0001
X9.45Y-1.7501
X9.45Y-4.0002
X9.45Y-4.7502
X9.6125Y-3.2502
X9.8Y-1.0001
X9.8Y-1.7501
X9.8Y-4.0002
X9.8Y-4.7502
X9.825Y-2.5001
X10.0125Y-3.2502
X10.175Y-2.5001
X10.2Y-1.0001
X10.2Y-1.7501
X10.2Y-4.0002
X10.2Y-4.7502
X10.55Y-1.0001
X10.55Y-1.7501
X10.55Y-4.0002
X10.55Y-4.7502
X10.575Y-2.5001
X10.8312Y-3.2502
X10.95Y-1.0001
X10.95Y-1.7501
X10.95Y-4.0002
X10.95Y-4.7502
X11.1125Y-2.5001
X11.2312Y-3.2502
X11.3Y-1.0001
X11.3Y-1.7501
X11.3Y-4.0002
X11.3Y-4.7502
X11.5125Y-2.5001
X11.7Y-1.0001
X11.7Y-1.7501
X11.7Y-4.0002
X11.7Y-4.7502
T3
X0.9062Y-3.7252
X1.8438Y-3.7252
X3.7188Y-5.0252
X4.6562Y-5.0252
X6.1562Y-5.0252
X7.0938Y-5.0252
X10.5625Y-2.9752
X11.5Y-2.9752
T4
X0.9062Y-4.3252
X1.0Y-1.0001
X1.0Y-1.7501
X1.0938Y-4.7502
X1.1875Y-2.5001
X1.2812Y-3.2502
X1.375Y-4.0002
X1.75Y-1.0001
X1.75Y-1.7501
X1.8438Y-4.3252
X2.0312Y-4.7502
X2.125Y-2.5001
X2.3125Y-3.2502
X2.5Y-1.0001
X2.5Y-1.7501
X2.5Y-4.0002
X2.875Y-2.5001
X2.9688Y-4.7502
X3.0625Y-3.2502
X3.25Y-1.0001
X3.25Y-1.7501
X3.25Y-4.0002
X3.625Y-2.5001
X3.7188Y-4.4252
X3.8125Y-3.2502
X4.0Y-1.0001
X4.0Y-1.7501
X4.0Y-4.0002
X4.1875Y-4.7502
X4.375Y-2.5001
X4.5625Y-3.2502
X4.6562Y-4.4252
X4.75Y-1.0001
X4.75Y-1.7501
X4.75Y-4.0002
X5.125Y-2.5001
X5.3125Y-3.2502
X5.4062Y-4.7502
X5.5Y-1.0001
X5.5Y-1.7501
X5.5Y-4.0002
X5.875Y-2.5001
X6.0625Y-3.2502
X6.1562Y-4.4252
X6.25Y-1.0001
X6.25Y-1.7501
X6.25Y-4.0002
X6.625Y-2.5001
X6.625Y-4.7502
X6.8125Y-3.2502
X7.0Y-1.0001
X7.0Y-1.7501
X7.0Y-4.0002
X7.0938Y-4.4252
X7.375Y-2.5001
X7.5625Y-3.2502
X7.75Y-1.0001
X7.75Y-1.7501
X7.75Y-4.0002
X7.75Y-4.7502
X8.125Y-2.5001
X8.3125Y-3.2502
X8.5Y-1.0001
X8.5Y-1.7501
X8.5Y-4.0002
X8.5Y-4.7502
X8.875Y-2.5001
X9.0625Y-3.2502
X9.25Y-1.0001
X9.25Y-1.7501
X9.25Y-4.0002
X9.25Y-4.7502
X9.625Y-2.5001
X9.8125Y-3.2502
X10.0Y-1.0001
X10.0Y-1.7501
X10.0Y-4.0002
X10.0Y-4.7502
X10.375Y-2.5001
X10.5625Y-3.5752
X10.75Y-1.0001
X10.75Y-1.7501
X10.75Y-4.0002
X10.75Y-4.7502
X11.0312Y-3.2502
X11.3125Y-2.5001
X11.5Y-1.0001
X11.5Y-1.7501
X11.5Y-3.5752
X11.5Y-4.0002
X11.5Y-4.7502
T0
M30
