M48
; DRILL file {KiCad (5.1.10)-1} date 11/24/21 07:14:39
; FORMAT={-:-/ absolute / inch / decimal}
; #@! TF.CreationDate,2021-11-24T07:14:39-05:00
; #@! TF.GenerationSoftware,Kicad,Pcbnew,(5.1.10)-1
; #@! TF.FileFunction,Plated,1,2,PTH
FMAT,2
INCH
T1C0.0118
T2C0.0157
T3C0.0394
T4C0.0579
T5C0.0630
T6C0.0787
%
G90
G05
T1
X0.8543Y-1.1893
X0.8543Y-1.9393
X0.855Y-1.25
X0.855Y-2.0
X0.9Y-3.31
X0.9Y-3.41
X0.9Y-3.595
X0.9493Y-4.9393
X0.95Y-5.0
X1.025Y-2.17
X1.0443Y-2.6893
X1.045Y-2.75
X1.1343Y-3.4393
X1.135Y-3.5
X1.145Y-1.19
X1.145Y-1.94
X1.2293Y-4.1893
X1.23Y-4.25
X1.24Y-4.94
X1.2797Y-3.6447
X1.335Y-2.69
X1.425Y-3.5
X1.425Y-3.61
X1.51Y-1.825
X1.52Y-4.19
X1.5335Y-1.8598
X1.535Y-3.475
X1.6043Y-1.1893
X1.6043Y-1.9393
X1.605Y-1.25
X1.605Y-2.0
X1.76Y-2.155
X1.8182Y-3.4518
X1.85Y-3.45
X1.875Y-3.2
X1.8843Y-4.9393
X1.885Y-5.0
X1.895Y-1.19
X1.895Y-1.94
X1.91Y-2.895
X1.9793Y-2.6893
X1.98Y-2.75
X1.995Y-2.835
X2.065Y-2.865
X2.115Y-2.89
X2.1693Y-3.4393
X2.17Y-3.5
X2.175Y-4.94
X2.18Y-2.915
X2.205Y-2.99
X2.25Y-3.04
X2.27Y-2.69
X2.3Y-3.02
X2.315Y-3.06
X2.315Y-3.14
X2.325Y-2.98
X2.3275Y-3.6575
X2.3279Y-2.9386
X2.3543Y-1.1893
X2.3543Y-1.9393
X2.3543Y-4.1893
X2.355Y-1.25
X2.355Y-2.0
X2.355Y-2.135
X2.355Y-4.25
X2.46Y-3.44
X2.645Y-1.19
X2.645Y-1.94
X2.645Y-4.19
X2.7293Y-2.6893
X2.73Y-2.75
X2.7762Y-3.0138
X2.8243Y-4.9393
X2.825Y-5.0
X2.9193Y-3.4393
X2.92Y-3.5
X3.02Y-2.69
X3.0625Y-3.6425
X3.1043Y-1.1893
X3.1043Y-1.9393
X3.1043Y-4.1893
X3.105Y-1.25
X3.105Y-2.0
X3.105Y-2.12
X3.105Y-4.25
X3.115Y-4.94
X3.21Y-3.44
X3.395Y-1.19
X3.395Y-1.94
X3.395Y-4.19
X3.4793Y-2.6893
X3.48Y-2.75
X3.5112Y-2.9988
X3.6693Y-3.4393
X3.67Y-3.5
X3.77Y-2.69
X3.795Y-3.625
X3.8543Y-1.1893
X3.8543Y-1.9393
X3.8543Y-4.1893
X3.855Y-1.25
X3.855Y-2.0
X3.855Y-2.105
X3.855Y-4.25
X3.96Y-3.44
X4.0443Y-4.9393
X4.045Y-5.0
X4.145Y-1.19
X4.145Y-1.94
X4.145Y-4.19
X4.1722Y-1.3472
X4.2293Y-2.6893
X4.23Y-2.75
X4.2462Y-2.9838
X4.335Y-4.94
X4.345Y-0.855
X4.4193Y-3.4393
X4.42Y-3.5
X4.52Y-2.69
X4.5325Y-3.6125
X4.5412Y-1.5938
X4.6043Y-1.1893
X4.6043Y-1.9393
X4.6043Y-4.1893
X4.605Y-1.25
X4.605Y-2.0
X4.605Y-2.09
X4.605Y-4.25
X4.71Y-3.44
X4.8799Y-2.4549
X4.895Y-1.19
X4.895Y-1.94
X4.895Y-4.19
X4.94Y-1.3
X4.955Y-3.09
X4.9793Y-2.6893
X4.98Y-2.75
X4.9812Y-2.9688
X5.0649Y-3.2049
X5.12Y-1.63
X5.145Y-1.3
X5.1693Y-3.4393
X5.17Y-3.5
X5.1814Y-4.6589
X5.2248Y-1.8598
X5.2401Y-3.9549
X5.25Y-1.835
X5.2593Y-4.9393
X5.26Y-5.0
X5.2675Y-3.5975
X5.27Y-2.69
X5.3543Y-1.1893
X5.3543Y-1.9393
X5.3543Y-4.1893
X5.3544Y-2.0777
X5.355Y-1.25
X5.355Y-2.0
X5.355Y-4.25
X5.46Y-3.44
X5.55Y-4.94
X5.56Y-2.585
X5.585Y-2.605
X5.615Y-3.095
X5.6434Y-1.9984
X5.645Y-1.19
X5.645Y-1.94
X5.645Y-4.19
X5.6538Y-1.882
X5.7162Y-2.9538
X5.72Y-2.995
X5.7293Y-2.6893
X5.73Y-2.75
X5.79Y-4.57
X5.815Y-4.6
X5.828Y-3.382
X5.8516Y-3.4984
X5.8743Y-3.4393
X5.9193Y-3.4393
X5.92Y-3.5
X5.93Y-4.65
X5.94Y-2.06
X5.95Y-2.42
X5.954Y-2.609
X5.99Y-2.415
X6.0Y-3.58
X6.02Y-1.855
X6.02Y-2.69
X6.0234Y-2.7484
X6.025Y-2.445
X6.03Y-4.335
X6.036Y-2.632
X6.0396Y-4.271
X6.05Y-4.625
X6.06Y-2.43
X6.065Y-4.335
X6.0793Y-2.0607
X6.0795Y-2.2805
X6.1025Y-2.405
X6.1043Y-1.1893
X6.1043Y-1.9393
X6.1043Y-4.1893
X6.105Y-1.25
X6.105Y-2.0
X6.105Y-4.25
X6.125Y-2.4375
X6.1308Y-2.1392
X6.1472Y-2.41
X6.195Y-2.09
X6.21Y-2.59
X6.21Y-3.44
X6.2125Y-2.4925
X6.235Y-2.47
X6.255Y-3.35
X6.255Y-3.545
X6.2628Y-2.4528
X6.28Y-3.7067
X6.315Y-4.93
X6.32Y-3.4772
X6.3422Y-4.882
X6.345Y-2.974
X6.35Y-3.925
X6.3572Y-4.585
X6.3634Y-4.9984
X6.365Y-3.885
X6.3672Y-2.4567
X6.37Y-2.9518
X6.3716Y-3.965
X6.3829Y-4.0079
X6.385Y-4.45
X6.385Y-4.375
X6.385Y-4.415
X6.3854Y-4.555
X6.3875Y-1.9325
X6.39Y-1.635
X6.39Y-2.415
X6.395Y-1.19
X6.395Y-4.19
X6.3966Y-4.2484
X6.398Y-2.0407
X6.398Y-2.145
X6.4Y-3.865
X6.4038Y-4.132
X6.405Y-4.35
X6.4075Y-1.8125
X6.4126Y-3.9026
X6.415Y-2.34
X6.4274Y-4.3274
X6.43Y-1.835
X6.435Y-2.05
X6.445Y-3.35
X6.4525Y-1.8598
X6.4571Y-2.9371
X6.4793Y-2.6893
X6.4793Y-4.9393
X6.48Y-2.75
X6.48Y-5.0
X6.4886Y-3.6444
X6.525Y-3.495
X6.5477Y-4.1264
X6.55Y-1.94
X6.55Y-2.0678
X6.555Y-2.3575
X6.5575Y-1.8125
X6.5582Y-1.1893
X6.56Y-4.085
X6.57Y-2.21
X6.5909Y-1.2484
X6.5925Y-1.835
X6.605Y-4.115
X6.612Y-1.132
X6.615Y-1.8598
X6.62Y-3.55
X6.64Y-1.35
X6.64Y-1.94
X6.64Y-4.085
X6.6672Y-4.13
X6.6693Y-3.4393
X6.67Y-3.5
X6.69Y-4.215
X6.73Y-3.645
X6.7328Y-3.945
X6.75Y-2.465
X6.755Y-3.92
X6.77Y-2.69
X6.77Y-4.94
X6.85Y-2.58
X6.8543Y-1.1893
X6.8543Y-1.9393
X6.8543Y-4.1893
X6.855Y-1.25
X6.855Y-2.0
X6.855Y-4.25
X6.88Y-3.985
X6.88Y-4.06
X6.9188Y-3.9114
X6.925Y-2.36
X6.9375Y-2.0825
X6.955Y-3.56
X6.96Y-3.44
X6.98Y-2.42
X6.99Y-3.6994
X7.01Y-3.35
X7.06Y-3.5628
X7.095Y-3.725
X7.115Y-3.11
X7.145Y-1.19
X7.145Y-1.94
X7.145Y-3.87
X7.145Y-4.19
X7.1878Y-2.9222
X7.2293Y-2.6893
X7.23Y-2.75
X7.255Y-3.35
X7.255Y-3.44
X7.28Y-3.79
X7.29Y-3.705
X7.32Y-3.56
X7.4193Y-3.4393
X7.42Y-3.5
X7.4975Y-3.5777
X7.52Y-2.69
X7.6043Y-1.1893
X7.6043Y-1.9393
X7.6043Y-4.1893
X7.6043Y-4.9393
X7.605Y-1.25
X7.605Y-2.0
X7.605Y-4.25
X7.605Y-5.0
X7.7025Y-2.0975
X7.71Y-3.44
X7.895Y-1.19
X7.895Y-1.94
X7.895Y-4.19
X7.895Y-4.94
X7.9378Y-2.9072
X7.9793Y-2.6893
X7.98Y-2.75
X8.1693Y-3.4393
X8.17Y-3.5
X8.26Y-3.59
X8.27Y-2.69
X8.3543Y-1.1893
X8.3543Y-1.9393
X8.3543Y-4.1893
X8.3543Y-4.9393
X8.355Y-1.25
X8.355Y-2.0
X8.355Y-4.25
X8.355Y-5.0
X8.46Y-3.44
X8.4675Y-2.1125
X8.645Y-1.19
X8.645Y-1.94
X8.645Y-4.19
X8.645Y-4.94
X8.6878Y-2.8928
X8.7293Y-2.6893
X8.73Y-2.75
X8.9193Y-3.4393
X8.92Y-3.5
X9.02Y-2.69
X9.0275Y-3.6075
X9.1043Y-1.1893
X9.1043Y-1.9393
X9.1043Y-4.1893
X9.1043Y-4.9393
X9.105Y-1.25
X9.105Y-2.0
X9.105Y-4.25
X9.105Y-5.0
X9.21Y-3.44
X9.2325Y-2.1275
X9.395Y-1.19
X9.395Y-1.94
X9.395Y-4.19
X9.395Y-4.94
X9.4378Y-2.8778
X9.4793Y-2.6893
X9.48Y-2.75
X9.6693Y-3.4393
X9.67Y-3.5
X9.77Y-2.69
X9.7925Y-3.6225
X9.8543Y-4.1893
X9.8543Y-4.9393
X9.855Y-1.19
X9.855Y-1.25
X9.855Y-1.94
X9.855Y-2.0
X9.855Y-4.25
X9.855Y-5.0
X9.96Y-3.44
X9.9975Y-2.1425
X10.145Y-1.19
X10.145Y-1.94
X10.145Y-4.19
X10.145Y-4.94
X10.1878Y-2.8628
X10.2293Y-2.6893
X10.23Y-2.75
X10.52Y-2.69
X10.6043Y-1.9393
X10.6043Y-4.1893
X10.6043Y-4.9393
X10.605Y-1.25
X10.605Y-2.0
X10.605Y-4.25
X10.6057Y-1.1893
X10.6066Y-4.9984
X10.665Y-3.665
X10.7625Y-2.1575
X10.885Y-3.685
X10.8866Y-3.4984
X10.895Y-1.19
X10.895Y-1.94
X10.895Y-4.19
X10.895Y-4.94
X10.9664Y-2.8464
X11.165Y-2.75
X11.355Y-1.19
X11.355Y-1.25
X11.355Y-2.0
X11.355Y-2.175
X11.3566Y-4.2484
X11.3566Y-4.9984
X11.4014Y-2.8214
X11.425Y-3.71
T2
X0.9Y-2.85
X1.78Y-2.805
X1.895Y-3.39
X4.685Y-3.345
X5.7379Y-1.9429
X5.76Y-1.5975
X6.5225Y-1.6125
T3
X3.8438Y-0.6938
X3.9438Y-0.6938
X4.0438Y-0.6938
X4.1437Y-0.6938
X4.2437Y-0.6938
X4.2437Y-1.4938
X4.3438Y-0.6938
X4.3438Y-1.4938
X4.4437Y-0.6938
X4.4437Y-1.4938
X4.5438Y-0.6938
X4.643Y-1.395
X4.6437Y-0.6938
X4.6437Y-1.4938
X4.7437Y-0.6938
X4.7437Y-1.4938
X4.8418Y-1.4403
X4.8438Y-0.6938
X4.9437Y-0.6938
X4.9437Y-1.4938
X5.0438Y-0.6938
X5.0438Y-1.4938
X5.1437Y-0.6938
X5.1437Y-1.4938
X5.2437Y-0.6938
X5.2437Y-1.4938
X5.3438Y-0.6938
X5.3438Y-1.4938
T4
X0.85Y-0.9001
X0.85Y-1.6501
X0.9437Y-4.6502
X1.0375Y-2.4001
X1.1Y-0.8001
X1.1Y-1.5501
X1.1312Y-3.1502
X1.1937Y-4.5502
X1.225Y-3.9002
X1.2875Y-2.3001
X1.3812Y-3.0502
X1.475Y-3.8002
X1.6Y-0.9001
X1.6Y-1.6501
X1.85Y-0.8001
X1.85Y-1.5501
X1.8812Y-4.6502
X1.975Y-2.4001
X2.1313Y-4.5502
X2.1625Y-3.1502
X2.225Y-2.3001
X2.35Y-0.9001
X2.35Y-1.6501
X2.35Y-3.9002
X2.4125Y-3.0502
X2.6Y-0.8001
X2.6Y-1.5501
X2.6Y-3.8002
X2.725Y-2.4001
X2.8188Y-4.6502
X2.9125Y-3.1502
X2.975Y-2.3001
X3.0688Y-4.5502
X3.1Y-0.9001
X3.1Y-1.6501
X3.1Y-3.9002
X3.1625Y-3.0502
X3.35Y-0.8001
X3.35Y-1.5501
X3.35Y-3.8002
X3.475Y-2.4001
X3.6625Y-3.1502
X3.725Y-2.3001
X3.85Y-0.9001
X3.85Y-1.6501
X3.85Y-3.9002
X3.9125Y-3.0502
X4.0375Y-4.6502
X4.1Y-0.8001
X4.1Y-1.5501
X4.1Y-3.8002
X4.225Y-2.4001
X4.2875Y-4.5502
X4.4125Y-3.1502
X4.475Y-2.3001
X4.6Y-0.9001
X4.6Y-1.6501
X4.6Y-3.9002
X4.6625Y-3.0502
X4.85Y-0.8001
X4.85Y-1.5501
X4.85Y-3.8002
X4.975Y-2.4001
X5.1625Y-3.1502
X5.225Y-2.3001
X5.2562Y-4.6502
X5.35Y-0.9001
X5.35Y-1.6501
X5.35Y-3.9002
X5.4125Y-3.0502
X5.5062Y-4.5502
X5.6Y-0.8001
X5.6Y-1.5501
X5.6Y-3.8002
X5.725Y-2.4001
X5.9125Y-3.1502
X5.975Y-2.3001
X6.1Y-0.9001
X6.1Y-1.6501
X6.1Y-3.9002
X6.1625Y-3.0502
X6.35Y-0.8001
X6.35Y-1.5501
X6.35Y-3.8002
X6.475Y-2.4001
X6.475Y-4.6502
X6.6625Y-3.1502
X6.725Y-2.3001
X6.725Y-4.5502
X6.85Y-0.9001
X6.85Y-1.6501
X6.85Y-3.9002
X6.9125Y-3.0502
X7.1Y-0.8001
X7.1Y-1.5501
X7.1Y-3.8002
X7.225Y-2.4001
X7.4125Y-3.1502
X7.475Y-2.3001
X7.6Y-0.9001
X7.6Y-1.6501
X7.6Y-3.9002
X7.6Y-4.6502
X7.6625Y-3.0502
X7.85Y-0.8001
X7.85Y-1.5501
X7.85Y-3.8002
X7.85Y-4.5502
X7.975Y-2.4001
X8.1625Y-3.1502
X8.225Y-2.3001
X8.35Y-0.9001
X8.35Y-1.6501
X8.35Y-3.9002
X8.35Y-4.6502
X8.4125Y-3.0502
X8.6Y-0.8001
X8.6Y-1.5501
X8.6Y-3.8002
X8.6Y-4.5502
X8.725Y-2.4001
X8.9125Y-3.1502
X8.975Y-2.3001
X9.1Y-0.9001
X9.1Y-1.6501
X9.1Y-3.9002
X9.1Y-4.6502
X9.1625Y-3.0502
X9.35Y-0.8001
X9.35Y-1.5501
X9.35Y-3.8002
X9.35Y-4.5502
X9.475Y-2.4001
X9.6625Y-3.1502
X9.725Y-2.3001
X9.85Y-0.9001
X9.85Y-1.6501
X9.85Y-3.9002
X9.85Y-4.6502
X9.9125Y-3.0502
X10.1Y-0.8001
X10.1Y-1.5501
X10.1Y-3.8002
X10.1Y-4.5502
X10.225Y-2.4001
X10.475Y-2.3001
X10.6Y-0.9001
X10.6Y-1.6501
X10.6Y-3.9002
X10.6Y-4.6502
X10.85Y-0.8001
X10.85Y-1.5501
X10.85Y-3.8002
X10.85Y-4.5502
X10.8812Y-3.1502
X11.1312Y-3.0502
X11.1625Y-2.4001
X11.35Y-0.9001
X11.35Y-1.6501
X11.35Y-3.9002
X11.35Y-4.6502
X11.4125Y-2.3001
X11.6Y-0.8001
X11.6Y-1.5501
X11.6Y-3.8002
X11.6Y-4.5502
T5
X6.25Y-2.28
X6.605Y-3.785
T6
X2.1875Y-0.8125
X3.1562Y-0.75
T0
M30
